<svg width="501" height="60" viewBox="0 0 501 60" fill="none" xmlns="http://www.w3.org/2000/svg">
<path d="M0.936 59L8.46 1.4H24.192L25.2 9.608H15.372L14.364 26.132L12.924 37.58H17.676L15.48 45.788H12.384L10.476 59H0.936ZM22.032 59L18.324 26.06L17.712 12.848H25.416L31.572 59H22.032ZM36.4084 59V1.4H45.6964V59H36.4084ZM49.1884 57.848V52.52C49.5004 52.616 49.8244 52.7 50.1604 52.772C50.4964 52.82 50.8324 52.844 51.1684 52.844C52.3444 52.844 53.1844 52.556 53.6884 51.98C54.2164 51.38 54.5044 50.444 54.5524 49.172C54.6484 47.588 54.7204 45.812 54.7684 43.844C54.8164 41.876 54.8404 39.836 54.8404 37.724C54.8404 35.588 54.8164 33.488 54.7684 31.424C54.7204 29.336 54.6484 27.404 54.5524 25.628C54.5044 24.356 54.2164 23.432 53.6884 22.856C53.1844 22.256 52.3444 21.956 51.1684 21.956C50.5204 21.956 49.8604 22.064 49.1884 22.28V17.6C49.8604 16.808 50.6524 16.208 51.5644 15.8C52.4764 15.368 53.6524 15.152 55.0924 15.152C57.9004 15.152 60.0124 16.016 61.4284 17.744C62.8684 19.472 63.6844 22.352 63.8764 26.384C63.9244 27.8 63.9604 29.48 63.9844 31.424C64.0084 33.368 64.0204 35.384 64.0204 37.472C64.0204 39.56 64.0084 41.564 63.9844 43.484C63.9604 45.404 63.9244 47.036 63.8764 48.38C63.6844 52.412 62.7724 55.304 61.1404 57.056C59.5324 58.784 57.3124 59.648 54.4804 59.648C53.2324 59.648 52.1884 59.492 51.3484 59.18C50.5324 58.892 49.8124 58.448 49.1884 57.848ZM70.0588 46.472C70.0108 45.368 69.9628 44.036 69.9148 42.476C69.8908 40.892 69.8788 39.236 69.8788 37.508C69.8788 35.756 69.8908 34.076 69.9148 32.468C69.9388 30.836 69.9868 29.432 70.0588 28.256C70.2748 23.864 71.2348 20.648 72.9388 18.608C74.6428 16.568 77.5708 15.428 81.7228 15.188V22.388C80.9068 22.604 80.3068 23.012 79.9228 23.612C79.5628 24.212 79.3708 25.004 79.3468 25.988C79.2988 27.86 79.2508 29.756 79.2028 31.676C79.1788 33.572 79.1668 35.48 79.1668 37.4C79.1668 39.296 79.1788 41.204 79.2028 43.124C79.2508 45.02 79.2988 46.904 79.3468 48.776C79.3708 49.76 79.5628 50.552 79.9228 51.152C80.3068 51.752 80.9068 52.172 81.7228 52.412V59.612C77.5948 59.372 74.6668 58.232 72.9388 56.192C71.2348 54.152 70.2748 50.912 70.0588 46.472ZM85.1788 59.612V52.484C86.0188 52.244 86.6188 51.824 86.9788 51.224C87.3628 50.6 87.5788 49.784 87.6268 48.776C87.6748 46.88 87.7108 44.984 87.7348 43.088C87.7828 41.192 87.8068 39.284 87.8068 37.364C87.8068 35.444 87.7828 33.536 87.7348 31.64C87.7108 29.744 87.6748 27.86 87.6268 25.988C87.5788 24.956 87.3628 24.152 86.9788 23.576C86.6188 22.976 86.0188 22.556 85.1788 22.316V15.188C87.9868 15.332 90.2188 15.884 91.8748 16.844C93.5308 17.78 94.7428 19.196 95.5108 21.092C96.3028 22.964 96.7708 25.352 96.9148 28.256C96.9628 29.36 96.9988 30.704 97.0228 32.288C97.0468 33.872 97.0588 35.54 97.0588 37.292C97.0588 39.02 97.0468 40.688 97.0228 42.296C96.9988 43.904 96.9628 45.296 96.9148 46.472C96.7708 49.424 96.3028 51.848 95.5108 53.744C94.7428 55.616 93.5308 57.032 91.8748 57.992C90.2188 58.928 87.9868 59.468 85.1788 59.612ZM102.872 48.38V15.8H112.16V49.172C112.16 50.444 112.436 51.38 112.988 51.98C113.564 52.556 114.428 52.844 115.58 52.844C116.204 52.844 116.864 52.724 117.56 52.484V57.488C116.096 58.928 114.236 59.648 111.98 59.648C109.196 59.648 106.976 58.784 105.32 57.056C103.688 55.304 102.872 52.412 102.872 48.38ZM121.016 59V15.8H130.34V59H121.016ZM134.944 22.856V15.8H138.76V3.56H148.048V48.884C148.048 50.3 148.336 51.296 148.912 51.872C149.488 52.448 150.712 52.736 152.584 52.736C153.16 52.736 153.7 52.724 154.204 52.7C154.732 52.676 155.32 52.652 155.968 52.628V59.288C155.464 59.432 154.924 59.528 154.348 59.576C153.772 59.624 153.172 59.648 152.548 59.648C147.604 59.648 144.064 58.736 141.928 56.912C139.816 55.088 138.76 52.076 138.76 47.876V22.856H134.944ZM151.36 22.856V15.8H155.248V22.856H151.36ZM170.134 22.856V15.8H173.95V3.56H183.238V48.884C183.238 50.3 183.526 51.296 184.102 51.872C184.678 52.448 185.902 52.736 187.774 52.736C188.35 52.736 188.89 52.724 189.394 52.7C189.922 52.676 190.51 52.652 191.158 52.628V59.288C190.654 59.432 190.114 59.528 189.538 59.576C188.962 59.624 188.362 59.648 187.738 59.648C182.794 59.648 179.254 58.736 177.118 56.912C175.006 55.088 173.95 52.076 173.95 47.876V22.856H170.134ZM186.55 22.856V15.8H190.438V22.856H186.55ZM195.767 59V1.4H205.055V59H195.767ZM214.055 59V25.628C214.055 24.356 213.755 23.432 213.155 22.856C212.579 22.256 211.703 21.956 210.527 21.956C209.831 21.956 209.147 22.076 208.475 22.316V17.672C209.195 16.856 209.999 16.232 210.887 15.8C211.799 15.368 212.987 15.152 214.451 15.152C217.259 15.152 219.443 16.016 221.003 17.744C222.563 19.472 223.343 22.352 223.343 26.384V59H214.055ZM229.804 47.876C229.756 46.772 229.72 45.308 229.696 43.484C229.672 41.636 229.66 39.668 229.66 37.58C229.66 35.492 229.672 33.512 229.696 31.64C229.72 29.744 229.756 28.22 229.804 27.068C230.092 23.084 231.112 20.168 232.864 18.32C234.64 16.472 237.412 15.428 241.18 15.188V22.352C240.484 22.544 239.968 22.916 239.632 23.468C239.32 23.996 239.14 24.728 239.092 25.664C239.044 27.584 239.008 29.516 238.984 31.46C238.96 33.404 238.948 35.348 238.948 37.292C238.948 39.236 238.96 41.168 238.984 43.088C239.008 45.008 239.044 46.928 239.092 48.848C239.14 49.856 239.32 50.648 239.632 51.224C239.968 51.8 240.484 52.196 241.18 52.412V59.612C237.34 59.372 234.532 58.34 232.756 56.516C231.004 54.668 230.02 51.788 229.804 47.876ZM244.672 59.612V52.448C245.32 52.208 245.8 51.8 246.112 51.224C246.424 50.648 246.604 49.856 246.652 48.848C246.7 48.176 246.724 47.312 246.724 46.256C246.724 45.176 246.7 44 246.652 42.728H255.688C255.736 43.16 255.772 43.916 255.796 44.996C255.82 46.076 255.808 47.036 255.76 47.876C255.592 51.812 254.644 54.704 252.916 56.552C251.188 58.376 248.44 59.396 244.672 59.612ZM242.332 38.984V32.54H246.724C246.724 31.484 246.724 30.488 246.724 29.552C246.724 28.592 246.712 27.776 246.688 27.104C246.688 26.408 246.676 25.928 246.652 25.664C246.628 24.752 246.448 24.032 246.112 23.504C245.8 22.976 245.32 22.604 244.672 22.388V15.224C248.44 15.44 251.176 16.448 252.88 18.248C254.608 20.048 255.568 22.868 255.76 26.708C255.784 27.284 255.796 28.256 255.796 29.624C255.82 30.968 255.82 32.48 255.796 34.16C255.796 35.84 255.76 37.448 255.688 38.984H242.332ZM294.711 58.928L290.967 41.972L287.907 9.608H278.187V1.4H293.919L298.023 23.108L299.319 50.72H301.047L302.307 23.036L306.447 1.4H322.143V9.608H312.423L309.399 42.008L305.619 58.928H294.711ZM278.187 59V12.92H285.135L287.511 42.944V59H278.187ZM312.855 59V43.016L315.267 12.92H322.143V59H312.855ZM328.535 46.472C328.439 39.008 328.391 31.496 328.391 23.936C328.391 16.352 328.439 8.84 328.535 1.4H337.859C337.763 6.368 337.703 11.516 337.679 16.844C337.679 22.148 337.691 27.452 337.715 32.756C337.739 38.06 337.775 43.196 337.823 48.164C337.823 49.148 338.051 49.952 338.507 50.576C338.963 51.2 339.647 51.632 340.559 51.872V59.612C336.311 59.372 333.263 58.232 331.415 56.192C329.567 54.128 328.607 50.888 328.535 46.472ZM344.051 59.612V51.872C344.939 51.632 345.599 51.2 346.031 50.576C346.463 49.952 346.679 49.148 346.679 48.164C346.727 43.196 346.763 38.06 346.787 32.756C346.835 27.452 346.847 22.148 346.823 16.844C346.823 11.516 346.775 6.368 346.679 1.4H355.967C356.087 8.84 356.147 16.352 356.147 23.936C356.147 31.496 356.087 39.008 355.967 46.472C355.895 50.888 354.935 54.128 353.087 56.192C351.263 58.232 348.251 59.372 344.051 59.612ZM373.472 59.612C369.32 59.372 366.344 58.232 364.544 56.192C362.768 54.128 361.784 50.876 361.592 46.436C361.568 45.5 361.556 44.528 361.556 43.52C361.556 42.512 361.58 41.516 361.628 40.532C361.676 39.524 361.748 38.54 361.844 37.58H370.592C370.496 39.428 370.436 41.264 370.412 43.088C370.412 44.888 370.472 46.568 370.592 48.128C370.688 49.136 370.964 49.952 371.42 50.576C371.876 51.2 372.56 51.632 373.472 51.872V59.612ZM376.964 59.612V51.872C377.78 51.608 378.392 51.176 378.8 50.576C379.232 49.952 379.496 49.136 379.592 48.128C379.688 47.168 379.748 46.256 379.772 45.392C379.82 44.528 379.82 43.652 379.772 42.764C379.748 41.876 379.688 40.94 379.592 39.956C379.52 38.756 379.22 37.7 378.692 36.788C378.188 35.876 377.336 35.264 376.136 34.952L370.772 33.584C368.444 32.984 366.608 32.12 365.264 30.992C363.92 29.84 362.948 28.4 362.348 26.672C361.772 24.944 361.448 22.904 361.376 20.552C361.352 19.376 361.34 18.248 361.34 17.168C361.34 16.064 361.352 14.972 361.376 13.892C361.544 9.452 362.528 6.224 364.328 4.208C366.152 2.168 369.2 1.028 373.472 0.787996V8.528C372.584 8.768 371.924 9.188 371.492 9.788C371.06 10.388 370.784 11.192 370.664 12.2C370.544 13.592 370.484 14.984 370.484 16.376C370.484 17.768 370.544 19.16 370.664 20.552C370.784 21.8 371.096 22.856 371.6 23.72C372.128 24.584 373.04 25.172 374.336 25.484L379.052 26.6C381.524 27.2 383.468 28.1 384.884 29.3C386.3 30.476 387.308 31.952 387.908 33.728C388.532 35.504 388.88 37.58 388.952 39.956C388.976 40.748 388.988 41.504 388.988 42.224C388.988 42.92 388.976 43.616 388.952 44.312C388.952 44.984 388.928 45.692 388.88 46.436C388.712 50.852 387.716 54.092 385.892 56.156C384.092 58.22 381.116 59.372 376.964 59.612ZM379.628 22.604C379.7 20.876 379.748 19.148 379.772 17.42C379.796 15.668 379.772 13.928 379.7 12.2C379.676 11.216 379.424 10.424 378.944 9.824C378.464 9.224 377.792 8.804 376.928 8.564V0.787996C380.936 1.028 383.852 2.18 385.676 4.244C387.5 6.284 388.496 9.5 388.664 13.892C388.712 14.996 388.724 16.352 388.7 17.96C388.676 19.568 388.628 21.116 388.556 22.604H379.628ZM394.382 46.472C394.286 39.008 394.238 31.496 394.238 23.936C394.238 16.352 394.286 8.84 394.382 1.4H403.706C403.61 6.368 403.55 11.516 403.526 16.844C403.526 22.148 403.538 27.452 403.562 32.756C403.586 38.06 403.622 43.196 403.67 48.164C403.67 49.148 403.898 49.952 404.354 50.576C404.81 51.2 405.494 51.632 406.406 51.872V59.612C402.158 59.372 399.11 58.232 397.262 56.192C395.414 54.128 394.454 50.888 394.382 46.472ZM409.898 59.612V51.872C410.786 51.632 411.446 51.2 411.878 50.576C412.31 49.952 412.526 49.148 412.526 48.164C412.574 43.196 412.61 38.06 412.634 32.756C412.682 27.452 412.694 22.148 412.67 16.844C412.67 11.516 412.622 6.368 412.526 1.4H421.814C421.934 8.84 421.994 16.352 421.994 23.936C421.994 31.496 421.934 39.008 421.814 46.472C421.742 50.888 420.782 54.128 418.934 56.192C417.11 58.232 414.098 59.372 409.898 59.612ZM428.231 59V1.4H437.555V59H428.231ZM440.975 59V50.792H450.983V59H440.975ZM440.975 33.872V25.664H450.263V33.872H440.975ZM440.975 9.608V1.4H450.983V9.608H440.975ZM472.967 58.928L469.223 41.972L466.163 9.608H456.443V1.4H472.175L476.279 23.108L477.575 50.72H479.303L480.563 23.036L484.703 1.4H500.399V9.608H490.679L487.655 42.008L483.875 58.928H472.967ZM456.443 59V12.92H463.391L465.767 42.944V59H456.443ZM491.111 59V43.016L493.523 12.92H500.399V59H491.111Z" fill="#F5EDFF"/>
</svg>
