<svg width="538" height="145" viewBox="0 0 538 145" fill="none" xmlns="http://www.w3.org/2000/svg">
<path d="M0.936 58L8.46 0.399999H24.192L25.2 8.608H15.372L14.364 25.132L12.924 36.58H17.676L15.48 44.788H12.384L10.476 58H0.936ZM22.032 58L18.324 25.06L17.712 11.848H25.416L31.572 58H22.032ZM36.4084 58V0.399999H45.6964V58H36.4084ZM49.1884 56.848V51.52C49.5004 51.616 49.8244 51.7 50.1604 51.772C50.4964 51.82 50.8324 51.844 51.1684 51.844C52.3444 51.844 53.1844 51.556 53.6884 50.98C54.2164 50.38 54.5044 49.444 54.5524 48.172C54.6484 46.588 54.7204 44.812 54.7684 42.844C54.8164 40.876 54.8404 38.836 54.8404 36.724C54.8404 34.588 54.8164 32.488 54.7684 30.424C54.7204 28.336 54.6484 26.404 54.5524 24.628C54.5044 23.356 54.2164 22.432 53.6884 21.856C53.1844 21.256 52.3444 20.956 51.1684 20.956C50.5204 20.956 49.8604 21.064 49.1884 21.28V16.6C49.8604 15.808 50.6524 15.208 51.5644 14.8C52.4764 14.368 53.6524 14.152 55.0924 14.152C57.9004 14.152 60.0124 15.016 61.4284 16.744C62.8684 18.472 63.6844 21.352 63.8764 25.384C63.9244 26.8 63.9604 28.48 63.9844 30.424C64.0084 32.368 64.0204 34.384 64.0204 36.472C64.0204 38.56 64.0084 40.564 63.9844 42.484C63.9604 44.404 63.9244 46.036 63.8764 47.38C63.6844 51.412 62.7724 54.304 61.1404 56.056C59.5324 57.784 57.3124 58.648 54.4804 58.648C53.2324 58.648 52.1884 58.492 51.3484 58.18C50.5324 57.892 49.8124 57.448 49.1884 56.848ZM70.0588 45.472C70.0108 44.368 69.9628 43.036 69.9148 41.476C69.8908 39.892 69.8788 38.236 69.8788 36.508C69.8788 34.756 69.8908 33.076 69.9148 31.468C69.9388 29.836 69.9868 28.432 70.0588 27.256C70.2748 22.864 71.2348 19.648 72.9388 17.608C74.6428 15.568 77.5708 14.428 81.7228 14.188V21.388C80.9068 21.604 80.3068 22.012 79.9228 22.612C79.5628 23.212 79.3708 24.004 79.3468 24.988C79.2988 26.86 79.2508 28.756 79.2028 30.676C79.1788 32.572 79.1668 34.48 79.1668 36.4C79.1668 38.296 79.1788 40.204 79.2028 42.124C79.2508 44.02 79.2988 45.904 79.3468 47.776C79.3708 48.76 79.5628 49.552 79.9228 50.152C80.3068 50.752 80.9068 51.172 81.7228 51.412V58.612C77.5948 58.372 74.6668 57.232 72.9388 55.192C71.2348 53.152 70.2748 49.912 70.0588 45.472ZM85.1788 58.612V51.484C86.0188 51.244 86.6188 50.824 86.9788 50.224C87.3628 49.6 87.5788 48.784 87.6268 47.776C87.6748 45.88 87.7108 43.984 87.7348 42.088C87.7828 40.192 87.8068 38.284 87.8068 36.364C87.8068 34.444 87.7828 32.536 87.7348 30.64C87.7108 28.744 87.6748 26.86 87.6268 24.988C87.5788 23.956 87.3628 23.152 86.9788 22.576C86.6188 21.976 86.0188 21.556 85.1788 21.316V14.188C87.9868 14.332 90.2188 14.884 91.8748 15.844C93.5308 16.78 94.7428 18.196 95.5108 20.092C96.3028 21.964 96.7708 24.352 96.9148 27.256C96.9628 28.36 96.9988 29.704 97.0228 31.288C97.0468 32.872 97.0588 34.54 97.0588 36.292C97.0588 38.02 97.0468 39.688 97.0228 41.296C96.9988 42.904 96.9628 44.296 96.9148 45.472C96.7708 48.424 96.3028 50.848 95.5108 52.744C94.7428 54.616 93.5308 56.032 91.8748 56.992C90.2188 57.928 87.9868 58.468 85.1788 58.612ZM102.872 47.38V14.8H112.16V48.172C112.16 49.444 112.436 50.38 112.988 50.98C113.564 51.556 114.428 51.844 115.58 51.844C116.204 51.844 116.864 51.724 117.56 51.484V56.488C116.096 57.928 114.236 58.648 111.98 58.648C109.196 58.648 106.976 57.784 105.32 56.056C103.688 54.304 102.872 51.412 102.872 47.38ZM121.016 58V14.8H130.34V58H121.016ZM134.944 21.856V14.8H138.76V2.56H148.048V47.884C148.048 49.3 148.336 50.296 148.912 50.872C149.488 51.448 150.712 51.736 152.584 51.736C153.16 51.736 153.7 51.724 154.204 51.7C154.732 51.676 155.32 51.652 155.968 51.628V58.288C155.464 58.432 154.924 58.528 154.348 58.576C153.772 58.624 153.172 58.648 152.548 58.648C147.604 58.648 144.064 57.736 141.928 55.912C139.816 54.088 138.76 51.076 138.76 46.876V21.856H134.944ZM151.36 21.856V14.8H155.248V21.856H151.36ZM170.134 21.856V14.8H173.95V2.56H183.238V47.884C183.238 49.3 183.526 50.296 184.102 50.872C184.678 51.448 185.902 51.736 187.774 51.736C188.35 51.736 188.89 51.724 189.394 51.7C189.922 51.676 190.51 51.652 191.158 51.628V58.288C190.654 58.432 190.114 58.528 189.538 58.576C188.962 58.624 188.362 58.648 187.738 58.648C182.794 58.648 179.254 57.736 177.118 55.912C175.006 54.088 173.95 51.076 173.95 46.876V21.856H170.134ZM186.55 21.856V14.8H190.438V21.856H186.55ZM195.767 58V0.399999H205.055V58H195.767ZM214.055 58V24.628C214.055 23.356 213.755 22.432 213.155 21.856C212.579 21.256 211.703 20.956 210.527 20.956C209.831 20.956 209.147 21.076 208.475 21.316V16.672C209.195 15.856 209.999 15.232 210.887 14.8C211.799 14.368 212.987 14.152 214.451 14.152C217.259 14.152 219.443 15.016 221.003 16.744C222.563 18.472 223.343 21.352 223.343 25.384V58H214.055ZM229.804 46.876C229.756 45.772 229.72 44.308 229.696 42.484C229.672 40.636 229.66 38.668 229.66 36.58C229.66 34.492 229.672 32.512 229.696 30.64C229.72 28.744 229.756 27.22 229.804 26.068C230.092 22.084 231.112 19.168 232.864 17.32C234.64 15.472 237.412 14.428 241.18 14.188V21.352C240.484 21.544 239.968 21.916 239.632 22.468C239.32 22.996 239.14 23.728 239.092 24.664C239.044 26.584 239.008 28.516 238.984 30.46C238.96 32.404 238.948 34.348 238.948 36.292C238.948 38.236 238.96 40.168 238.984 42.088C239.008 44.008 239.044 45.928 239.092 47.848C239.14 48.856 239.32 49.648 239.632 50.224C239.968 50.8 240.484 51.196 241.18 51.412V58.612C237.34 58.372 234.532 57.34 232.756 55.516C231.004 53.668 230.02 50.788 229.804 46.876ZM244.672 58.612V51.448C245.32 51.208 245.8 50.8 246.112 50.224C246.424 49.648 246.604 48.856 246.652 47.848C246.7 47.176 246.724 46.312 246.724 45.256C246.724 44.176 246.7 43 246.652 41.728H255.688C255.736 42.16 255.772 42.916 255.796 43.996C255.82 45.076 255.808 46.036 255.76 46.876C255.592 50.812 254.644 53.704 252.916 55.552C251.188 57.376 248.44 58.396 244.672 58.612ZM242.332 37.984V31.54H246.724C246.724 30.484 246.724 29.488 246.724 28.552C246.724 27.592 246.712 26.776 246.688 26.104C246.688 25.408 246.676 24.928 246.652 24.664C246.628 23.752 246.448 23.032 246.112 22.504C245.8 21.976 245.32 21.604 244.672 21.388V14.224C248.44 14.44 251.176 15.448 252.88 17.248C254.608 19.048 255.568 21.868 255.76 25.708C255.784 26.284 255.796 27.256 255.796 28.624C255.82 29.968 255.82 31.48 255.796 33.16C255.796 34.84 255.76 36.448 255.688 37.984H242.332ZM293.991 58L290.031 38.704L286.719 8.536H278.187V0.399999H292.083L295.971 18.724L300.183 49.792H308.535V58H293.991ZM278.187 58V11.884H284.199L286.395 38.776L287.187 58H278.187ZM302.595 46.444L300.003 19.012L299.535 0.399999H308.535V46.444H302.595ZM315.109 45.472C315.061 44.368 315.013 43.036 314.965 41.476C314.941 39.892 314.929 38.236 314.929 36.508C314.929 34.756 314.941 33.076 314.965 31.468C314.989 29.836 315.037 28.432 315.109 27.256C315.325 22.864 316.285 19.648 317.989 17.608C319.693 15.568 322.621 14.428 326.773 14.188V21.388C325.957 21.604 325.357 22.012 324.973 22.612C324.613 23.212 324.421 24.004 324.397 24.988C324.349 26.86 324.301 28.756 324.253 30.676C324.229 32.572 324.217 34.48 324.217 36.4C324.217 38.296 324.229 40.204 324.253 42.124C324.301 44.02 324.349 45.904 324.397 47.776C324.421 48.76 324.613 49.552 324.973 50.152C325.357 50.752 325.957 51.172 326.773 51.412V58.612C322.645 58.372 319.717 57.232 317.989 55.192C316.285 53.152 315.325 49.912 315.109 45.472ZM330.229 58.612V51.484C331.069 51.244 331.669 50.824 332.029 50.224C332.413 49.6 332.629 48.784 332.677 47.776C332.725 45.88 332.761 43.984 332.785 42.088C332.833 40.192 332.857 38.284 332.857 36.364C332.857 34.444 332.833 32.536 332.785 30.64C332.761 28.744 332.725 26.86 332.677 24.988C332.629 23.956 332.413 23.152 332.029 22.576C331.669 21.976 331.069 21.556 330.229 21.316V14.188C333.037 14.332 335.269 14.884 336.925 15.844C338.581 16.78 339.793 18.196 340.561 20.092C341.353 21.964 341.821 24.352 341.965 27.256C342.013 28.36 342.049 29.704 342.073 31.288C342.097 32.872 342.109 34.54 342.109 36.292C342.109 38.02 342.097 39.688 342.073 41.296C342.049 42.904 342.013 44.296 341.965 45.472C341.821 48.424 341.353 50.848 340.561 52.744C339.793 54.616 338.581 56.032 336.925 56.992C335.269 57.928 333.037 58.468 330.229 58.612ZM348.571 58V31.972H357.643L360.775 23.116L364.627 14.8H374.275L357.427 47.092V58H348.571ZM348.571 29.596V0.399999H357.247V11.956L356.347 29.596H348.571ZM361.423 44.752L367.111 34.78L375.751 58H366.247L361.423 44.752ZM395.324 58V0.399999H404.648V58H395.324ZM422.239 71.752C418.831 71.56 416.263 70.924 414.535 69.844C412.807 68.788 411.775 67.432 411.439 65.776C411.367 65.368 411.307 64.96 411.259 64.552C411.235 64.144 411.259 63.724 411.331 63.292C411.475 62.14 411.907 61.144 412.627 60.304C413.347 59.488 414.523 58.948 416.155 58.684V57.316C413.227 56.86 411.619 55.504 411.331 53.248C411.259 52.744 411.223 52.384 411.223 52.168C411.223 51.952 411.259 51.616 411.331 51.16C411.451 50.176 411.931 49.288 412.771 48.496C413.635 47.68 414.787 47.2 416.227 47.056V45.724C414.403 44.86 413.035 43.564 412.123 41.836C411.235 40.108 410.707 37.864 410.539 35.104C410.491 34.192 410.455 33.364 410.431 32.62C410.407 31.852 410.395 31.12 410.395 30.424C410.395 29.728 410.407 29.032 410.431 28.336C410.455 27.64 410.491 26.884 410.539 26.068C410.827 22.06 411.883 19.132 413.707 17.284C415.531 15.436 418.375 14.404 422.239 14.188V21.316C421.375 21.556 420.715 21.976 420.259 22.576C419.803 23.176 419.551 23.98 419.503 24.988C419.455 26.284 419.419 27.58 419.395 28.876C419.395 30.172 419.395 31.444 419.395 32.692C419.419 33.916 419.455 35.08 419.503 36.184C419.551 37.192 419.803 37.996 420.259 38.596C420.715 39.196 421.375 39.616 422.239 39.856V47.128C420.895 47.224 419.959 47.452 419.431 47.812C418.927 48.148 418.675 48.616 418.675 49.216C418.675 49.264 418.675 49.312 418.675 49.36C418.675 49.408 418.675 49.456 418.675 49.504C418.675 50.104 418.927 50.56 419.431 50.872C419.935 51.16 420.871 51.376 422.239 51.52V58C421.159 58.168 420.283 58.456 419.611 58.864C418.939 59.272 418.531 59.848 418.387 60.592C418.267 60.952 418.207 61.3 418.207 61.636C418.207 61.972 418.267 62.32 418.387 62.68C418.531 63.424 418.939 63.988 419.611 64.372C420.307 64.78 421.183 65.068 422.239 65.236V71.752ZM425.731 71.788V65.452C427.483 65.38 428.827 65.104 429.763 64.624C430.699 64.168 431.311 63.46 431.599 62.5C431.743 62.14 431.803 61.78 431.779 61.42C431.779 61.06 431.695 60.7 431.527 60.34C431.263 59.428 430.663 58.78 429.727 58.396C428.815 58.036 427.483 57.832 425.731 57.784V51.664C430.003 51.808 433.207 52.576 435.343 53.968C437.479 55.36 438.787 57.424 439.267 60.16C439.315 60.52 439.351 60.964 439.375 61.492C439.399 62.044 439.363 62.62 439.267 63.22C438.811 66.292 437.335 68.452 434.839 69.7C432.367 70.972 429.331 71.668 425.731 71.788ZM425.731 47.02V39.856C426.571 39.616 427.207 39.196 427.639 38.596C428.095 37.996 428.347 37.192 428.395 36.184C428.443 35.08 428.467 33.916 428.467 32.692C428.491 31.444 428.491 30.172 428.467 28.876C428.467 27.58 428.443 26.284 428.395 24.988C428.347 23.98 428.095 23.188 427.639 22.612C427.207 22.012 426.571 21.592 425.731 21.352V14.188C430.555 14.476 433.819 16.048 435.523 18.904H436.783C436.951 17.512 437.455 16.492 438.295 15.844C439.159 15.172 440.407 14.824 442.039 14.8V21.856H441.031C439.783 21.856 438.871 22.18 438.295 22.828C437.743 23.452 437.467 24.484 437.467 25.924V27.94C437.467 28.804 437.467 29.608 437.467 30.352C437.491 31.096 437.491 31.852 437.467 32.62C437.467 33.388 437.443 34.216 437.395 35.104C437.155 39.064 436.123 41.992 434.299 43.888C432.475 45.76 429.619 46.804 425.731 47.02ZM446.021 58V0.399999H455.309V58H446.021ZM458.801 56.848V51.52C459.113 51.616 459.437 51.7 459.773 51.772C460.109 51.82 460.445 51.844 460.781 51.844C461.957 51.844 462.797 51.556 463.301 50.98C463.829 50.38 464.117 49.444 464.165 48.172C464.261 46.588 464.333 44.812 464.381 42.844C464.429 40.876 464.453 38.836 464.453 36.724C464.453 34.588 464.429 32.488 464.381 30.424C464.333 28.336 464.261 26.404 464.165 24.628C464.117 23.356 463.829 22.432 463.301 21.856C462.797 21.256 461.957 20.956 460.781 20.956C460.133 20.956 459.473 21.064 458.801 21.28V16.6C459.473 15.808 460.265 15.208 461.177 14.8C462.089 14.368 463.265 14.152 464.705 14.152C467.513 14.152 469.625 15.016 471.041 16.744C472.481 18.472 473.297 21.352 473.489 25.384C473.537 26.8 473.573 28.48 473.597 30.424C473.621 32.368 473.633 34.384 473.633 36.472C473.633 38.56 473.621 40.564 473.597 42.484C473.573 44.404 473.537 46.036 473.489 47.38C473.297 51.412 472.385 54.304 470.753 56.056C469.145 57.784 466.925 58.648 464.093 58.648C462.845 58.648 461.801 58.492 460.961 58.18C460.145 57.892 459.425 57.448 458.801 56.848ZM479.671 45.472C479.623 44.368 479.575 43.036 479.527 41.476C479.503 39.892 479.491 38.236 479.491 36.508C479.491 34.756 479.503 33.076 479.527 31.468C479.551 29.836 479.599 28.432 479.671 27.256C479.887 22.864 480.847 19.648 482.551 17.608C484.255 15.568 487.183 14.428 491.335 14.188V21.388C490.519 21.604 489.919 22.012 489.535 22.612C489.175 23.212 488.983 24.004 488.959 24.988C488.911 26.86 488.863 28.756 488.815 30.676C488.791 32.572 488.779 34.48 488.779 36.4C488.779 38.296 488.791 40.204 488.815 42.124C488.863 44.02 488.911 45.904 488.959 47.776C488.983 48.76 489.175 49.552 489.535 50.152C489.919 50.752 490.519 51.172 491.335 51.412V58.612C487.207 58.372 484.279 57.232 482.551 55.192C480.847 53.152 479.887 49.912 479.671 45.472ZM494.791 58.612V51.484C495.631 51.244 496.231 50.824 496.591 50.224C496.975 49.6 497.191 48.784 497.239 47.776C497.287 45.88 497.323 43.984 497.347 42.088C497.395 40.192 497.419 38.284 497.419 36.364C497.419 34.444 497.395 32.536 497.347 30.64C497.323 28.744 497.287 26.86 497.239 24.988C497.191 23.956 496.975 23.152 496.591 22.576C496.231 21.976 495.631 21.556 494.791 21.316V14.188C497.599 14.332 499.831 14.884 501.487 15.844C503.143 16.78 504.355 18.196 505.123 20.092C505.915 21.964 506.383 24.352 506.527 27.256C506.575 28.36 506.611 29.704 506.635 31.288C506.659 32.872 506.671 34.54 506.671 36.292C506.671 38.02 506.659 39.688 506.635 41.296C506.611 42.904 506.575 44.296 506.527 45.472C506.383 48.424 505.915 50.848 505.123 52.744C504.355 54.616 503.143 56.032 501.487 56.992C499.831 57.928 497.599 58.468 494.791 58.612ZM512.089 36.076V27.868H537.541V36.076H512.089ZM2.592 131.472C2.496 124.008 2.448 116.496 2.448 108.936C2.448 101.352 2.496 93.84 2.592 86.4H11.916C11.82 91.368 11.76 96.516 11.736 101.844C11.736 107.148 11.748 112.452 11.772 117.756C11.796 123.06 11.832 128.196 11.88 133.164C11.88 134.148 12.108 134.952 12.564 135.576C13.02 136.2 13.704 136.632 14.616 136.872V144.612C10.368 144.372 7.32 143.232 5.472 141.192C3.624 139.128 2.664 135.888 2.592 131.472ZM18.108 144.612V136.872C18.996 136.632 19.656 136.2 20.088 135.576C20.52 134.952 20.736 134.148 20.736 133.164C20.784 128.196 20.82 123.06 20.844 117.756C20.892 112.452 20.904 107.148 20.88 101.844C20.88 96.516 20.832 91.368 20.736 86.4H30.024C30.144 93.84 30.204 101.352 30.204 108.936C30.204 116.496 30.144 124.008 30.024 131.472C29.952 135.888 28.992 139.128 27.144 141.192C25.32 143.232 22.308 144.372 18.108 144.612ZM36.549 144V117.972H45.621L48.753 109.116L52.605 100.8H62.253L45.405 133.092V144H36.549ZM36.549 115.596V86.4H45.225V97.956L44.325 115.596H36.549ZM49.401 130.752L55.089 120.78L63.729 144H54.225L49.401 130.752ZM93.2023 144L91.6903 127.224L90.8983 107.712H89.0623L88.2703 127.224L87.5143 133.74H80.4223L80.6743 122.508L82.8343 100.872H97.1983L99.2863 122.508L99.9703 137.124H109.294L108.286 144H93.2023ZM71.3503 144L65.6623 100.8H75.0583L77.1463 122.508L77.8303 137.124H87.0823L86.4343 144H71.3503ZM102.562 133.74L102.814 122.508L104.974 100.8H114.37L109.906 133.74H102.562ZM118.763 133.38V100.8H128.051V134.172C128.051 135.444 128.327 136.38 128.879 136.98C129.455 137.556 130.319 137.844 131.471 137.844C132.095 137.844 132.755 137.724 133.451 137.484V142.488C131.987 143.928 130.127 144.648 127.871 144.648C125.087 144.648 122.867 143.784 121.211 142.056C119.579 140.304 118.763 137.412 118.763 133.38ZM136.907 144V100.8H146.231V144H136.907ZM166.255 144L173.779 86.4H189.511L190.519 94.608H180.691L179.683 111.132L178.243 122.58H182.995L180.799 130.788H177.703L175.795 144H166.255ZM187.351 144L183.643 111.06L183.031 97.848H190.735L196.891 144H187.351ZM201.727 144V100.8H211.015V144H201.727ZM214.507 108.396V101.772C215.395 100.956 216.691 100.548 218.395 100.548C218.971 100.548 219.523 100.572 220.051 100.62C220.603 100.668 221.023 100.704 221.311 100.728V107.856H218.539C216.883 107.856 215.539 108.036 214.507 108.396ZM224.08 107.856V100.8H227.896V88.56H237.184V133.884C237.184 135.3 237.472 136.296 238.048 136.872C238.624 137.448 239.848 137.736 241.72 137.736C242.296 137.736 242.836 137.724 243.34 137.7C243.868 137.676 244.456 137.652 245.104 137.628V144.288C244.6 144.432 244.06 144.528 243.484 144.576C242.908 144.624 242.308 144.648 241.684 144.648C236.74 144.648 233.2 143.736 231.064 141.912C228.952 140.088 227.896 137.076 227.896 132.876V107.856H224.08ZM240.496 107.856V100.8H244.384V107.856H240.496Z" fill="#F5EDFF"/>
</svg>
