<svg width="404" height="200" viewBox="0 0 404 200" fill="none" xmlns="http://www.w3.org/2000/svg">
<path d="M0.287 80L10.6325 0.799999H32.264L33.65 12.086H20.1365L18.7505 34.8065L16.7705 50.5475H23.3045L20.285 61.8335H16.028L13.4045 80H0.287ZM29.294 80L24.1955 34.7075L23.354 16.541H33.947L42.4115 80H29.294ZM48.0715 99.8V20.6H60.8425V99.8H48.0715ZM65.644 71.288C65.908 71.387 66.1885 71.453 66.4855 71.486C66.8155 71.519 67.162 71.5355 67.525 71.5355C69.142 71.5355 70.4455 71.1395 71.4355 70.3475C72.4255 69.5225 72.9535 68.2355 73.0195 66.4865C73.1515 64.1435 73.2505 61.586 73.3165 58.814C73.3825 56.042 73.4155 53.204 73.4155 50.3C73.4155 47.396 73.3825 44.558 73.3165 41.786C73.2505 39.014 73.1515 36.4565 73.0195 34.1135C72.9535 32.3645 72.5575 31.094 71.8315 30.302C71.1385 29.477 69.9835 29.0645 68.3665 29.0645C67.4425 29.0645 66.535 29.2295 65.644 29.5595V22.58C66.535 21.656 67.5745 20.9465 68.7625 20.4515C69.9505 19.9565 71.485 19.709 73.366 19.709C77.227 19.709 80.197 20.897 82.276 23.273C84.388 25.649 85.576 29.609 85.84 35.153C85.906 36.902 85.9555 39.0965 85.9885 41.7365C86.0215 44.3765 86.038 47.1815 86.038 50.1515C86.038 53.0885 86.0215 55.91 85.9885 58.616C85.9555 61.322 85.906 63.5825 85.84 65.3975C85.576 70.9415 84.289 74.918 81.979 77.327C79.669 79.703 76.567 80.891 72.673 80.891C69.901 80.891 67.558 79.901 65.644 77.921V71.288ZM93.9944 99.8V20.6H106.765V99.8H93.9944ZM111.567 71.288C111.831 71.387 112.111 71.453 112.408 71.486C112.738 71.519 113.085 71.5355 113.448 71.5355C115.065 71.5355 116.368 71.1395 117.358 70.3475C118.348 69.5225 118.876 68.2355 118.942 66.4865C119.074 64.1435 119.173 61.586 119.239 58.814C119.305 56.042 119.338 53.204 119.338 50.3C119.338 47.396 119.305 44.558 119.239 41.786C119.173 39.014 119.074 36.4565 118.942 34.1135C118.876 32.3645 118.48 31.094 117.754 30.302C117.061 29.477 115.906 29.0645 114.289 29.0645C113.365 29.0645 112.458 29.2295 111.567 29.5595V22.58C112.458 21.656 113.497 20.9465 114.685 20.4515C115.873 19.9565 117.408 19.709 119.289 19.709C123.15 19.709 126.12 20.897 128.199 23.273C130.311 25.649 131.499 29.609 131.763 35.153C131.829 36.902 131.878 39.0965 131.911 41.7365C131.944 44.3765 131.961 47.1815 131.961 50.1515C131.961 53.0885 131.944 55.91 131.911 58.616C131.878 61.322 131.829 63.5825 131.763 65.3975C131.499 70.9415 130.212 74.918 127.902 77.327C125.592 79.703 122.49 80.891 118.596 80.891C115.824 80.891 113.481 79.901 111.567 77.921V71.288ZM139.917 80V0.799999H152.688V80H139.917ZM161.031 11.1455V0.799999H174.743V11.1455H161.031ZM161.526 80V20.6H174.297V80H161.526ZM182.247 64.7045C182.181 63.1865 182.131 61.1735 182.098 58.6655C182.065 56.1245 182.049 53.4185 182.049 50.5475C182.049 47.6765 182.065 44.954 182.098 42.38C182.131 39.773 182.181 37.6775 182.247 36.0935C182.643 30.6155 184.045 26.606 186.454 24.065C188.863 21.524 192.675 20.0885 197.889 19.7585V29.609C196.932 29.873 196.222 30.368 195.76 31.094C195.331 31.787 195.084 32.81 195.018 34.163C194.952 36.803 194.902 39.4595 194.869 42.1325C194.836 44.8055 194.82 47.4785 194.82 50.1515C194.82 52.8245 194.836 55.481 194.869 58.121C194.902 60.761 194.952 63.401 195.018 66.041C195.084 67.427 195.331 68.516 195.76 69.308C196.222 70.067 196.932 70.6115 197.889 70.9415V80.8415C192.609 80.5115 188.748 79.0925 186.306 76.5845C183.897 74.0435 182.544 70.0835 182.247 64.7045ZM202.69 80.8415V70.991C203.581 70.661 204.241 70.1165 204.67 69.3575C205.132 68.5655 205.38 67.46 205.413 66.041C205.479 65.117 205.512 63.929 205.512 62.477C205.512 60.992 205.479 59.375 205.413 57.626H217.837C217.903 58.22 217.953 59.2595 217.986 60.7445C218.019 62.2295 218.002 63.5495 217.936 64.7045C217.705 70.1165 216.385 74.093 213.976 76.634C211.6 79.142 207.838 80.5445 202.69 80.8415ZM205.413 42.8255C205.446 42.0995 205.462 41.159 205.462 40.004C205.495 38.849 205.495 37.727 205.462 36.638C205.462 35.549 205.446 34.724 205.413 34.163C205.38 32.843 205.132 31.8365 204.67 31.1435C204.241 30.4175 203.581 29.9225 202.69 29.6585V19.7585C207.871 20.0555 211.65 21.458 214.026 23.966C216.435 26.441 217.738 30.3185 217.936 35.5985C218.002 36.7205 218.019 38.0405 217.986 39.5585C217.953 41.0765 217.903 42.1655 217.837 42.8255H205.413ZM223.996 67.2785C223.963 66.6185 223.947 65.8595 223.947 65.0015C223.947 64.1435 223.963 63.3845 223.996 62.7245C224.194 60.1175 224.755 57.8735 225.679 55.9925C226.636 54.0785 228.105 52.3955 230.085 50.9435C232.065 49.4915 234.688 48.122 237.955 46.835C238.879 46.439 239.77 46.0925 240.628 45.7955C241.486 45.4655 242.344 45.1685 243.202 44.9045V53.3195C242.872 53.4515 242.542 53.6165 242.212 53.8145C241.882 53.9795 241.552 54.161 241.222 54.359C239.44 55.316 238.236 56.5205 237.609 57.9725C237.015 59.3915 236.668 60.9755 236.569 62.7245C236.536 63.3515 236.52 63.962 236.52 64.556C236.553 65.117 236.586 65.6945 236.619 66.2885C236.784 68.0045 237.295 69.308 238.153 70.199C239.011 71.09 240.216 71.5355 241.767 71.5355C242.196 71.5355 242.674 71.4695 243.202 71.3375V78.317C241.618 79.934 239.391 80.7425 236.52 80.7425C232.428 80.7425 229.408 79.7195 227.461 77.6735C225.547 75.5945 224.392 72.1295 223.996 67.2785ZM225.729 42.8255C225.696 42.2315 225.663 41.159 225.63 39.608C225.597 38.057 225.597 36.7205 225.63 35.5985C225.828 30.4175 227.049 26.5565 229.293 24.0155C231.57 21.4745 235.447 20.0555 240.925 19.7585V29.51C240.001 29.774 239.325 30.2855 238.896 31.0445C238.467 31.7705 238.219 32.81 238.153 34.163C238.12 34.724 238.087 35.5655 238.054 36.6875C238.054 37.7765 238.054 38.8985 238.054 40.0535C238.087 41.2085 238.12 42.1325 238.153 42.8255H225.729ZM248.004 80V34.6085C248.004 33.3545 247.839 32.3315 247.509 31.5395C247.179 30.7475 246.568 30.17 245.677 29.807V19.7585C251.386 20.0885 255.313 21.656 257.458 24.461C259.636 27.266 260.709 31.6385 260.676 37.5785L260.626 80H248.004ZM265.859 30.302V20.6H271.106V3.77H283.877V66.0905C283.877 68.0375 284.273 69.407 285.065 70.199C285.857 70.991 287.54 71.387 290.114 71.387C290.906 71.387 291.649 71.3705 292.342 71.3375C293.068 71.3045 293.876 71.2715 294.767 71.2385V80.396C294.074 80.594 293.332 80.726 292.54 80.792C291.748 80.858 290.923 80.891 290.065 80.891C283.267 80.891 278.399 79.637 275.462 77.129C272.558 74.621 271.106 70.4795 271.106 64.7045V30.302H265.859ZM288.431 30.302V20.6H293.777V30.302H288.431ZM299.67 11.1455V0.799999H313.381V11.1455H299.67ZM300.165 80V20.6H312.936V80H300.165ZM320.935 62.774C320.869 61.256 320.803 59.4245 320.737 57.2795C320.704 55.1015 320.687 52.8245 320.687 50.4485C320.687 48.0395 320.704 45.7295 320.737 43.5185C320.77 41.2745 320.836 39.344 320.935 37.727C321.232 31.688 322.552 27.266 324.895 24.461C327.238 21.656 331.264 20.0885 336.973 19.7585V29.6585C335.851 29.9555 335.026 30.5165 334.498 31.3415C334.003 32.1665 333.739 33.2555 333.706 34.6085C333.64 37.1825 333.574 39.7895 333.508 42.4295C333.475 45.0365 333.458 47.66 333.458 50.3C333.458 52.907 333.475 55.5305 333.508 58.1705C333.574 60.7775 333.64 63.368 333.706 65.942C333.739 67.295 334.003 68.384 334.498 69.209C335.026 70.034 335.851 70.6115 336.973 70.9415V80.8415C331.297 80.5115 327.271 78.944 324.895 76.139C322.552 73.334 321.232 68.879 320.935 62.774ZM341.725 80.8415V71.0405C342.88 70.7105 343.705 70.133 344.2 69.308C344.728 68.45 345.025 67.328 345.091 65.942C345.157 63.335 345.206 60.728 345.239 58.121C345.305 55.514 345.338 52.8905 345.338 50.2505C345.338 47.6105 345.305 44.987 345.239 42.38C345.206 39.773 345.157 37.1825 345.091 34.6085C345.025 33.1895 344.728 32.084 344.2 31.292C343.705 30.467 342.88 29.8895 341.725 29.5595V19.7585C345.586 19.9565 348.655 20.7155 350.932 22.0355C353.209 23.3225 354.875 25.2695 355.931 27.8765C357.02 30.4505 357.664 33.734 357.862 37.727C357.928 39.245 357.977 41.093 358.01 43.271C358.043 45.449 358.06 47.7425 358.06 50.1515C358.06 52.5275 358.043 54.821 358.01 57.032C357.977 59.243 357.928 61.157 357.862 62.774C357.664 66.833 357.02 70.166 355.931 72.773C354.875 75.347 353.209 77.294 350.932 78.614C348.655 79.901 345.586 80.6435 341.725 80.8415ZM365.954 80V20.6H378.725V80H365.954ZM391.1 80V34.1135C391.1 32.3645 390.688 31.094 389.863 30.302C389.071 29.477 387.866 29.0645 386.249 29.0645C385.787 29.0645 385.325 29.114 384.863 29.213C384.434 29.279 383.989 29.3945 383.527 29.5595V23.1245C384.484 22.0025 385.573 21.161 386.794 20.6C388.048 20.006 389.665 19.709 391.645 19.709C395.506 19.709 398.509 20.897 400.654 23.273C402.799 25.649 403.871 29.609 403.871 35.153V80H391.1ZM3.257 199V119.8H16.0775V199H3.257ZM20.681 164.449V153.163H33.551V164.449H20.681ZM20.681 131.086V119.8H34.541V131.086H20.681ZM38.2434 181.774C38.1774 180.256 38.1114 178.424 38.0454 176.279C38.0124 174.101 37.9959 171.824 37.9959 169.448C37.9959 167.039 38.0124 164.729 38.0454 162.518C38.0784 160.274 38.1444 158.344 38.2434 156.727C38.5404 150.688 39.8604 146.266 42.2034 143.461C44.5464 140.656 48.5724 139.088 54.2814 138.758V148.658C53.1594 148.955 52.3344 149.516 51.8064 150.341C51.3114 151.166 51.0474 152.255 51.0144 153.608C50.9484 156.182 50.8824 158.789 50.8164 161.429C50.7834 164.036 50.7669 166.66 50.7669 169.3C50.7669 171.907 50.7834 174.53 50.8164 177.17C50.8824 179.777 50.9484 182.368 51.0144 184.942C51.0474 186.295 51.3114 187.384 51.8064 188.209C52.3344 189.034 53.1594 189.611 54.2814 189.941V199.842C48.6054 199.512 44.5794 197.944 42.2034 195.139C39.8604 192.334 38.5404 187.879 38.2434 181.774ZM59.0334 199.842V190.04C60.1884 189.71 61.0134 189.133 61.5084 188.308C62.0364 187.45 62.3334 186.328 62.3994 184.942C62.4654 182.335 62.5149 179.728 62.5479 177.121C62.6139 174.514 62.6469 171.89 62.6469 169.25C62.6469 166.61 62.6139 163.987 62.5479 161.38C62.5149 158.773 62.4654 156.182 62.3994 153.608C62.3334 152.189 62.0364 151.084 61.5084 150.292C61.0134 149.467 60.1884 148.889 59.0334 148.559V138.758C62.8944 138.956 65.9634 139.715 68.2404 141.035C70.5174 142.322 72.1839 144.269 73.2399 146.876C74.3289 149.45 74.9724 152.734 75.1704 156.727C75.2364 158.245 75.2859 160.093 75.3189 162.271C75.3519 164.449 75.3684 166.742 75.3684 169.151C75.3684 171.527 75.3519 173.821 75.3189 176.032C75.2859 178.243 75.2364 180.157 75.1704 181.774C74.9724 185.833 74.3289 189.166 73.2399 191.773C72.1839 194.347 70.5174 196.294 68.2404 197.614C65.9634 198.901 62.8944 199.644 59.0334 199.842ZM83.2629 199V139.6H96.0339V199H83.2629ZM100.835 150.044V140.936C102.056 139.814 103.838 139.253 106.181 139.253C106.973 139.253 107.732 139.286 108.458 139.352C109.217 139.418 109.795 139.468 110.191 139.501V149.302H106.379C104.102 149.302 102.254 149.549 100.835 150.044ZM116.424 199V139.6H129.195V199H116.424ZM166.221 199L166.023 153.113C165.99 151.364 165.594 150.094 164.835 149.302C164.109 148.477 162.954 148.064 161.37 148.064C160.512 148.064 159.704 148.229 158.945 148.559V141.679C159.935 140.755 161.057 140.029 162.311 139.501C163.565 138.973 165.05 138.709 166.766 138.709C170.627 138.709 173.58 139.897 175.626 142.273C177.672 144.649 178.728 148.609 178.794 154.153L178.992 199H166.221ZM141.57 199L141.372 153.113C141.372 151.364 140.993 150.094 140.234 149.302C139.508 148.477 138.336 148.064 136.719 148.064C136.257 148.064 135.795 148.097 135.333 148.163C134.904 148.229 134.459 148.345 133.997 148.51V142.075C134.954 140.986 136.043 140.161 137.264 139.6C138.518 139.006 140.135 138.709 142.115 138.709C145.976 138.709 148.929 139.897 150.975 142.273C153.021 144.649 154.094 148.609 154.193 154.153L154.341 199H141.57Z" fill="#F5EDFF"/>
</svg>
