<svg width="308" height="59" viewBox="0 0 308 59" fill="none" xmlns="http://www.w3.org/2000/svg">
<path d="M0.936 58L8.46 0.399999H24.192L25.2 8.608H15.372L14.364 25.132L12.924 36.58H17.676L15.48 44.788H12.384L10.476 58H0.936ZM22.032 58L18.324 25.06L17.712 11.848H25.416L31.572 58H22.032ZM36.4084 58V14.8H45.6964V58H36.4084ZM49.1884 22.396V15.772C50.0764 14.956 51.3724 14.548 53.0764 14.548C53.6524 14.548 54.2044 14.572 54.7324 14.62C55.2844 14.668 55.7044 14.704 55.9924 14.728V21.856H53.2204C51.5644 21.856 50.2204 22.036 49.1884 22.396ZM58.7616 21.856V14.8H62.5776V2.56H71.8656V47.884C71.8656 49.3 72.1536 50.296 72.7296 50.872C73.3056 51.448 74.5296 51.736 76.4016 51.736C76.9776 51.736 77.5176 51.724 78.0216 51.7C78.5496 51.676 79.1376 51.652 79.7856 51.628V58.288C79.2816 58.432 78.7416 58.528 78.1656 58.576C77.5896 58.624 76.9896 58.648 76.3656 58.648C71.4216 58.648 67.8816 57.736 65.7456 55.912C63.6336 54.088 62.5776 51.076 62.5776 46.876V21.856H58.7616ZM75.1776 21.856V14.8H79.0656V21.856H75.1776ZM116.31 58L110.946 37.912H110.406V29.704H110.838C112.374 29.704 113.514 29.356 114.258 28.66C115.026 27.94 115.446 26.896 115.518 25.528C115.59 24.184 115.638 22.792 115.662 21.352C115.686 19.888 115.686 18.436 115.662 16.996C115.638 15.532 115.59 14.128 115.518 12.784C115.446 11.416 115.026 10.384 114.258 9.688C113.514 8.968 112.374 8.608 110.838 8.608H110.514V0.399999H110.838C115.686 0.399999 119.19 1.396 121.35 3.388C123.51 5.38 124.662 8.668 124.806 13.252C124.878 14.788 124.914 16.18 124.914 17.428C124.938 18.652 124.938 19.876 124.914 21.1C124.914 22.3 124.878 23.62 124.806 25.06C124.614 30.676 122.838 34.384 119.478 36.184L125.994 58H116.31ZM97.7338 58V0.399999H107.058V58H97.7338ZM130.402 46.876C130.354 45.772 130.318 44.308 130.294 42.484C130.27 40.636 130.258 38.668 130.258 36.58C130.258 34.492 130.27 32.512 130.294 30.64C130.318 28.744 130.354 27.22 130.402 26.068C130.69 22.084 131.71 19.168 133.462 17.32C135.238 15.472 138.01 14.428 141.778 14.188V21.352C141.082 21.544 140.566 21.916 140.23 22.468C139.918 22.996 139.738 23.728 139.69 24.664C139.642 26.584 139.606 28.516 139.582 30.46C139.558 32.404 139.546 34.348 139.546 36.292C139.546 38.236 139.558 40.168 139.582 42.088C139.606 44.008 139.642 45.928 139.69 47.848C139.738 48.856 139.918 49.648 140.23 50.224C140.566 50.8 141.082 51.196 141.778 51.412V58.612C137.938 58.372 135.13 57.34 133.354 55.516C131.602 53.668 130.618 50.788 130.402 46.876ZM145.27 58.612V51.448C145.918 51.208 146.398 50.8 146.71 50.224C147.022 49.648 147.202 48.856 147.25 47.848C147.298 47.176 147.322 46.312 147.322 45.256C147.322 44.176 147.298 43 147.25 41.728H156.286C156.334 42.16 156.37 42.916 156.394 43.996C156.418 45.076 156.406 46.036 156.358 46.876C156.19 50.812 155.242 53.704 153.514 55.552C151.786 57.376 149.038 58.396 145.27 58.612ZM142.93 37.984V31.54H147.322C147.322 30.484 147.322 29.488 147.322 28.552C147.322 27.592 147.31 26.776 147.286 26.104C147.286 25.408 147.274 24.928 147.25 24.664C147.226 23.752 147.046 23.032 146.71 22.504C146.398 21.976 145.918 21.604 145.27 21.388V14.224C149.038 14.44 151.774 15.448 153.478 17.248C155.206 19.048 156.166 21.868 156.358 25.708C156.382 26.284 156.394 27.256 156.394 28.624C156.418 29.968 156.418 31.48 156.394 33.16C156.394 34.84 156.358 36.448 156.286 37.984H142.93ZM161.699 46.876C161.675 46.036 161.663 45.076 161.663 43.996C161.687 42.916 161.723 42.16 161.771 41.728H169.907C169.859 43 169.835 44.176 169.835 45.256C169.835 46.312 169.847 47.176 169.871 47.848C169.919 48.88 170.123 49.672 170.483 50.224C170.843 50.776 171.371 51.172 172.067 51.412V58.612C168.467 58.372 165.875 57.34 164.291 55.516C162.707 53.668 161.843 50.788 161.699 46.876ZM175.559 58.612V51.52C176.447 51.328 177.095 50.944 177.503 50.368C177.911 49.768 178.127 48.928 178.151 47.848C178.151 47.2 178.151 46.78 178.151 46.588C178.151 46.372 178.151 46.168 178.151 45.976C178.151 45.784 178.151 45.4 178.151 44.824C178.151 43.816 177.971 43.012 177.611 42.412C177.251 41.788 176.603 41.332 175.667 41.044L170.987 39.712C168.947 39.088 167.219 38.332 165.803 37.444C164.387 36.532 163.307 35.368 162.563 33.952C161.843 32.536 161.471 30.772 161.447 28.66C161.447 28.204 161.447 27.772 161.447 27.364C161.447 26.956 161.447 26.536 161.447 26.104C161.471 22.12 162.311 19.192 163.967 17.32C165.623 15.448 168.479 14.404 172.535 14.188V21.316C171.815 21.508 171.299 21.868 170.987 22.396C170.699 22.924 170.543 23.68 170.519 24.664C170.495 25.264 170.471 25.732 170.447 26.068C170.447 26.404 170.447 27.004 170.447 27.868C170.447 28.972 170.615 29.908 170.951 30.676C171.287 31.42 172.043 31.948 173.219 32.26L177.359 33.304C180.455 34.072 182.783 35.296 184.343 36.976C185.927 38.632 186.719 41.08 186.719 44.32C186.719 44.752 186.719 45.22 186.719 45.724C186.719 46.204 186.719 46.66 186.719 47.092C186.695 50.956 185.819 53.788 184.091 55.588C182.387 57.388 179.543 58.396 175.559 58.612ZM177.827 30.964C177.851 30.436 177.863 29.752 177.863 28.912C177.887 28.072 177.887 27.256 177.863 26.464C177.863 25.672 177.851 25.072 177.827 24.664C177.779 23.728 177.611 23.008 177.323 22.504C177.059 21.976 176.615 21.604 175.991 21.388V14.188C179.639 14.428 182.231 15.46 183.767 17.284C185.303 19.084 186.155 21.892 186.323 25.708C186.347 26.26 186.359 26.884 186.359 27.58C186.359 28.276 186.347 28.936 186.323 29.56C186.323 30.184 186.299 30.652 186.251 30.964H177.827ZM192.17 46.876C192.122 45.772 192.086 44.308 192.062 42.484C192.038 40.636 192.026 38.668 192.026 36.58C192.026 34.492 192.038 32.512 192.062 30.64C192.086 28.744 192.122 27.22 192.17 26.068C192.458 22.084 193.478 19.168 195.23 17.32C197.006 15.472 199.778 14.428 203.546 14.188V21.352C202.85 21.544 202.334 21.916 201.998 22.468C201.686 22.996 201.506 23.728 201.458 24.664C201.41 26.584 201.374 28.516 201.35 30.46C201.326 32.404 201.314 34.348 201.314 36.292C201.314 38.236 201.326 40.168 201.35 42.088C201.374 44.008 201.41 45.928 201.458 47.848C201.506 48.856 201.686 49.648 201.998 50.224C202.334 50.8 202.85 51.196 203.546 51.412V58.612C199.706 58.372 196.898 57.34 195.122 55.516C193.37 53.668 192.386 50.788 192.17 46.876ZM207.038 58.612V51.448C207.686 51.208 208.166 50.8 208.478 50.224C208.79 49.648 208.97 48.856 209.018 47.848C209.066 47.176 209.09 46.312 209.09 45.256C209.09 44.176 209.066 43 209.018 41.728H218.054C218.102 42.16 218.138 42.916 218.162 43.996C218.186 45.076 218.174 46.036 218.126 46.876C217.958 50.812 217.01 53.704 215.282 55.552C213.554 57.376 210.806 58.396 207.038 58.612ZM204.698 37.984V31.54H209.09C209.09 30.484 209.09 29.488 209.09 28.552C209.09 27.592 209.078 26.776 209.054 26.104C209.054 25.408 209.042 24.928 209.018 24.664C208.994 23.752 208.814 23.032 208.478 22.504C208.166 21.976 207.686 21.604 207.038 21.388V14.224C210.806 14.44 213.542 15.448 215.246 17.248C216.974 19.048 217.934 21.868 218.126 25.708C218.15 26.284 218.162 27.256 218.162 28.624C218.186 29.968 218.186 31.48 218.162 33.16C218.162 34.84 218.126 36.448 218.054 37.984H204.698ZM224.331 58V14.8H233.619V58H224.331ZM237.111 22.396V15.772C237.999 14.956 239.295 14.548 240.999 14.548C241.575 14.548 242.127 14.572 242.655 14.62C243.207 14.668 243.627 14.704 243.915 14.728V21.856H241.143C239.487 21.856 238.143 22.036 237.111 22.396ZM247.539 46.876C247.491 45.772 247.455 44.308 247.431 42.484C247.407 40.636 247.395 38.668 247.395 36.58C247.395 34.492 247.407 32.512 247.431 30.64C247.455 28.744 247.491 27.22 247.539 26.068C247.827 22.084 248.847 19.168 250.599 17.32C252.351 15.472 255.123 14.428 258.915 14.188V21.352C258.219 21.544 257.703 21.904 257.367 22.432C257.055 22.936 256.875 23.68 256.827 24.664C256.779 26.584 256.743 28.516 256.719 30.46C256.695 32.404 256.683 34.348 256.683 36.292C256.683 38.236 256.695 40.168 256.719 42.088C256.743 44.008 256.779 45.928 256.827 47.848C256.875 48.856 257.055 49.648 257.367 50.224C257.703 50.776 258.219 51.172 258.915 51.412V58.612C255.075 58.372 252.267 57.34 250.491 55.516C248.739 53.668 247.755 50.788 247.539 46.876ZM262.407 58.612V51.448C263.055 51.208 263.535 50.812 263.847 50.26C264.183 49.684 264.363 48.88 264.387 47.848C264.435 47.176 264.459 46.312 264.459 45.256C264.459 44.176 264.435 43 264.387 41.728H273.423C273.471 42.16 273.507 42.916 273.531 43.996C273.555 45.076 273.543 46.036 273.495 46.876C273.327 50.812 272.367 53.704 270.615 55.552C268.887 57.376 266.151 58.396 262.407 58.612ZM264.387 30.964C264.411 30.436 264.423 29.752 264.423 28.912C264.447 28.072 264.447 27.256 264.423 26.464C264.423 25.672 264.411 25.072 264.387 24.664C264.363 23.704 264.183 22.972 263.847 22.468C263.535 21.94 263.055 21.58 262.407 21.388V14.188C266.175 14.404 268.923 15.424 270.651 17.248C272.403 19.048 273.351 21.868 273.495 25.708C273.543 26.524 273.555 27.484 273.531 28.588C273.507 29.692 273.471 30.484 273.423 30.964H264.387ZM279.631 58V0.399999H288.919V58H279.631ZM297.919 58V24.628C297.919 23.356 297.619 22.432 297.019 21.856C296.443 21.256 295.567 20.956 294.391 20.956C293.695 20.956 293.011 21.076 292.339 21.316V16.672C293.059 15.856 293.863 15.232 294.751 14.8C295.663 14.368 296.851 14.152 298.315 14.152C301.123 14.152 303.307 15.016 304.867 16.744C306.427 18.472 307.207 21.352 307.207 25.384V58H297.919Z" fill="#F5EDFF"/>
</svg>
