<svg width="412" height="72" viewBox="0 0 412 72" fill="none" xmlns="http://www.w3.org/2000/svg">
<path d="M0.936 58L8.46 0.399999H24.192L25.2 8.608H15.372L14.364 25.132L12.924 36.58H17.676L15.48 44.788H12.384L10.476 58H0.936ZM22.032 58L18.324 25.06L17.712 11.848H25.416L31.572 58H22.032ZM36.4084 58V14.8H45.6964V58H36.4084ZM49.1884 22.396V15.772C50.0764 14.956 51.3724 14.548 53.0764 14.548C53.6524 14.548 54.2044 14.572 54.7324 14.62C55.2844 14.668 55.7044 14.704 55.9924 14.728V21.856H53.2204C51.5644 21.856 50.2204 22.036 49.1884 22.396ZM58.7616 21.856V14.8H62.5776V2.56H71.8656V47.884C71.8656 49.3 72.1536 50.296 72.7296 50.872C73.3056 51.448 74.5296 51.736 76.4016 51.736C76.9776 51.736 77.5176 51.724 78.0216 51.7C78.5496 51.676 79.1376 51.652 79.7856 51.628V58.288C79.2816 58.432 78.7416 58.528 78.1656 58.576C77.5896 58.624 76.9896 58.648 76.3656 58.648C71.4216 58.648 67.8816 57.736 65.7456 55.912C63.6336 54.088 62.5776 51.076 62.5776 46.876V21.856H58.7616ZM75.1776 21.856V14.8H79.0656V21.856H75.1776ZM97.7338 58V0.399999H107.058V58H97.7338ZM110.406 32.872V24.664H119.766V32.872H110.406ZM110.406 8.608V0.399999H120.486V8.608H110.406ZM124.422 47.38V14.8H133.71V48.172C133.71 49.444 133.986 50.38 134.538 50.98C135.114 51.556 135.978 51.844 137.13 51.844C137.754 51.844 138.414 51.724 139.11 51.484V56.488C137.646 57.928 135.786 58.648 133.53 58.648C130.746 58.648 128.526 57.784 126.87 56.056C125.238 54.304 124.422 51.412 124.422 47.38ZM142.566 58V14.8H151.89V58H142.566ZM158.977 58V14.8H168.265V58H158.977ZM177.265 58V24.628C177.265 23.356 176.965 22.432 176.365 21.856C175.789 21.256 174.913 20.956 173.737 20.956C173.401 20.956 173.065 20.992 172.729 21.064C172.417 21.112 172.093 21.196 171.757 21.316V16.636C172.453 15.82 173.245 15.208 174.133 14.8C175.045 14.368 176.221 14.152 177.661 14.152C180.469 14.152 182.653 15.016 184.213 16.744C185.773 18.472 186.553 21.352 186.553 25.384V58H177.265ZM193.013 47.38C192.965 46.036 192.929 44.404 192.905 42.484C192.881 40.564 192.869 38.56 192.869 36.472C192.869 34.384 192.881 32.368 192.905 30.424C192.929 28.48 192.965 26.8 193.013 25.384C193.205 21.352 194.069 18.472 195.605 16.744C197.141 15.016 199.301 14.152 202.085 14.152C203.429 14.152 204.533 14.332 205.397 14.692C206.285 15.052 207.053 15.568 207.701 16.24V21.28C207.029 21.064 206.369 20.956 205.721 20.956C204.569 20.956 203.729 21.256 203.201 21.856C202.673 22.432 202.373 23.356 202.301 24.628C202.205 27.004 202.133 29.62 202.085 32.476C202.061 35.308 202.061 38.104 202.085 40.864C202.133 43.624 202.205 46.06 202.301 48.172C202.373 49.444 202.673 50.38 203.201 50.98C203.729 51.556 204.569 51.844 205.721 51.844C206.369 51.844 207.029 51.736 207.701 51.52V56.524C207.005 57.196 206.213 57.712 205.325 58.072C204.437 58.456 203.321 58.648 201.977 58.648C199.169 58.648 197.021 57.784 195.533 56.056C194.045 54.304 193.205 51.412 193.013 47.38ZM211.193 58V0.399999H220.481V58H211.193ZM227.636 58V14.8H236.924V58H227.636ZM240.416 22.396V15.772C241.304 14.956 242.6 14.548 244.304 14.548C244.88 14.548 245.432 14.572 245.96 14.62C246.512 14.668 246.932 14.704 247.22 14.728V21.856H244.448C242.792 21.856 241.448 22.036 240.416 22.396ZM249.988 48.748C249.964 48.268 249.952 47.716 249.952 47.092C249.952 46.468 249.964 45.916 249.988 45.436C250.132 43.54 250.54 41.908 251.212 40.54C251.908 39.148 252.976 37.924 254.416 36.868C255.856 35.812 257.764 34.816 260.14 33.88C260.812 33.592 261.46 33.34 262.084 33.124C262.708 32.884 263.332 32.668 263.956 32.476V38.596C263.716 38.692 263.476 38.812 263.236 38.956C262.996 39.076 262.756 39.208 262.516 39.352C261.22 40.048 260.344 40.924 259.888 41.98C259.456 43.012 259.204 44.164 259.132 45.436C259.108 45.892 259.096 46.336 259.096 46.768C259.12 47.176 259.144 47.596 259.168 48.028C259.288 49.276 259.66 50.224 260.284 50.872C260.908 51.52 261.784 51.844 262.912 51.844C263.224 51.844 263.572 51.796 263.956 51.7V56.776C262.804 57.952 261.184 58.54 259.096 58.54C256.12 58.54 253.924 57.796 252.508 56.308C251.116 54.796 250.276 52.276 249.988 48.748ZM251.248 30.964C251.224 30.532 251.2 29.752 251.176 28.624C251.152 27.496 251.152 26.524 251.176 25.708C251.32 21.94 252.208 19.132 253.84 17.284C255.496 15.436 258.316 14.404 262.3 14.188V21.28C261.628 21.472 261.136 21.844 260.824 22.396C260.512 22.924 260.332 23.68 260.284 24.664C260.26 25.072 260.236 25.684 260.212 26.5C260.212 27.292 260.212 28.108 260.212 28.948C260.236 29.788 260.26 30.46 260.284 30.964H251.248ZM267.448 58V24.988C267.448 24.076 267.328 23.332 267.088 22.756C266.848 22.18 266.404 21.76 265.756 21.496V14.188C269.908 14.428 272.764 15.568 274.324 17.608C275.908 19.648 276.688 22.828 276.664 27.148L276.628 58H267.448ZM283.314 7.924V0.399999H293.286V7.924H283.314ZM283.674 58V14.8H292.962V58H283.674ZM299.104 46.876C299.08 46.036 299.068 45.076 299.068 43.996C299.092 42.916 299.128 42.16 299.176 41.728H307.312C307.264 43 307.24 44.176 307.24 45.256C307.24 46.312 307.252 47.176 307.276 47.848C307.324 48.88 307.528 49.672 307.888 50.224C308.248 50.776 308.776 51.172 309.472 51.412V58.612C305.872 58.372 303.28 57.34 301.696 55.516C300.112 53.668 299.248 50.788 299.104 46.876ZM312.964 58.612V51.52C313.852 51.328 314.5 50.944 314.908 50.368C315.316 49.768 315.532 48.928 315.556 47.848C315.556 47.2 315.556 46.78 315.556 46.588C315.556 46.372 315.556 46.168 315.556 45.976C315.556 45.784 315.556 45.4 315.556 44.824C315.556 43.816 315.376 43.012 315.016 42.412C314.656 41.788 314.008 41.332 313.072 41.044L308.392 39.712C306.352 39.088 304.624 38.332 303.208 37.444C301.792 36.532 300.712 35.368 299.968 33.952C299.248 32.536 298.876 30.772 298.852 28.66C298.852 28.204 298.852 27.772 298.852 27.364C298.852 26.956 298.852 26.536 298.852 26.104C298.876 22.12 299.716 19.192 301.372 17.32C303.028 15.448 305.884 14.404 309.94 14.188V21.316C309.22 21.508 308.704 21.868 308.392 22.396C308.104 22.924 307.948 23.68 307.924 24.664C307.9 25.264 307.876 25.732 307.852 26.068C307.852 26.404 307.852 27.004 307.852 27.868C307.852 28.972 308.02 29.908 308.356 30.676C308.692 31.42 309.448 31.948 310.624 32.26L314.764 33.304C317.86 34.072 320.188 35.296 321.748 36.976C323.332 38.632 324.124 41.08 324.124 44.32C324.124 44.752 324.124 45.22 324.124 45.724C324.124 46.204 324.124 46.66 324.124 47.092C324.1 50.956 323.224 53.788 321.496 55.588C319.792 57.388 316.948 58.396 312.964 58.612ZM315.232 30.964C315.256 30.436 315.268 29.752 315.268 28.912C315.292 28.072 315.292 27.256 315.268 26.464C315.268 25.672 315.256 25.072 315.232 24.664C315.184 23.728 315.016 23.008 314.728 22.504C314.464 21.976 314.02 21.604 313.396 21.388V14.188C317.044 14.428 319.636 15.46 321.172 17.284C322.708 19.084 323.56 21.892 323.728 25.708C323.752 26.26 323.764 26.884 323.764 27.58C323.764 28.276 323.752 28.936 323.728 29.56C323.728 30.184 323.704 30.652 323.656 30.964H315.232ZM329.754 7.924V0.399999H339.726V7.924H329.754ZM330.114 58V14.8H339.402V58H330.114ZM346.408 58V14.8H355.696V58H346.408ZM364.696 58V24.628C364.696 23.356 364.396 22.432 363.796 21.856C363.22 21.256 362.344 20.956 361.168 20.956C360.832 20.956 360.496 20.992 360.16 21.064C359.848 21.112 359.524 21.196 359.188 21.316V16.636C359.884 15.82 360.676 15.208 361.564 14.8C362.476 14.368 363.652 14.152 365.092 14.152C367.9 14.152 370.084 15.016 371.644 16.744C373.204 18.472 373.984 21.352 373.984 25.384V58H364.696ZM391.496 71.752C388.088 71.56 385.52 70.924 383.792 69.844C382.064 68.788 381.032 67.432 380.696 65.776C380.624 65.368 380.564 64.96 380.516 64.552C380.492 64.144 380.516 63.724 380.588 63.292C380.732 62.14 381.164 61.144 381.884 60.304C382.604 59.488 383.78 58.948 385.412 58.684V57.316C382.484 56.86 380.876 55.504 380.588 53.248C380.516 52.744 380.48 52.384 380.48 52.168C380.48 51.952 380.516 51.616 380.588 51.16C380.708 50.176 381.188 49.288 382.028 48.496C382.892 47.68 384.044 47.2 385.484 47.056V45.724C383.66 44.86 382.292 43.564 381.38 41.836C380.492 40.108 379.964 37.864 379.796 35.104C379.748 34.192 379.712 33.364 379.688 32.62C379.664 31.852 379.652 31.12 379.652 30.424C379.652 29.728 379.664 29.032 379.688 28.336C379.712 27.64 379.748 26.884 379.796 26.068C380.084 22.06 381.14 19.132 382.964 17.284C384.788 15.436 387.632 14.404 391.496 14.188V21.316C390.632 21.556 389.972 21.976 389.516 22.576C389.06 23.176 388.808 23.98 388.76 24.988C388.712 26.284 388.676 27.58 388.652 28.876C388.652 30.172 388.652 31.444 388.652 32.692C388.676 33.916 388.712 35.08 388.76 36.184C388.808 37.192 389.06 37.996 389.516 38.596C389.972 39.196 390.632 39.616 391.496 39.856V47.128C390.152 47.224 389.216 47.452 388.688 47.812C388.184 48.148 387.932 48.616 387.932 49.216C387.932 49.264 387.932 49.312 387.932 49.36C387.932 49.408 387.932 49.456 387.932 49.504C387.932 50.104 388.184 50.56 388.688 50.872C389.192 51.16 390.128 51.376 391.496 51.52V58C390.416 58.168 389.54 58.456 388.868 58.864C388.196 59.272 387.788 59.848 387.644 60.592C387.524 60.952 387.464 61.3 387.464 61.636C387.464 61.972 387.524 62.32 387.644 62.68C387.788 63.424 388.196 63.988 388.868 64.372C389.564 64.78 390.44 65.068 391.496 65.236V71.752ZM394.988 71.788V65.452C396.74 65.38 398.084 65.104 399.02 64.624C399.956 64.168 400.568 63.46 400.856 62.5C401 62.14 401.06 61.78 401.036 61.42C401.036 61.06 400.952 60.7 400.784 60.34C400.52 59.428 399.92 58.78 398.984 58.396C398.072 58.036 396.74 57.832 394.988 57.784V51.664C399.26 51.808 402.464 52.576 404.6 53.968C406.736 55.36 408.044 57.424 408.524 60.16C408.572 60.52 408.608 60.964 408.632 61.492C408.656 62.044 408.62 62.62 408.524 63.22C408.068 66.292 406.592 68.452 404.096 69.7C401.624 70.972 398.588 71.668 394.988 71.788ZM394.988 47.02V39.856C395.828 39.616 396.464 39.196 396.896 38.596C397.352 37.996 397.604 37.192 397.652 36.184C397.7 35.08 397.724 33.916 397.724 32.692C397.748 31.444 397.748 30.172 397.724 28.876C397.724 27.58 397.7 26.284 397.652 24.988C397.604 23.98 397.352 23.188 396.896 22.612C396.464 22.012 395.828 21.592 394.988 21.352V14.188C399.812 14.476 403.076 16.048 404.78 18.904H406.04C406.208 17.512 406.712 16.492 407.552 15.844C408.416 15.172 409.664 14.824 411.296 14.8V21.856H410.288C409.04 21.856 408.128 22.18 407.552 22.828C407 23.452 406.724 24.484 406.724 25.924V27.94C406.724 28.804 406.724 29.608 406.724 30.352C406.748 31.096 406.748 31.852 406.724 32.62C406.724 33.388 406.7 34.216 406.652 35.104C406.412 39.064 405.38 41.992 403.556 43.888C401.732 45.76 398.876 46.804 394.988 47.02Z" fill="#F5EDFF"/>
</svg>
