<svg width="544" height="337" viewBox="0 0 544 337" fill="none" xmlns="http://www.w3.org/2000/svg">
<path d="M0.257 80V0.799999H13.0775V80H0.257ZM17.8295 80V68.714H18.6215C20.7335 68.714 22.334 68.1695 23.423 67.0805C24.512 65.9585 25.073 64.325 25.106 62.18C25.106 60.794 25.106 59.474 25.106 58.22C25.106 56.933 25.106 55.613 25.106 54.26C25.073 51.059 24.545 48.7985 23.522 47.4785C22.499 46.1255 20.8325 45.449 18.5225 45.449H17.8295V34.163H18.572C20.717 34.163 22.334 33.47 23.423 32.084C24.512 30.698 25.0565 28.685 25.0565 26.045C25.0895 24.626 25.106 23.2565 25.106 21.9365C25.106 20.5835 25.0895 19.214 25.0565 17.828C25.0565 15.947 24.512 14.528 23.423 13.571C22.334 12.581 20.7335 12.086 18.6215 12.086H17.8295V0.799999H18.6215C25.2875 0.799999 30.155 2.1695 33.224 4.9085C36.293 7.6475 37.8275 12.1685 37.8275 18.4715C37.8605 19.9895 37.877 21.392 37.877 22.679C37.877 23.933 37.844 25.1705 37.778 26.3915C37.58 29.7575 36.8375 32.447 35.5505 34.46C34.2635 36.44 32.2835 37.8755 29.6105 38.7665V41.0435C32.3825 41.9345 34.412 43.3865 35.699 45.3995C37.019 47.4125 37.745 50.168 37.877 53.666C37.943 55.217 37.976 56.6525 37.976 57.9725C37.976 59.2925 37.943 60.7445 37.877 62.3285C37.613 68.5985 35.996 73.1195 33.026 75.8915C30.089 78.6305 25.2875 80 18.6215 80H17.8295ZM45.6516 80V0.799999H58.4226V80H45.6516ZM66.5677 62.774C66.5017 61.256 66.4357 59.4245 66.3697 57.2795C66.3367 55.1015 66.3202 52.8245 66.3202 50.4485C66.3202 48.0395 66.3367 45.7295 66.3697 43.5185C66.4027 41.2745 66.4687 39.344 66.5677 37.727C66.8647 31.688 68.1847 27.266 70.5277 24.461C72.8707 21.656 76.8967 20.0885 82.6057 19.7585V29.6585C81.4837 29.9555 80.6587 30.5165 80.1307 31.3415C79.6357 32.1665 79.3717 33.2555 79.3387 34.6085C79.2727 37.1825 79.2067 39.7895 79.1407 42.4295C79.1077 45.0365 79.0912 47.66 79.0912 50.3C79.0912 52.907 79.1077 55.5305 79.1407 58.1705C79.2067 60.7775 79.2727 63.368 79.3387 65.942C79.3717 67.295 79.6357 68.384 80.1307 69.209C80.6587 70.034 81.4837 70.6115 82.6057 70.9415V80.8415C76.9297 80.5115 72.9037 78.944 70.5277 76.139C68.1847 73.334 66.8647 68.879 66.5677 62.774ZM87.3577 80.8415V71.0405C88.5127 70.7105 89.3377 70.133 89.8327 69.308C90.3607 68.45 90.6577 67.328 90.7237 65.942C90.7897 63.335 90.8392 60.728 90.8722 58.121C90.9382 55.514 90.9712 52.8905 90.9712 50.2505C90.9712 47.6105 90.9382 44.987 90.8722 42.38C90.8392 39.773 90.7897 37.1825 90.7237 34.6085C90.6577 33.1895 90.3607 32.084 89.8327 31.292C89.3377 30.467 88.5127 29.8895 87.3577 29.5595V19.7585C91.2187 19.9565 94.2877 20.7155 96.5647 22.0355C98.8417 23.3225 100.508 25.2695 101.564 27.8765C102.653 30.4505 103.297 33.734 103.495 37.727C103.561 39.245 103.61 41.093 103.643 43.271C103.676 45.449 103.693 47.7425 103.693 50.1515C103.693 52.5275 103.676 54.821 103.643 57.032C103.61 59.243 103.561 61.157 103.495 62.774C103.297 66.833 102.653 70.166 101.564 72.773C100.508 75.347 98.8417 77.294 96.5647 78.614C94.2877 79.901 91.2187 80.6435 87.3577 80.8415ZM110.894 64.7045C110.828 63.1865 110.779 61.1735 110.746 58.6655C110.713 56.1245 110.696 53.4185 110.696 50.5475C110.696 47.6765 110.713 44.954 110.746 42.38C110.779 39.773 110.828 37.6775 110.894 36.0935C111.29 30.6155 112.693 26.606 115.102 24.065C117.511 21.524 121.322 20.0885 126.536 19.7585V29.609C125.579 29.873 124.87 30.368 124.408 31.094C123.979 31.787 123.731 32.81 123.665 34.163C123.599 36.803 123.55 39.4595 123.517 42.1325C123.484 44.8055 123.467 47.4785 123.467 50.1515C123.467 52.8245 123.484 55.481 123.517 58.121C123.55 60.761 123.599 63.401 123.665 66.041C123.731 67.427 123.979 68.516 124.408 69.308C124.87 70.067 125.579 70.6115 126.536 70.9415V80.8415C121.256 80.5115 117.395 79.0925 114.953 76.5845C112.544 74.0435 111.191 70.0835 110.894 64.7045ZM131.338 80.8415V70.991C132.229 70.661 132.889 70.1165 133.318 69.3575C133.78 68.5655 134.027 67.46 134.06 66.041C134.126 65.117 134.159 63.929 134.159 62.477C134.159 60.992 134.126 59.375 134.06 57.626H146.485C146.551 58.22 146.6 59.2595 146.633 60.7445C146.666 62.2295 146.65 63.5495 146.584 64.7045C146.353 70.1165 145.033 74.093 142.624 76.634C140.248 79.142 136.486 80.5445 131.338 80.8415ZM134.06 42.8255C134.093 42.0995 134.11 41.159 134.11 40.004C134.143 38.849 134.143 37.727 134.11 36.638C134.11 35.549 134.093 34.724 134.06 34.163C134.027 32.843 133.78 31.8365 133.318 31.1435C132.889 30.4175 132.229 29.9225 131.338 29.6585V19.7585C136.519 20.0555 140.297 21.458 142.673 23.966C145.082 26.441 146.386 30.3185 146.584 35.5985C146.65 36.7205 146.666 38.0405 146.633 39.5585C146.6 41.0765 146.551 42.1655 146.485 42.8255H134.06ZM154.03 80V44.2115H166.504L170.81 32.0345L176.107 20.6H189.373L166.207 65.0015V80H154.03ZM154.03 40.9445V0.799999H165.959V16.6895L164.722 40.9445H154.03ZM171.701 61.784L179.522 48.0725L191.402 80H178.334L171.701 61.784ZM193.555 64.7045C193.489 63.1865 193.44 61.1735 193.407 58.6655C193.374 56.1245 193.357 53.4185 193.357 50.5475C193.357 47.6765 193.374 44.954 193.407 42.38C193.44 39.773 193.489 37.6775 193.555 36.0935C193.951 30.6155 195.354 26.606 197.763 24.065C200.172 21.524 203.983 20.0885 209.197 19.7585V29.609C208.24 29.873 207.531 30.368 207.069 31.094C206.64 31.787 206.392 32.81 206.326 34.163C206.26 36.803 206.211 39.4595 206.178 42.1325C206.145 44.8055 206.128 47.4785 206.128 50.1515C206.128 52.8245 206.145 55.481 206.178 58.121C206.211 60.761 206.26 63.401 206.326 66.041C206.392 67.427 206.64 68.516 207.069 69.308C207.531 70.067 208.24 70.6115 209.197 70.9415V80.8415C203.917 80.5115 200.056 79.0925 197.614 76.5845C195.205 74.0435 193.852 70.0835 193.555 64.7045ZM213.999 80.8415V70.991C214.89 70.661 215.55 70.1165 215.979 69.3575C216.441 68.5655 216.688 67.46 216.721 66.041C216.787 65.117 216.82 63.929 216.82 62.477C216.82 60.992 216.787 59.375 216.721 57.626H229.146C229.212 58.22 229.261 59.2595 229.294 60.7445C229.327 62.2295 229.311 63.5495 229.245 64.7045C229.014 70.1165 227.694 74.093 225.285 76.634C222.909 79.142 219.147 80.5445 213.999 80.8415ZM216.721 42.8255C216.754 42.0995 216.771 41.159 216.771 40.004C216.804 38.849 216.804 37.727 216.771 36.638C216.771 35.549 216.754 34.724 216.721 34.163C216.688 32.843 216.441 31.8365 215.979 31.1435C215.55 30.4175 214.89 29.9225 213.999 29.6585V19.7585C219.18 20.0555 222.958 21.458 225.334 23.966C227.743 26.441 229.047 30.3185 229.245 35.5985C229.311 36.7205 229.327 38.0405 229.294 39.5585C229.261 41.0765 229.212 42.1655 229.146 42.8255H216.721ZM236.691 80V0.799999H249.462V80H236.691ZM261.837 80V34.1135C261.837 32.3645 261.424 31.094 260.599 30.302C259.807 29.477 258.603 29.0645 256.986 29.0645C256.029 29.0645 255.088 29.2295 254.164 29.5595V23.174C255.154 22.052 256.26 21.194 257.481 20.6C258.735 20.006 260.368 19.709 262.381 19.709C266.242 19.709 269.245 20.897 271.39 23.273C273.535 25.649 274.608 29.609 274.608 35.153V80H261.837ZM281.808 67.2785C281.775 66.6185 281.758 65.8595 281.758 65.0015C281.758 64.1435 281.775 63.3845 281.808 62.7245C282.006 60.1175 282.567 57.8735 283.491 55.9925C284.448 54.0785 285.916 52.3955 287.896 50.9435C289.876 49.4915 292.5 48.122 295.767 46.835C296.691 46.439 297.582 46.0925 298.44 45.7955C299.298 45.4655 300.156 45.1685 301.014 44.9045V53.3195C300.684 53.4515 300.354 53.6165 300.024 53.8145C299.694 53.9795 299.364 54.161 299.034 54.359C297.252 55.316 296.047 56.5205 295.42 57.9725C294.826 59.3915 294.48 60.9755 294.381 62.7245C294.348 63.3515 294.331 63.962 294.331 64.556C294.364 65.117 294.397 65.6945 294.43 66.2885C294.595 68.0045 295.107 69.308 295.965 70.199C296.823 71.09 298.027 71.5355 299.578 71.5355C300.007 71.5355 300.486 71.4695 301.014 71.3375V78.317C299.43 79.934 297.202 80.7425 294.331 80.7425C290.239 80.7425 287.22 79.7195 285.273 77.6735C283.359 75.5945 282.204 72.1295 281.808 67.2785ZM283.54 42.8255C283.507 42.2315 283.474 41.159 283.441 39.608C283.408 38.057 283.408 36.7205 283.441 35.5985C283.639 30.4175 284.86 26.5565 287.104 24.0155C289.381 21.4745 293.259 20.0555 298.737 19.7585V29.51C297.813 29.774 297.136 30.2855 296.707 31.0445C296.278 31.7705 296.031 32.81 295.965 34.163C295.932 34.724 295.899 35.5655 295.866 36.6875C295.866 37.7765 295.866 38.8985 295.866 40.0535C295.899 41.2085 295.932 42.1325 295.965 42.8255H283.54ZM305.815 80V34.6085C305.815 33.3545 305.65 32.3315 305.32 31.5395C304.99 30.7475 304.38 30.17 303.489 29.807V19.7585C309.198 20.0885 313.125 21.656 315.27 24.461C317.448 27.266 318.52 31.6385 318.487 37.5785L318.438 80H305.815ZM326.641 11.1455V0.799999H340.352V11.1455H326.641ZM327.136 80V20.6H339.907V80H327.136ZM348.549 80V20.6H361.32V80H348.549ZM373.695 80V34.1135C373.695 32.3645 373.283 31.094 372.458 30.302C371.666 29.477 370.461 29.0645 368.844 29.0645C368.382 29.0645 367.92 29.114 367.458 29.213C367.029 29.279 366.584 29.3945 366.122 29.5595V23.1245C367.079 22.0025 368.168 21.161 369.389 20.6C370.643 20.006 372.26 19.709 374.24 19.709C378.101 19.709 381.104 20.897 383.249 23.273C385.394 25.649 386.466 29.609 386.466 35.153V80H373.695ZM415.129 67.2785C415.096 66.6185 415.079 65.8595 415.079 65.0015C415.079 64.1435 415.096 63.3845 415.129 62.7245C415.327 60.1175 415.888 57.8735 416.812 55.9925C417.769 54.0785 419.237 52.3955 421.217 50.9435C423.197 49.4915 425.821 48.122 429.088 46.835C430.012 46.439 430.903 46.0925 431.761 45.7955C432.619 45.4655 433.477 45.1685 434.335 44.9045V53.3195C434.005 53.4515 433.675 53.6165 433.345 53.8145C433.015 53.9795 432.685 54.161 432.355 54.359C430.573 55.316 429.368 56.5205 428.741 57.9725C428.147 59.3915 427.801 60.9755 427.702 62.7245C427.669 63.3515 427.652 63.962 427.652 64.556C427.685 65.117 427.718 65.6945 427.751 66.2885C427.916 68.0045 428.428 69.308 429.286 70.199C430.144 71.09 431.348 71.5355 432.899 71.5355C433.328 71.5355 433.807 71.4695 434.335 71.3375V78.317C432.751 79.934 430.523 80.7425 427.652 80.7425C423.56 80.7425 420.541 79.7195 418.594 77.6735C416.68 75.5945 415.525 72.1295 415.129 67.2785ZM416.861 42.8255C416.828 42.2315 416.795 41.159 416.762 39.608C416.729 38.057 416.729 36.7205 416.762 35.5985C416.96 30.4175 418.181 26.5565 420.425 24.0155C422.702 21.4745 426.58 20.0555 432.058 19.7585V29.51C431.134 29.774 430.457 30.2855 430.028 31.0445C429.599 31.7705 429.352 32.81 429.286 34.163C429.253 34.724 429.22 35.5655 429.187 36.6875C429.187 37.7765 429.187 38.8985 429.187 40.0535C429.22 41.2085 429.253 42.1325 429.286 42.8255H416.861ZM439.136 80V34.6085C439.136 33.3545 438.971 32.3315 438.641 31.5395C438.311 30.7475 437.701 30.17 436.81 29.807V19.7585C442.519 20.0885 446.446 21.656 448.591 24.461C450.769 27.266 451.841 31.6385 451.808 37.5785L451.759 80H439.136ZM460.407 80V20.6H473.178V80H460.407ZM485.553 80V34.1135C485.553 32.3645 485.141 31.094 484.316 30.302C483.524 29.477 482.319 29.0645 480.702 29.0645C480.24 29.0645 479.778 29.114 479.316 29.213C478.887 29.279 478.442 29.3945 477.98 29.5595V23.1245C478.937 22.0025 480.026 21.161 481.247 20.6C482.501 20.006 484.118 19.709 486.098 19.709C489.959 19.709 492.962 20.897 495.107 23.273C497.252 25.649 498.324 29.609 498.324 35.153V80H485.553ZM506.217 65.3975C506.151 63.5495 506.102 61.3055 506.069 58.6655C506.036 56.0255 506.019 53.27 506.019 50.399C506.019 47.528 506.036 44.756 506.069 42.083C506.102 39.41 506.151 37.1 506.217 35.153C506.481 29.609 507.669 25.649 509.781 23.273C511.893 20.897 514.863 19.709 518.691 19.709C520.539 19.709 522.057 19.9565 523.245 20.4515C524.466 20.9465 525.522 21.656 526.413 22.58V29.51C525.489 29.213 524.582 29.0645 523.691 29.0645C522.107 29.0645 520.952 29.477 520.226 30.302C519.5 31.094 519.087 32.3645 518.988 34.1135C518.856 37.3805 518.757 40.9775 518.691 44.9045C518.658 48.7985 518.658 52.643 518.691 56.438C518.757 60.233 518.856 63.5825 518.988 66.4865C519.087 68.2355 519.5 69.5225 520.226 70.3475C520.952 71.1395 522.107 71.5355 523.691 71.5355C524.582 71.5355 525.489 71.387 526.413 71.09V77.9705C525.456 78.8945 524.367 79.604 523.146 80.099C521.925 80.627 520.391 80.891 518.543 80.891C514.682 80.891 511.728 79.703 509.682 77.327C507.636 74.918 506.481 70.9415 506.217 65.3975ZM531.215 80V0.799999H543.986V80H531.215ZM0.257 199V119.8H13.0775V199H0.257ZM17.8295 199V187.714H18.473C20.618 187.714 22.2185 187.219 23.2745 186.229C24.3635 185.239 24.9245 183.803 24.9575 181.922C25.0565 178.127 25.1225 174.365 25.1555 170.636C25.2215 166.874 25.2545 163.112 25.2545 159.35C25.2545 155.588 25.2215 151.826 25.1555 148.064C25.1225 144.302 25.0565 140.557 24.9575 136.828C24.9245 134.947 24.3635 133.528 23.2745 132.571C22.2185 131.581 20.6345 131.086 18.5225 131.086H17.8295V119.8H18.5225C25.2215 119.8 30.0725 121.235 33.0755 124.106C36.0785 126.977 37.6295 131.713 37.7285 138.313C37.8275 143.329 37.8935 148.097 37.9265 152.618C37.9595 157.106 37.9595 161.611 37.9265 166.132C37.8935 170.62 37.8275 175.372 37.7285 180.388C37.6295 187.021 36.0785 191.789 33.0755 194.693C30.0725 197.564 25.205 199 18.473 199H17.8295ZM44.6523 186.279C44.6193 185.618 44.6028 184.859 44.6028 184.001C44.6028 183.143 44.6193 182.384 44.6523 181.724C44.8503 179.117 45.4113 176.873 46.3353 174.992C47.2923 173.078 48.7608 171.395 50.7408 169.943C52.7208 168.491 55.3443 167.122 58.6113 165.835C59.5353 165.439 60.4263 165.092 61.2843 164.795C62.1423 164.465 63.0003 164.168 63.8583 163.904V172.319C63.5283 172.451 63.1983 172.616 62.8683 172.814C62.5383 172.979 62.2083 173.161 61.8783 173.359C60.0963 174.316 58.8918 175.52 58.2648 176.972C57.6708 178.391 57.3243 179.975 57.2253 181.724C57.1923 182.351 57.1758 182.962 57.1758 183.556C57.2088 184.117 57.2418 184.694 57.2748 185.288C57.4398 187.004 57.9513 188.308 58.8093 189.199C59.6673 190.09 60.8718 190.535 62.4228 190.535C62.8518 190.535 63.3303 190.469 63.8583 190.337V197.317C62.2743 198.934 60.0468 199.743 57.1758 199.743C53.0838 199.743 50.0643 198.719 48.1173 196.673C46.2033 194.594 45.0483 191.129 44.6523 186.279ZM46.3848 161.825C46.3518 161.231 46.3188 160.159 46.2858 158.608C46.2528 157.057 46.2528 155.72 46.2858 154.598C46.4838 149.417 47.7048 145.556 49.9488 143.015C52.2258 140.474 56.1033 139.055 61.5813 138.758V148.51C60.6573 148.774 59.9808 149.285 59.5518 150.044C59.1228 150.77 58.8753 151.81 58.8093 153.163C58.7763 153.724 58.7433 154.565 58.7103 155.687C58.7103 156.776 58.7103 157.898 58.7103 159.053C58.7433 160.208 58.7763 161.132 58.8093 161.825H46.3848ZM68.6598 199V153.608C68.6598 152.354 68.4948 151.331 68.1648 150.539C67.8348 149.747 67.2243 149.17 66.3333 148.807V138.758C72.0423 139.088 75.9693 140.656 78.1143 143.461C80.2923 146.266 81.3648 150.638 81.3318 156.578L81.2823 199H68.6598ZM86.5154 149.302V139.6H91.7624V122.77H104.533V185.09C104.533 187.037 104.929 188.407 105.721 189.199C106.513 189.991 108.196 190.387 110.77 190.387C111.562 190.387 112.305 190.37 112.998 190.337C113.724 190.304 114.532 190.271 115.423 190.238V199.396C114.73 199.594 113.988 199.726 113.196 199.792C112.404 199.858 111.579 199.891 110.721 199.891C103.923 199.891 99.0554 198.637 96.1184 196.129C93.2144 193.621 91.7624 189.479 91.7624 183.704V149.302H86.5154ZM109.087 149.302V139.6H114.433V149.302H109.087ZM119.386 186.279C119.353 185.618 119.336 184.859 119.336 184.001C119.336 183.143 119.353 182.384 119.386 181.724C119.584 179.117 120.145 176.873 121.069 174.992C122.026 173.078 123.494 171.395 125.474 169.943C127.454 168.491 130.078 167.122 133.345 165.835C134.269 165.439 135.16 165.092 136.018 164.795C136.876 164.465 137.734 164.168 138.592 163.904V172.319C138.262 172.451 137.932 172.616 137.602 172.814C137.272 172.979 136.942 173.161 136.612 173.359C134.83 174.316 133.625 175.52 132.998 176.972C132.404 178.391 132.058 179.975 131.959 181.724C131.926 182.351 131.909 182.962 131.909 183.556C131.942 184.117 131.975 184.694 132.008 185.288C132.173 187.004 132.685 188.308 133.543 189.199C134.401 190.09 135.605 190.535 137.156 190.535C137.585 190.535 138.064 190.469 138.592 190.337V197.317C137.008 198.934 134.78 199.743 131.909 199.743C127.817 199.743 124.798 198.719 122.851 196.673C120.937 194.594 119.782 191.129 119.386 186.279ZM121.118 161.825C121.085 161.231 121.052 160.159 121.019 158.608C120.986 157.057 120.986 155.72 121.019 154.598C121.217 149.417 122.438 145.556 124.682 143.015C126.959 140.474 130.837 139.055 136.315 138.758V148.51C135.391 148.774 134.714 149.285 134.285 150.044C133.856 150.77 133.609 151.81 133.543 153.163C133.51 153.724 133.477 154.565 133.444 155.687C133.444 156.776 133.444 157.898 133.444 159.053C133.477 160.208 133.51 161.132 133.543 161.825H121.118ZM143.393 199V153.608C143.393 152.354 143.228 151.331 142.898 150.539C142.568 149.747 141.958 149.17 141.067 148.807V138.758C146.776 139.088 150.703 140.656 152.848 143.461C155.026 146.266 156.098 150.638 156.065 156.578L156.016 199H143.393ZM22.9775 317.901L17.8295 294.586L13.622 250.086H0.257V238.8H21.8885L27.5315 268.648L29.3135 306.615H31.6895L33.422 268.549L39.1145 238.8H60.6965V250.086H47.3315L43.1735 294.636L37.976 317.901H22.9775ZM0.257 318V254.64H9.8105L13.0775 295.923V318H0.257ZM47.9255 318V296.022L51.242 254.64H60.6965V318H47.9255ZM67.9521 305.279C67.9191 304.618 67.9026 303.859 67.9026 303.001C67.9026 302.143 67.9191 301.384 67.9521 300.724C68.1501 298.117 68.7111 295.873 69.6351 293.992C70.5921 292.078 72.0606 290.395 74.0406 288.943C76.0206 287.491 78.6441 286.122 81.9111 284.835C82.8351 284.439 83.7261 284.092 84.5841 283.795C85.4421 283.465 86.3001 283.168 87.1581 282.904V291.319C86.8281 291.451 86.4981 291.616 86.1681 291.814C85.8381 291.979 85.5081 292.161 85.1781 292.359C83.3961 293.316 82.1916 294.52 81.5646 295.972C80.9706 297.391 80.6241 298.975 80.5251 300.724C80.4921 301.351 80.4756 301.962 80.4756 302.556C80.5086 303.117 80.5416 303.694 80.5746 304.288C80.7396 306.004 81.2511 307.308 82.1091 308.199C82.9671 309.09 84.1716 309.535 85.7226 309.535C86.1516 309.535 86.6301 309.469 87.1581 309.337V316.317C85.5741 317.934 83.3466 318.743 80.4756 318.743C76.3836 318.743 73.3641 317.719 71.4171 315.673C69.5031 313.594 68.3481 310.129 67.9521 305.279ZM69.6846 280.825C69.6516 280.231 69.6186 279.159 69.5856 277.608C69.5526 276.057 69.5526 274.72 69.5856 273.598C69.7836 268.417 71.0046 264.556 73.2486 262.015C75.5256 259.474 79.4031 258.055 84.8811 257.758V267.51C83.9571 267.774 83.2806 268.285 82.8516 269.044C82.4226 269.77 82.1751 270.81 82.1091 272.163C82.0761 272.724 82.0431 273.565 82.0101 274.687C82.0101 275.776 82.0101 276.898 82.0101 278.053C82.0431 279.208 82.0761 280.132 82.1091 280.825H69.6846ZM91.9596 318V272.608C91.9596 271.354 91.7946 270.331 91.4646 269.539C91.1346 268.747 90.5241 268.17 89.6331 267.807V257.758C95.3421 258.088 99.2691 259.656 101.414 262.461C103.592 265.266 104.665 269.638 104.632 275.578L104.582 318H91.9596ZM113.231 318V258.6H126.002V318H113.231ZM138.377 318V272.113C138.377 270.364 137.964 269.094 137.139 268.302C136.347 267.477 135.143 267.064 133.526 267.064C133.064 267.064 132.602 267.114 132.14 267.213C131.711 267.279 131.265 267.394 130.803 267.559V261.124C131.76 260.002 132.849 259.161 134.07 258.6C135.324 258.006 136.941 257.709 138.921 257.709C142.782 257.709 145.785 258.897 147.93 261.273C150.075 263.649 151.148 267.609 151.148 273.153V318H138.377ZM158.348 305.279C158.315 304.618 158.298 303.859 158.298 303.001C158.298 302.143 158.315 301.384 158.348 300.724C158.546 298.117 159.107 295.873 160.031 293.992C160.988 292.078 162.456 290.395 164.436 288.943C166.416 287.491 169.04 286.122 172.307 284.835C173.231 284.439 174.122 284.092 174.98 283.795C175.838 283.465 176.696 283.168 177.554 282.904V291.319C177.224 291.451 176.894 291.616 176.564 291.814C176.234 291.979 175.904 292.161 175.574 292.359C173.792 293.316 172.587 294.52 171.96 295.972C171.366 297.391 171.02 298.975 170.921 300.724C170.888 301.351 170.871 301.962 170.871 302.556C170.904 303.117 170.937 303.694 170.97 304.288C171.135 306.004 171.647 307.308 172.505 308.199C173.363 309.09 174.567 309.535 176.118 309.535C176.547 309.535 177.026 309.469 177.554 309.337V316.317C175.97 317.934 173.742 318.743 170.871 318.743C166.779 318.743 163.76 317.719 161.813 315.673C159.899 313.594 158.744 310.129 158.348 305.279ZM160.08 280.825C160.047 280.231 160.014 279.159 159.981 277.608C159.948 276.057 159.948 274.72 159.981 273.598C160.179 268.417 161.4 264.556 163.644 262.015C165.921 259.474 169.799 258.055 175.277 257.758V267.51C174.353 267.774 173.676 268.285 173.247 269.044C172.818 269.77 172.571 270.81 172.505 272.163C172.472 272.724 172.439 273.565 172.406 274.687C172.406 275.776 172.406 276.898 172.406 278.053C172.439 279.208 172.472 280.132 172.505 280.825H160.08ZM182.355 318V272.608C182.355 271.354 182.19 270.331 181.86 269.539C181.53 268.747 180.92 268.17 180.029 267.807V257.758C185.738 258.088 189.665 259.656 191.81 262.461C193.988 265.266 195.06 269.638 195.027 275.578L194.978 318H182.355ZM218.13 336.909C213.444 336.645 209.913 335.771 207.537 334.286C205.161 332.834 203.742 330.969 203.28 328.692C203.181 328.131 203.098 327.57 203.032 327.009C202.999 326.448 203.032 325.871 203.131 325.276C203.329 323.693 203.923 322.323 204.913 321.168C205.903 320.046 207.52 319.304 209.764 318.941V317.059C205.738 316.432 203.527 314.568 203.131 311.466C203.032 310.773 202.983 310.278 202.983 309.981C202.983 309.684 203.032 309.222 203.131 308.595C203.296 307.242 203.956 306.021 205.111 304.932C206.299 303.81 207.883 303.15 209.863 302.952V301.12C207.355 299.932 205.474 298.15 204.22 295.774C202.999 293.398 202.273 290.313 202.042 286.518C201.976 285.264 201.927 284.125 201.894 283.102C201.861 282.046 201.844 281.04 201.844 280.083C201.844 279.126 201.861 278.169 201.894 277.212C201.927 276.255 201.976 275.215 202.042 274.093C202.438 268.582 203.89 264.556 206.398 262.015C208.906 259.474 212.817 258.055 218.13 257.758V267.559C216.942 267.889 216.034 268.467 215.407 269.292C214.78 270.117 214.434 271.222 214.368 272.608C214.302 274.39 214.252 276.172 214.219 277.954C214.219 279.736 214.219 281.485 214.219 283.201C214.252 284.884 214.302 286.485 214.368 288.003C214.434 289.389 214.78 290.494 215.407 291.319C216.034 292.144 216.942 292.722 218.13 293.052V303.051C216.282 303.183 214.995 303.496 214.269 303.991C213.576 304.453 213.229 305.097 213.229 305.922C213.229 305.988 213.229 306.054 213.229 306.12C213.229 306.186 213.229 306.252 213.229 306.318C213.229 307.143 213.576 307.77 214.269 308.199C214.962 308.595 216.249 308.892 218.13 309.09V318C216.645 318.231 215.44 318.627 214.516 319.188C213.592 319.749 213.031 320.541 212.833 321.564C212.668 322.059 212.586 322.538 212.586 323C212.586 323.462 212.668 323.94 212.833 324.435C213.031 325.458 213.592 326.234 214.516 326.762C215.473 327.323 216.678 327.719 218.13 327.95V336.909ZM222.931 336.959V328.247C225.34 328.148 227.188 327.768 228.475 327.108C229.762 326.481 230.604 325.508 231 324.188C231.198 323.693 231.28 323.198 231.247 322.703C231.247 322.208 231.132 321.713 230.901 321.218C230.538 319.964 229.713 319.073 228.426 318.545C227.172 318.05 225.34 317.769 222.931 317.703V309.288C228.805 309.486 233.211 310.542 236.148 312.456C239.085 314.37 240.883 317.208 241.543 320.97C241.609 321.465 241.659 322.076 241.692 322.802C241.725 323.561 241.675 324.353 241.543 325.178C240.916 329.402 238.887 332.372 235.455 334.088C232.056 335.837 227.881 336.794 222.931 336.959ZM222.931 302.902V293.052C224.086 292.722 224.961 292.144 225.555 291.319C226.182 290.494 226.528 289.389 226.594 288.003C226.66 286.485 226.693 284.884 226.693 283.201C226.726 281.485 226.726 279.736 226.693 277.954C226.693 276.172 226.66 274.39 226.594 272.608C226.528 271.222 226.182 270.133 225.555 269.341C224.961 268.516 224.086 267.939 222.931 267.609V257.758C229.564 258.154 234.052 260.316 236.395 264.243H238.128C238.359 262.329 239.052 260.926 240.207 260.035C241.395 259.111 243.111 258.633 245.355 258.6V268.302H243.969C242.253 268.302 240.999 268.747 240.207 269.638C239.448 270.496 239.068 271.915 239.068 273.895V276.667C239.068 277.855 239.068 278.961 239.068 279.984C239.101 281.007 239.101 282.046 239.068 283.102C239.068 284.158 239.035 285.297 238.969 286.518C238.639 291.963 237.22 295.989 234.712 298.596C232.204 301.17 228.277 302.605 222.931 302.902ZM248.179 302.704C248.113 301.186 248.064 299.173 248.031 296.665C247.998 294.124 247.981 291.418 247.981 288.547C247.981 285.676 247.998 282.954 248.031 280.38C248.064 277.773 248.113 275.677 248.179 274.093C248.575 268.615 249.978 264.606 252.387 262.065C254.829 259.524 258.64 258.088 263.821 257.758V267.609C262.864 267.873 262.155 268.384 261.693 269.143C261.264 269.869 261.016 270.876 260.95 272.163C260.884 274.803 260.835 277.459 260.802 280.132C260.769 282.805 260.752 285.478 260.752 288.151C260.752 290.824 260.769 293.481 260.802 296.121C260.835 298.761 260.884 301.401 260.95 304.041C261.016 305.427 261.264 306.516 261.693 307.308C262.155 308.1 262.864 308.644 263.821 308.941V318.842C258.541 318.512 254.68 317.092 252.238 314.584C249.829 312.043 248.476 308.083 248.179 302.704ZM268.623 318.842V308.991C269.514 308.661 270.174 308.1 270.603 307.308C271.032 306.516 271.279 305.427 271.345 304.041C271.411 303.117 271.444 301.929 271.444 300.477C271.444 298.992 271.411 297.375 271.345 295.626H283.77C283.836 296.22 283.885 297.259 283.918 298.744C283.951 300.229 283.935 301.549 283.869 302.704C283.638 308.116 282.334 312.093 279.958 314.634C277.582 317.142 273.804 318.545 268.623 318.842ZM265.405 290.478V281.617H271.444C271.444 280.165 271.444 278.796 271.444 277.509C271.444 276.189 271.428 275.067 271.395 274.143C271.395 273.186 271.378 272.526 271.345 272.163C271.312 270.909 271.065 269.919 270.603 269.193C270.174 268.467 269.514 267.955 268.623 267.658V257.808C273.804 258.105 277.566 259.491 279.909 261.966C282.285 264.441 283.605 268.318 283.869 273.598C283.902 274.39 283.918 275.727 283.918 277.608C283.951 279.456 283.951 281.535 283.918 283.845C283.918 286.155 283.869 288.366 283.77 290.478H265.405ZM291.411 318V258.6H304.182V318H291.411ZM341.208 318L341.01 272.113C340.977 270.364 340.581 269.094 339.822 268.302C339.096 267.477 337.941 267.064 336.357 267.064C335.499 267.064 334.691 267.229 333.932 267.559V260.679C334.922 259.755 336.044 259.029 337.298 258.501C338.552 257.973 340.037 257.709 341.753 257.709C345.614 257.709 348.567 258.897 350.613 261.273C352.659 263.649 353.715 267.609 353.781 273.153L353.979 318H341.208ZM316.557 318L316.359 272.113C316.359 270.364 315.98 269.094 315.221 268.302C314.495 267.477 313.323 267.064 311.706 267.064C311.244 267.064 310.782 267.097 310.32 267.163C309.891 267.229 309.446 267.345 308.984 267.51V261.075C309.941 259.986 311.03 259.161 312.251 258.6C313.505 258.006 315.122 257.709 317.102 257.709C320.963 257.709 323.916 258.897 325.962 261.273C328.008 263.649 329.081 267.609 329.18 273.153L329.328 318H316.557ZM361.875 302.704C361.809 301.186 361.759 299.173 361.726 296.665C361.693 294.124 361.677 291.418 361.677 288.547C361.677 285.676 361.693 282.954 361.726 280.38C361.759 277.773 361.809 275.677 361.875 274.093C362.271 268.615 363.673 264.606 366.082 262.065C368.524 259.524 372.336 258.088 377.517 257.758V267.609C376.56 267.873 375.85 268.384 375.388 269.143C374.959 269.869 374.712 270.876 374.646 272.163C374.58 274.803 374.53 277.459 374.497 280.132C374.464 282.805 374.448 285.478 374.448 288.151C374.448 290.824 374.464 293.481 374.497 296.121C374.53 298.761 374.58 301.401 374.646 304.041C374.712 305.427 374.959 306.516 375.388 307.308C375.85 308.1 376.56 308.644 377.517 308.941V318.842C372.237 318.512 368.376 317.092 365.934 314.584C363.525 312.043 362.172 308.083 361.875 302.704ZM382.318 318.842V308.991C383.209 308.661 383.869 308.1 384.298 307.308C384.727 306.516 384.975 305.427 385.041 304.041C385.107 303.117 385.14 301.929 385.14 300.477C385.14 298.992 385.107 297.375 385.041 295.626H397.465C397.531 296.22 397.581 297.259 397.614 298.744C397.647 300.229 397.63 301.549 397.564 302.704C397.333 308.116 396.03 312.093 393.654 314.634C391.278 317.142 387.499 318.545 382.318 318.842ZM379.101 290.478V281.617H385.14C385.14 280.165 385.14 278.796 385.14 277.509C385.14 276.189 385.123 275.067 385.09 274.143C385.09 273.186 385.074 272.526 385.041 272.163C385.008 270.909 384.76 269.919 384.298 269.193C383.869 268.467 383.209 267.955 382.318 267.658V257.808C387.499 258.105 391.261 259.491 393.604 261.966C395.98 264.441 397.3 268.318 397.564 273.598C397.597 274.39 397.614 275.727 397.614 277.608C397.647 279.456 397.647 281.535 397.614 283.845C397.614 286.155 397.564 288.366 397.465 290.478H379.101ZM405.107 318V258.6H417.878V318H405.107ZM430.253 318V272.113C430.253 270.364 429.84 269.094 429.015 268.302C428.223 267.477 427.019 267.064 425.402 267.064C424.94 267.064 424.478 267.114 424.016 267.213C423.587 267.279 423.141 267.394 422.679 267.559V261.124C423.636 260.002 424.725 259.161 425.946 258.6C427.2 258.006 428.817 257.709 430.797 257.709C434.658 257.709 437.661 258.897 439.806 261.273C441.951 263.649 443.024 267.609 443.024 273.153V318H430.253ZM448.194 268.302V258.6H453.441V241.77H466.212V304.09C466.212 306.037 466.608 307.407 467.4 308.199C468.192 308.991 469.875 309.387 472.449 309.387C473.241 309.387 473.984 309.37 474.677 309.337C475.403 309.304 476.211 309.271 477.102 309.238V318.396C476.409 318.594 475.667 318.726 474.875 318.792C474.083 318.858 473.258 318.891 472.4 318.891C465.602 318.891 460.734 317.637 457.797 315.129C454.893 312.621 453.441 308.479 453.441 302.704V268.302H448.194ZM470.766 268.302V258.6H476.112V268.302H470.766Z" fill="#F5EDFF"/>
</svg>
