<svg width="572" height="86" viewBox="0 0 572 86" fill="none" xmlns="http://www.w3.org/2000/svg">
<path d="M14.94 71.612C10.764 71.396 7.728 70.268 5.832 68.228C3.96 66.164 2.976 62.912 2.88 58.472C2.808 55.856 2.76 53.18 2.736 50.444C2.712 47.708 2.7 44.96 2.7 42.2C2.7 39.416 2.712 36.656 2.736 33.92C2.76 31.184 2.808 28.496 2.88 25.856C2.976 21.44 3.96 18.212 5.832 16.172C7.728 14.132 10.764 13.004 14.94 12.788V20.528C14.052 20.768 13.38 21.188 12.924 21.788C12.492 22.388 12.252 23.18 12.204 24.164C12.108 26.876 12.024 29.756 11.952 32.804C11.904 35.852 11.88 38.972 11.88 42.164C11.88 45.332 11.904 48.452 11.952 51.524C12.024 54.572 12.108 57.452 12.204 60.164C12.252 61.172 12.492 61.988 12.924 62.612C13.38 63.212 14.052 63.632 14.94 63.872V71.612ZM18.432 71.612V63.872C19.296 63.632 19.944 63.212 20.376 62.612C20.832 61.988 21.072 61.172 21.096 60.164C21.216 57.452 21.3 54.572 21.348 51.524C21.396 48.452 21.408 45.332 21.384 42.164C21.384 38.972 21.36 35.852 21.312 32.804C21.288 29.756 21.216 26.876 21.096 24.164C21.072 23.18 20.832 22.388 20.376 21.788C19.944 21.188 19.296 20.768 18.432 20.528V12.788C22.584 13.004 25.572 14.144 27.396 16.208C29.22 18.272 30.204 21.488 30.348 25.856C30.42 28.52 30.48 31.22 30.528 33.956C30.576 36.692 30.6 39.452 30.6 42.236C30.6 44.996 30.576 47.744 30.528 50.48C30.48 53.192 30.42 55.856 30.348 58.472C30.204 62.864 29.22 66.092 27.396 68.156C25.572 70.22 22.584 71.372 18.432 71.612ZM34.4098 58.472C34.3138 51.008 34.2658 43.496 34.2658 35.936C34.2658 28.352 34.3138 20.84 34.4098 13.4H43.7338C43.6378 18.368 43.5778 23.516 43.5538 28.844C43.5538 34.148 43.5658 39.452 43.5898 44.756C43.6138 50.06 43.6498 55.196 43.6978 60.164C43.6978 61.148 43.9258 61.952 44.3818 62.576C44.8378 63.2 45.5218 63.632 46.4338 63.872V71.612C42.1858 71.372 39.1378 70.232 37.2898 68.192C35.4418 66.128 34.4818 62.888 34.4098 58.472ZM49.9258 71.612V63.872C50.8138 63.632 51.4738 63.2 51.9058 62.576C52.3378 61.952 52.5538 61.148 52.5538 60.164C52.6018 55.196 52.6378 50.06 52.6618 44.756C52.7098 39.452 52.7218 34.148 52.6978 28.844C52.6978 23.516 52.6498 18.368 52.5538 13.4H61.8418C61.9618 20.84 62.0218 28.352 62.0218 35.936C62.0218 43.496 61.9618 51.008 61.8418 58.472C61.7698 62.888 60.8098 66.128 58.9618 68.192C57.1378 70.232 54.1258 71.372 49.9258 71.612ZM84.6748 71L79.3108 50.912H78.7708V42.704H79.2028C80.7388 42.704 81.8788 42.356 82.6228 41.66C83.3908 40.94 83.8108 39.896 83.8828 38.528C83.9548 37.184 84.0028 35.792 84.0268 34.352C84.0508 32.888 84.0508 31.436 84.0268 29.996C84.0028 28.532 83.9548 27.128 83.8828 25.784C83.8108 24.416 83.3908 23.384 82.6228 22.688C81.8788 21.968 80.7388 21.608 79.2028 21.608H78.8788V13.4H79.2028C84.0508 13.4 87.5548 14.396 89.7148 16.388C91.8748 18.38 93.0268 21.668 93.1708 26.252C93.2428 27.788 93.2788 29.18 93.2788 30.428C93.3028 31.652 93.3028 32.876 93.2788 34.1C93.2788 35.3 93.2428 36.62 93.1708 38.06C92.9788 43.676 91.2028 47.384 87.8428 49.184L94.3588 71H84.6748ZM66.0988 71V13.4H75.4228V71H66.0988ZM111.594 71V13.4H120.918V71H111.594ZM124.338 71V62.792H134.346V71H124.338ZM124.338 45.872V37.664H133.626V45.872H124.338ZM124.338 21.608V13.4H134.346V21.608H124.338ZM149.418 71.612C145.122 71.396 142.062 70.268 140.238 68.228C138.438 66.164 137.49 62.912 137.394 58.472C137.346 56.12 137.31 53.552 137.286 50.768C137.262 47.984 137.25 45.128 137.25 42.2C137.25 39.272 137.262 36.416 137.286 33.632C137.31 30.824 137.346 28.232 137.394 25.856C137.466 22.016 138.438 18.956 140.31 16.676C142.206 14.372 145.242 13.088 149.418 12.824V20.528C148.53 20.768 147.858 21.2 147.402 21.824C146.97 22.424 146.73 23.216 146.682 24.2C146.586 26.984 146.514 29.9 146.466 32.948C146.442 35.996 146.43 39.08 146.43 42.2C146.43 45.32 146.442 48.404 146.466 51.452C146.514 54.476 146.586 57.38 146.682 60.164C146.73 61.172 146.97 61.988 147.402 62.612C147.858 63.236 148.53 63.656 149.418 63.872V71.612ZM152.874 71.612V63.872C153.786 63.632 154.47 63.2 154.926 62.576C155.406 61.952 155.658 61.148 155.682 60.164C155.706 59.18 155.718 58.052 155.718 56.78C155.742 55.508 155.742 54.236 155.718 52.964C155.718 51.692 155.706 50.576 155.682 49.616H164.97C165.018 50.984 165.042 52.46 165.042 54.044C165.042 55.604 165.018 57.08 164.97 58.472C164.85 62.888 163.842 66.128 161.946 68.192C160.074 70.232 157.05 71.372 152.874 71.612ZM155.322 34.604C155.346 33.62 155.37 32.516 155.394 31.292C155.418 30.044 155.43 28.796 155.43 27.548C155.43 26.3 155.418 25.184 155.394 24.2C155.37 23.24 155.142 22.46 154.71 21.86C154.302 21.236 153.69 20.804 152.874 20.564V12.788C156.93 13.028 159.882 14.18 161.73 16.244C163.578 18.284 164.562 21.5 164.682 25.892C164.706 26.732 164.718 27.668 164.718 28.7C164.718 29.732 164.706 30.776 164.682 31.832C164.658 32.864 164.634 33.788 164.61 34.604H155.322ZM180.816 71.612C176.64 71.396 173.604 70.268 171.708 68.228C169.836 66.164 168.852 62.912 168.756 58.472C168.684 55.856 168.636 53.18 168.612 50.444C168.588 47.708 168.576 44.96 168.576 42.2C168.576 39.416 168.588 36.656 168.612 33.92C168.636 31.184 168.684 28.496 168.756 25.856C168.852 21.44 169.836 18.212 171.708 16.172C173.604 14.132 176.64 13.004 180.816 12.788V20.528C179.928 20.768 179.256 21.188 178.8 21.788C178.368 22.388 178.128 23.18 178.08 24.164C177.984 26.876 177.9 29.756 177.828 32.804C177.78 35.852 177.756 38.972 177.756 42.164C177.756 45.332 177.78 48.452 177.828 51.524C177.9 54.572 177.984 57.452 178.08 60.164C178.128 61.172 178.368 61.988 178.8 62.612C179.256 63.212 179.928 63.632 180.816 63.872V71.612ZM184.308 71.612V63.872C185.172 63.632 185.82 63.212 186.252 62.612C186.708 61.988 186.948 61.172 186.972 60.164C187.092 57.452 187.176 54.572 187.224 51.524C187.272 48.452 187.284 45.332 187.26 42.164C187.26 38.972 187.236 35.852 187.188 32.804C187.164 29.756 187.092 26.876 186.972 24.164C186.948 23.18 186.708 22.388 186.252 21.788C185.82 21.188 185.172 20.768 184.308 20.528V12.788C188.46 13.004 191.448 14.144 193.272 16.208C195.096 18.272 196.08 21.488 196.224 25.856C196.296 28.52 196.356 31.22 196.404 33.956C196.452 36.692 196.476 39.452 196.476 42.236C196.476 44.996 196.452 47.744 196.404 50.48C196.356 53.192 196.296 55.856 196.224 58.472C196.08 62.864 195.096 66.092 193.272 68.156C191.448 70.22 188.46 71.372 184.308 71.612ZM211.877 71.612C207.725 71.372 204.749 70.232 202.949 68.192C201.173 66.128 200.189 62.876 199.997 58.436C199.973 57.5 199.961 56.528 199.961 55.52C199.961 54.512 199.985 53.516 200.033 52.532C200.081 51.524 200.153 50.54 200.249 49.58H208.997C208.901 51.428 208.841 53.264 208.817 55.088C208.817 56.888 208.877 58.568 208.997 60.128C209.093 61.136 209.369 61.952 209.825 62.576C210.281 63.2 210.965 63.632 211.877 63.872V71.612ZM215.369 71.612V63.872C216.185 63.608 216.797 63.176 217.205 62.576C217.637 61.952 217.901 61.136 217.997 60.128C218.093 59.168 218.153 58.256 218.177 57.392C218.225 56.528 218.225 55.652 218.177 54.764C218.153 53.876 218.093 52.94 217.997 51.956C217.925 50.756 217.625 49.7 217.097 48.788C216.593 47.876 215.741 47.264 214.541 46.952L209.177 45.584C206.849 44.984 205.013 44.12 203.669 42.992C202.325 41.84 201.353 40.4 200.753 38.672C200.177 36.944 199.853 34.904 199.781 32.552C199.757 31.376 199.745 30.248 199.745 29.168C199.745 28.064 199.757 26.972 199.781 25.892C199.949 21.452 200.933 18.224 202.733 16.208C204.557 14.168 207.605 13.028 211.877 12.788V20.528C210.989 20.768 210.329 21.188 209.897 21.788C209.465 22.388 209.189 23.192 209.069 24.2C208.949 25.592 208.889 26.984 208.889 28.376C208.889 29.768 208.949 31.16 209.069 32.552C209.189 33.8 209.501 34.856 210.005 35.72C210.533 36.584 211.445 37.172 212.741 37.484L217.457 38.6C219.929 39.2 221.873 40.1 223.289 41.3C224.705 42.476 225.713 43.952 226.313 45.728C226.937 47.504 227.285 49.58 227.357 51.956C227.381 52.748 227.393 53.504 227.393 54.224C227.393 54.92 227.381 55.616 227.357 56.312C227.357 56.984 227.333 57.692 227.285 58.436C227.117 62.852 226.121 66.092 224.297 68.156C222.497 70.22 219.521 71.372 215.369 71.612ZM218.033 34.604C218.105 32.876 218.153 31.148 218.177 29.42C218.201 27.668 218.177 25.928 218.105 24.2C218.081 23.216 217.829 22.424 217.349 21.824C216.869 21.224 216.197 20.804 215.333 20.564V12.788C219.341 13.028 222.257 14.18 224.081 16.244C225.905 18.284 226.901 21.5 227.069 25.892C227.117 26.996 227.129 28.352 227.105 29.96C227.081 31.568 227.033 33.116 226.961 34.604H218.033ZM238.871 71V56.924V56.852L228.791 13.4H238.295L241.247 27.944L242.687 44.756H251.003L248.159 56.852V56.924V71H238.871ZM244.775 42.272L246.251 27.944L249.239 13.4H258.743L251.903 42.272H244.775ZM272.208 71.612C268.056 71.372 265.08 70.232 263.28 68.192C261.504 66.128 260.52 62.876 260.328 58.436C260.304 57.5 260.292 56.528 260.292 55.52C260.292 54.512 260.316 53.516 260.364 52.532C260.412 51.524 260.484 50.54 260.58 49.58H269.328C269.232 51.428 269.172 53.264 269.148 55.088C269.148 56.888 269.208 58.568 269.328 60.128C269.424 61.136 269.7 61.952 270.156 62.576C270.612 63.2 271.296 63.632 272.208 63.872V71.612ZM275.7 71.612V63.872C276.516 63.608 277.128 63.176 277.536 62.576C277.968 61.952 278.232 61.136 278.328 60.128C278.424 59.168 278.484 58.256 278.508 57.392C278.556 56.528 278.556 55.652 278.508 54.764C278.484 53.876 278.424 52.94 278.328 51.956C278.256 50.756 277.956 49.7 277.428 48.788C276.924 47.876 276.072 47.264 274.872 46.952L269.508 45.584C267.18 44.984 265.344 44.12 264 42.992C262.656 41.84 261.684 40.4 261.084 38.672C260.508 36.944 260.184 34.904 260.112 32.552C260.088 31.376 260.076 30.248 260.076 29.168C260.076 28.064 260.088 26.972 260.112 25.892C260.28 21.452 261.264 18.224 263.064 16.208C264.888 14.168 267.936 13.028 272.208 12.788V20.528C271.32 20.768 270.66 21.188 270.228 21.788C269.796 22.388 269.52 23.192 269.4 24.2C269.28 25.592 269.22 26.984 269.22 28.376C269.22 29.768 269.28 31.16 269.4 32.552C269.52 33.8 269.832 34.856 270.336 35.72C270.864 36.584 271.776 37.172 273.072 37.484L277.788 38.6C280.26 39.2 282.204 40.1 283.62 41.3C285.036 42.476 286.044 43.952 286.644 45.728C287.268 47.504 287.616 49.58 287.688 51.956C287.712 52.748 287.724 53.504 287.724 54.224C287.724 54.92 287.712 55.616 287.688 56.312C287.688 56.984 287.664 57.692 287.616 58.436C287.448 62.852 286.452 66.092 284.628 68.156C282.828 70.22 279.852 71.372 275.7 71.612ZM278.364 34.604C278.436 32.876 278.484 31.148 278.508 29.42C278.532 27.668 278.508 25.928 278.436 24.2C278.412 23.216 278.16 22.424 277.68 21.824C277.2 21.224 276.528 20.804 275.664 20.564V12.788C279.672 13.028 282.588 14.18 284.412 16.244C286.236 18.284 287.232 21.5 287.4 25.892C287.448 26.996 287.46 28.352 287.436 29.96C287.412 31.568 287.364 33.116 287.292 34.604H278.364ZM297.582 71V24.848H306.87V71H297.582ZM288.798 21.608V13.4H315.618V21.608H288.798ZM317.725 71V13.4H327.049V71H317.725ZM330.469 71V62.792H340.477V71H330.469ZM330.469 45.872V37.664H339.757V45.872H330.469ZM330.469 21.608V13.4H340.477V21.608H330.469ZM360.301 70.928L356.557 53.972L353.497 21.608H343.777V13.4H359.509L363.613 35.108L364.909 62.72H366.637L367.897 35.036L372.037 13.4H387.733V21.608H378.013L374.989 54.008L371.209 70.928H360.301ZM343.777 71V24.92H350.725L353.101 54.944V71H343.777ZM378.445 71V55.016L380.857 24.92H387.733V71H378.445Z" fill="#F5EDFF"/>
<path d="M397.098 64.374C397.086 64.134 397.08 63.858 397.08 63.546C397.08 63.234 397.086 62.958 397.098 62.718C397.17 61.77 397.374 60.954 397.71 60.27C398.058 59.574 398.592 58.962 399.312 58.434C400.032 57.906 400.986 57.408 402.174 56.94C402.51 56.796 402.834 56.67 403.146 56.562C403.458 56.442 403.77 56.334 404.082 56.238V59.298C403.962 59.346 403.842 59.406 403.722 59.478C403.602 59.538 403.482 59.604 403.362 59.676C402.714 60.024 402.276 60.462 402.048 60.99C401.832 61.506 401.706 62.082 401.67 62.718C401.658 62.946 401.652 63.168 401.652 63.384C401.664 63.588 401.676 63.798 401.688 64.014C401.748 64.638 401.934 65.112 402.246 65.436C402.558 65.76 402.996 65.922 403.56 65.922C403.716 65.922 403.89 65.898 404.082 65.85V68.388C403.506 68.976 402.696 69.27 401.652 69.27C400.164 69.27 399.066 68.898 398.358 68.154C397.662 67.398 397.242 66.138 397.098 64.374ZM397.728 55.482C397.716 55.266 397.704 54.876 397.692 54.312C397.68 53.748 397.68 53.262 397.692 52.854C397.764 50.97 398.208 49.566 399.024 48.642C399.852 47.718 401.262 47.202 403.254 47.094V50.64C402.918 50.736 402.672 50.922 402.516 51.198C402.36 51.462 402.27 51.84 402.246 52.332C402.234 52.536 402.222 52.842 402.21 53.25C402.21 53.646 402.21 54.054 402.21 54.474C402.222 54.894 402.234 55.23 402.246 55.482H397.728ZM405.828 69V52.494C405.828 52.038 405.768 51.666 405.648 51.378C405.528 51.09 405.306 50.88 404.982 50.748V47.094C407.058 47.214 408.486 47.784 409.266 48.804C410.058 49.824 410.448 51.414 410.436 53.574L410.418 69H405.828ZM412.843 69V47.4H417.487V69H412.843ZM421.987 69V52.314C421.987 51.678 421.837 51.216 421.537 50.928C421.249 50.628 420.811 50.478 420.223 50.478C420.055 50.478 419.887 50.496 419.719 50.532C419.563 50.556 419.401 50.598 419.233 50.658V48.318C419.581 47.91 419.977 47.604 420.421 47.4C420.877 47.184 421.465 47.076 422.185 47.076C423.589 47.076 424.681 47.508 425.461 48.372C426.241 49.236 426.631 50.676 426.631 52.692V69H421.987ZM428.781 63.69C428.757 63.018 428.739 62.202 428.727 61.242C428.715 60.282 428.709 59.28 428.709 58.236C428.709 57.192 428.715 56.184 428.727 55.212C428.739 54.24 428.757 53.4 428.781 52.692C428.877 50.676 429.309 49.236 430.077 48.372C430.845 47.508 431.925 47.076 433.317 47.076C433.989 47.076 434.541 47.166 434.973 47.346C435.417 47.526 435.801 47.784 436.125 48.12V50.64C435.789 50.532 435.459 50.478 435.135 50.478C434.559 50.478 434.139 50.628 433.875 50.928C433.611 51.216 433.461 51.678 433.425 52.314C433.377 53.502 433.341 54.81 433.317 56.238C433.305 57.654 433.305 59.052 433.317 60.432C433.341 61.812 433.377 63.03 433.425 64.086C433.461 64.722 433.611 65.19 433.875 65.49C434.139 65.778 434.559 65.922 435.135 65.922C435.459 65.922 435.789 65.868 436.125 65.76V68.262C435.777 68.598 435.381 68.856 434.937 69.036C434.493 69.228 433.935 69.324 433.263 69.324C431.859 69.324 430.785 68.892 430.041 68.028C429.297 67.152 428.877 65.706 428.781 63.69ZM437.871 69V40.2H442.515V69H437.871ZM452.043 69V40.2H456.705V69H452.043ZM458.433 59.334V55.23H458.595C459.363 55.23 459.933 55.05 460.305 54.69C460.689 54.33 460.899 53.814 460.935 53.142C460.971 52.458 460.995 51.726 461.007 50.946C461.019 50.154 461.019 49.368 461.007 48.588C460.995 47.796 460.971 47.064 460.935 46.392C460.899 45.708 460.689 45.192 460.305 44.844C459.933 44.484 459.363 44.304 458.595 44.304H458.433V40.2H458.595C461.019 40.2 462.771 40.698 463.851 41.694C464.931 42.69 465.507 44.334 465.579 46.626C465.627 47.79 465.651 48.858 465.651 49.83C465.651 50.79 465.627 51.81 465.579 52.89C465.507 55.182 464.931 56.832 463.851 57.84C462.771 58.836 461.019 59.334 458.595 59.334H458.433ZM465.36 69L469.122 40.2H476.988L477.492 44.304H472.578L472.074 52.566L471.354 58.29H473.73L472.632 62.394H471.084L470.13 69H465.36ZM475.908 69L474.054 52.53L473.748 45.924H477.6L480.678 69H475.908ZM491.25 69L488.568 58.956H488.298V54.852H488.514C489.282 54.852 489.852 54.678 490.224 54.33C490.608 53.97 490.818 53.448 490.854 52.764C490.89 52.092 490.914 51.396 490.926 50.676C490.938 49.944 490.938 49.218 490.926 48.498C490.914 47.766 490.89 47.064 490.854 46.392C490.818 45.708 490.608 45.192 490.224 44.844C489.852 44.484 489.282 44.304 488.514 44.304H488.352V40.2H488.514C490.938 40.2 492.69 40.698 493.77 41.694C494.85 42.69 495.426 44.334 495.498 46.626C495.534 47.394 495.552 48.09 495.552 48.714C495.564 49.326 495.564 49.938 495.552 50.55C495.552 51.15 495.534 51.81 495.498 52.53C495.402 55.338 494.514 57.192 492.834 58.092L496.092 69H491.25ZM481.962 69V40.2H486.624V69H481.962ZM500.685 69V45.924H505.329V69H500.685ZM496.293 44.304V40.2H509.703V44.304H496.293ZM518.659 69L516.679 59.352L515.023 44.268H510.757V40.2H517.705L519.649 49.362L521.755 64.896H525.931V69H518.659ZM510.757 69V45.942H513.763L514.861 59.388L515.257 69H510.757ZM522.961 63.222L521.665 49.506L521.431 40.2H525.931V63.222H522.961ZM528.318 69V40.2H532.98V69H528.318ZM534.69 69V64.896H539.694V69H534.69ZM534.69 56.436V52.332H539.334V56.436H534.69ZM534.69 44.304V40.2H539.694V44.304H534.69ZM550.632 69L547.95 58.956H547.68V54.852H547.896C548.664 54.852 549.234 54.678 549.606 54.33C549.99 53.97 550.2 53.448 550.236 52.764C550.272 52.092 550.296 51.396 550.308 50.676C550.32 49.944 550.32 49.218 550.308 48.498C550.296 47.766 550.272 47.064 550.236 46.392C550.2 45.708 549.99 45.192 549.606 44.844C549.234 44.484 548.664 44.304 547.896 44.304H547.734V40.2H547.896C550.32 40.2 552.072 40.698 553.152 41.694C554.232 42.69 554.808 44.334 554.88 46.626C554.916 47.394 554.934 48.09 554.934 48.714C554.946 49.326 554.946 49.938 554.934 50.55C554.934 51.15 554.916 51.81 554.88 52.53C554.784 55.338 553.896 57.192 552.216 58.092L555.474 69H550.632ZM541.344 69V40.2H546.006V69H541.344ZM562.551 69.306C560.475 69.186 558.987 68.616 558.087 67.596C557.199 66.564 556.707 64.938 556.611 62.718C556.599 62.25 556.593 61.764 556.593 61.26C556.593 60.756 556.605 60.258 556.629 59.766C556.653 59.262 556.689 58.77 556.737 58.29H561.111C561.063 59.214 561.033 60.132 561.021 61.044C561.021 61.944 561.051 62.784 561.111 63.564C561.159 64.068 561.297 64.476 561.525 64.788C561.753 65.1 562.095 65.316 562.551 65.436V69.306ZM564.297 69.306V65.436C564.705 65.304 565.011 65.088 565.215 64.788C565.431 64.476 565.563 64.068 565.611 63.564C565.659 63.084 565.689 62.628 565.701 62.196C565.725 61.764 565.725 61.326 565.701 60.882C565.689 60.438 565.659 59.97 565.611 59.478C565.575 58.878 565.425 58.35 565.161 57.894C564.909 57.438 564.483 57.132 563.883 56.976L561.201 56.292C560.037 55.992 559.119 55.56 558.447 54.996C557.775 54.42 557.289 53.7 556.989 52.836C556.701 51.972 556.539 50.952 556.503 49.776C556.491 49.188 556.485 48.624 556.485 48.084C556.485 47.532 556.491 46.986 556.503 46.446C556.587 44.226 557.079 42.612 557.979 41.604C558.891 40.584 560.415 40.014 562.551 39.894V43.764C562.107 43.884 561.777 44.094 561.561 44.394C561.345 44.694 561.207 45.096 561.147 45.6C561.087 46.296 561.057 46.992 561.057 47.688C561.057 48.384 561.087 49.08 561.147 49.776C561.207 50.4 561.363 50.928 561.615 51.36C561.879 51.792 562.335 52.086 562.983 52.242L565.341 52.8C566.577 53.1 567.549 53.55 568.257 54.15C568.965 54.738 569.469 55.476 569.769 56.364C570.081 57.252 570.255 58.29 570.291 59.478C570.303 59.874 570.309 60.252 570.309 60.612C570.309 60.96 570.303 61.308 570.291 61.656C570.291 61.992 570.279 62.346 570.255 62.718C570.171 64.926 569.673 66.546 568.761 67.578C567.861 68.61 566.373 69.186 564.297 69.306ZM565.629 50.802C565.665 49.938 565.689 49.074 565.701 48.21C565.713 47.334 565.701 46.464 565.665 45.6C565.653 45.108 565.527 44.712 565.287 44.412C565.047 44.112 564.711 43.902 564.279 43.782V39.894C566.283 40.014 567.741 40.59 568.653 41.622C569.565 42.642 570.063 44.25 570.147 46.446C570.171 46.998 570.177 47.676 570.165 48.48C570.153 49.284 570.129 50.058 570.093 50.802H565.629Z" fill="white"/>
</svg>
