<svg width="456" height="339" viewBox="0 0 456 339" fill="none" xmlns="http://www.w3.org/2000/svg">
<path d="M2.257 80V0.799999H15.0775V80H2.257ZM19.78 80V68.714H33.541V80H19.78ZM19.78 45.449V34.163H32.551V45.449H19.78ZM19.78 12.086V0.799999H33.541V12.086H19.78ZM34.8582 30.302V20.6H40.1052V3.77H52.8762V66.0905C52.8762 68.0375 53.2722 69.407 54.0642 70.199C54.8562 70.991 56.5392 71.387 59.1132 71.387C59.9052 71.387 60.6477 71.3705 61.3407 71.3375C62.0667 71.3045 62.8752 71.2715 63.7662 71.2385V80.396C63.0732 80.594 62.3307 80.726 61.5387 80.792C60.7467 80.858 59.9217 80.891 59.0637 80.891C52.2657 80.891 47.3982 79.637 44.4612 77.129C41.5572 74.621 40.1052 70.4795 40.1052 64.7045V30.302H34.8582ZM57.4302 30.302V20.6H62.7762V30.302H57.4302ZM69.1145 80V0.799999H81.8855V80H69.1145ZM94.2605 80V34.1135C94.2605 32.3645 93.848 31.094 93.023 30.302C92.231 29.477 91.0265 29.0645 89.4095 29.0645C88.4525 29.0645 87.512 29.2295 86.588 29.5595V23.174C87.578 22.052 88.6835 21.194 89.9045 20.6C91.1585 20.006 92.792 19.709 94.805 19.709C98.666 19.709 101.669 20.897 103.814 23.273C105.959 25.649 107.031 29.609 107.031 35.153V80H94.2605ZM115.172 11.1455V0.799999H128.883V11.1455H115.172ZM115.667 80V20.6H128.438V80H115.667ZM136.387 64.7045C136.321 63.1865 136.272 61.1735 136.239 58.6655C136.206 56.1245 136.189 53.4185 136.189 50.5475C136.189 47.6765 136.206 44.954 136.239 42.38C136.272 39.773 136.321 37.6775 136.387 36.0935C136.783 30.6155 138.186 26.606 140.595 24.065C143.004 21.524 146.815 20.0885 152.029 19.7585V29.609C151.072 29.873 150.363 30.368 149.901 31.094C149.472 31.787 149.224 32.81 149.158 34.163C149.092 36.803 149.043 39.4595 149.01 42.1325C148.977 44.8055 148.96 47.4785 148.96 50.1515C148.96 52.8245 148.977 55.481 149.01 58.121C149.043 60.761 149.092 63.401 149.158 66.041C149.224 67.427 149.472 68.516 149.901 69.308C150.363 70.067 151.072 70.6115 152.029 70.9415V80.8415C146.749 80.5115 142.888 79.0925 140.446 76.5845C138.037 74.0435 136.684 70.0835 136.387 64.7045ZM156.831 80.8415V70.991C157.722 70.661 158.382 70.1165 158.811 69.3575C159.273 68.5655 159.52 67.46 159.553 66.041C159.619 65.117 159.652 63.929 159.652 62.477C159.652 60.992 159.619 59.375 159.553 57.626H171.978C172.044 58.22 172.093 59.2595 172.126 60.7445C172.159 62.2295 172.143 63.5495 172.077 64.7045C171.846 70.1165 170.526 74.093 168.117 76.634C165.741 79.142 161.979 80.5445 156.831 80.8415ZM159.553 42.8255C159.586 42.0995 159.603 41.159 159.603 40.004C159.636 38.849 159.636 37.727 159.603 36.638C159.603 35.549 159.586 34.724 159.553 34.163C159.52 32.843 159.273 31.8365 158.811 31.1435C158.382 30.4175 157.722 29.9225 156.831 29.6585V19.7585C162.012 20.0555 165.79 21.458 168.166 23.966C170.575 26.441 171.879 30.3185 172.077 35.5985C172.143 36.7205 172.159 38.0405 172.126 39.5585C172.093 41.0765 172.044 42.1655 171.978 42.8255H159.553ZM178.335 64.7045C178.302 63.5495 178.285 62.2295 178.285 60.7445C178.318 59.2595 178.368 58.22 178.434 57.626H189.621C189.555 59.375 189.522 60.992 189.522 62.477C189.522 63.929 189.538 65.117 189.571 66.041C189.637 67.46 189.918 68.549 190.413 69.308C190.908 70.067 191.634 70.6115 192.591 70.9415V80.8415C187.641 80.5115 184.077 79.0925 181.899 76.5845C179.721 74.0435 178.533 70.0835 178.335 64.7045ZM197.392 80.8415V71.09C198.613 70.826 199.504 70.298 200.065 69.506C200.626 68.681 200.923 67.526 200.956 66.041C200.956 65.15 200.956 64.5725 200.956 64.3085C200.956 64.0115 200.956 63.731 200.956 63.467C200.956 63.203 200.956 62.675 200.956 61.883C200.956 60.497 200.709 59.3915 200.214 58.5665C199.719 57.7085 198.828 57.0815 197.541 56.6855L191.106 54.854C188.301 53.996 185.925 52.9565 183.978 51.7355C182.031 50.4815 180.546 48.881 179.523 46.934C178.533 44.987 178.021 42.5615 177.988 39.6575C177.988 39.0305 177.988 38.4365 177.988 37.8755C177.988 37.3145 177.988 36.737 177.988 36.143C178.021 30.665 179.176 26.639 181.453 24.065C183.73 21.491 187.657 20.0555 193.234 19.7585V29.5595C192.244 29.8235 191.535 30.3185 191.106 31.0445C190.71 31.7705 190.495 32.81 190.462 34.163C190.429 34.988 190.396 35.6315 190.363 36.0935C190.363 36.5555 190.363 37.3805 190.363 38.5685C190.363 40.0865 190.594 41.3735 191.056 42.4295C191.518 43.4525 192.558 44.1785 194.175 44.6075L199.867 46.043C204.124 47.099 207.325 48.782 209.47 51.092C211.648 53.369 212.737 56.735 212.737 61.19C212.737 61.784 212.737 62.4275 212.737 63.1205C212.737 63.7805 212.737 64.4075 212.737 65.0015C212.704 70.3145 211.5 74.2085 209.124 76.6835C206.781 79.1585 202.87 80.5445 197.392 80.8415ZM200.511 42.8255C200.544 42.0995 200.56 41.159 200.56 40.004C200.593 38.849 200.593 37.727 200.56 36.638C200.56 35.549 200.544 34.724 200.511 34.163C200.445 32.876 200.214 31.886 199.818 31.193C199.455 30.467 198.844 29.9555 197.986 29.6585V19.7585C203.002 20.0885 206.566 21.5075 208.678 24.0155C210.79 26.4905 211.962 30.3515 212.193 35.5985C212.226 36.3575 212.242 37.2155 212.242 38.1725C212.242 39.1295 212.226 40.037 212.193 40.895C212.193 41.753 212.16 42.3965 212.094 42.8255H200.511ZM219.625 93.068L225.12 80H218.091V67.229H233.584V78.812L226.308 93.068H219.625ZM18.4435 199.842C12.5365 199.545 8.329 197.993 5.821 195.188C3.346 192.35 2.0425 187.879 1.9105 181.774C1.8445 178.54 1.795 175.009 1.762 171.181C1.729 167.353 1.7125 163.426 1.7125 159.4C1.7125 155.374 1.729 151.447 1.762 147.619C1.795 143.758 1.8445 140.194 1.9105 136.927C2.0095 131.647 3.346 127.439 5.92 124.304C8.527 121.136 12.7015 119.371 18.4435 119.008V129.601C17.2225 129.931 16.2985 130.525 15.6715 131.383C15.0775 132.208 14.7475 133.297 14.6815 134.65C14.5495 138.478 14.4505 142.487 14.3845 146.678C14.3515 150.869 14.335 155.11 14.335 159.4C14.335 163.69 14.3515 167.93 14.3845 172.121C14.4505 176.279 14.5495 180.272 14.6815 184.1C14.7475 185.486 15.0775 186.608 15.6715 187.466C16.2985 188.324 17.2225 188.902 18.4435 189.199V199.842ZM23.1955 199.842V189.199C24.4495 188.869 25.39 188.275 26.017 187.417C26.677 186.559 27.0235 185.453 27.0565 184.1C27.0895 182.747 27.106 181.196 27.106 179.447C27.139 177.698 27.139 175.949 27.106 174.2C27.106 172.451 27.0895 170.917 27.0565 169.597H39.8275C39.8935 171.478 39.9265 173.507 39.9265 175.685C39.9265 177.83 39.8935 179.86 39.8275 181.774C39.6625 187.846 38.2765 192.301 35.6695 195.139C33.0955 197.944 28.9375 199.512 23.1955 199.842ZM26.5615 148.955C26.5945 147.602 26.6275 146.084 26.6605 144.401C26.6935 142.685 26.71 140.969 26.71 139.253C26.71 137.537 26.6935 136.003 26.6605 134.65C26.6275 133.33 26.314 132.257 25.72 131.432C25.159 130.574 24.3175 129.98 23.1955 129.65V118.958C28.7725 119.288 32.8315 120.872 35.3725 123.71C37.9135 126.515 39.2665 130.937 39.4315 136.976C39.4645 138.131 39.481 139.418 39.481 140.837C39.481 142.256 39.4645 143.692 39.4315 145.144C39.3985 146.563 39.3655 147.833 39.3325 148.955H26.5615ZM46.8147 181.774C46.7487 180.256 46.6827 178.424 46.6167 176.279C46.5837 174.101 46.5672 171.824 46.5672 169.448C46.5672 167.039 46.5837 164.729 46.6167 162.518C46.6497 160.274 46.7157 158.344 46.8147 156.727C47.1117 150.688 48.4317 146.266 50.7747 143.461C53.1177 140.656 57.1437 139.088 62.8527 138.758V148.658C61.7307 148.955 60.9057 149.516 60.3777 150.341C59.8827 151.166 59.6187 152.255 59.5857 153.608C59.5197 156.182 59.4537 158.789 59.3877 161.429C59.3547 164.036 59.3382 166.66 59.3382 169.3C59.3382 171.907 59.3547 174.53 59.3877 177.17C59.4537 179.777 59.5197 182.368 59.5857 184.942C59.6187 186.295 59.8827 187.384 60.3777 188.209C60.9057 189.034 61.7307 189.611 62.8527 189.941V199.842C57.1767 199.512 53.1507 197.944 50.7747 195.139C48.4317 192.334 47.1117 187.879 46.8147 181.774ZM67.6047 199.842V190.04C68.7597 189.71 69.5847 189.133 70.0797 188.308C70.6077 187.45 70.9047 186.328 70.9707 184.942C71.0367 182.335 71.0862 179.728 71.1192 177.121C71.1852 174.514 71.2182 171.89 71.2182 169.25C71.2182 166.61 71.1852 163.987 71.1192 161.38C71.0862 158.773 71.0367 156.182 70.9707 153.608C70.9047 152.189 70.6077 151.084 70.0797 150.292C69.5847 149.467 68.7597 148.889 67.6047 148.559V138.758C71.4657 138.956 74.5347 139.715 76.8117 141.035C79.0887 142.322 80.7552 144.269 81.8112 146.876C82.9002 149.45 83.5437 152.734 83.7417 156.727C83.8077 158.245 83.8572 160.093 83.8902 162.271C83.9232 164.449 83.9397 166.742 83.9397 169.151C83.9397 171.527 83.9232 173.821 83.8902 176.032C83.8572 178.243 83.8077 180.157 83.7417 181.774C83.5437 185.833 82.9002 189.166 81.8112 191.773C80.7552 194.347 79.0887 196.294 76.8117 197.614C74.5347 198.901 71.4657 199.644 67.6047 199.842ZM91.8342 199V139.6H104.605V199H91.8342ZM141.631 199L141.433 153.113C141.4 151.364 141.004 150.094 140.245 149.302C139.519 148.477 138.364 148.064 136.78 148.064C135.922 148.064 135.114 148.229 134.355 148.559V141.679C135.345 140.755 136.467 140.029 137.721 139.501C138.975 138.973 140.46 138.709 142.176 138.709C146.037 138.709 148.99 139.897 151.036 142.273C153.082 144.649 154.138 148.609 154.204 154.153L154.402 199H141.631ZM116.98 199L116.782 153.113C116.782 151.364 116.403 150.094 115.644 149.302C114.918 148.477 113.746 148.064 112.129 148.064C111.667 148.064 111.205 148.097 110.743 148.163C110.314 148.229 109.869 148.345 109.407 148.51V142.075C110.364 140.986 111.453 140.161 112.674 139.6C113.928 139.006 115.545 138.709 117.525 138.709C121.386 138.709 124.339 139.897 126.385 142.273C128.431 144.649 129.504 148.609 129.603 154.153L129.751 199H116.98ZM162.99 218.8V139.6H175.761V218.8H162.99ZM180.563 190.288C180.827 190.387 181.107 190.453 181.404 190.486C181.734 190.519 182.081 190.535 182.444 190.535C184.061 190.535 185.364 190.139 186.354 189.347C187.344 188.522 187.872 187.235 187.938 185.486C188.07 183.143 188.169 180.586 188.235 177.814C188.301 175.042 188.334 172.204 188.334 169.3C188.334 166.396 188.301 163.558 188.235 160.786C188.169 158.014 188.07 155.456 187.938 153.113C187.872 151.364 187.476 150.094 186.75 149.302C186.057 148.477 184.902 148.064 183.285 148.064C182.361 148.064 181.454 148.229 180.563 148.559V141.58C181.454 140.656 182.493 139.946 183.681 139.451C184.869 138.956 186.404 138.709 188.285 138.709C192.146 138.709 195.116 139.897 197.195 142.273C199.307 144.649 200.495 148.609 200.759 154.153C200.825 155.902 200.874 158.096 200.907 160.736C200.94 163.376 200.957 166.181 200.957 169.151C200.957 172.088 200.94 174.91 200.907 177.616C200.874 180.322 200.825 182.582 200.759 184.397C200.495 189.941 199.208 193.918 196.898 196.327C194.588 198.703 191.486 199.891 187.592 199.891C184.82 199.891 182.477 198.901 180.563 196.921V190.288ZM208.913 199V119.8H221.684V199H208.913ZM230.027 130.145V119.8H243.739V130.145H230.027ZM230.522 199V139.6H243.293V199H230.522ZM250.55 186.279C250.517 185.618 250.5 184.859 250.5 184.001C250.5 183.143 250.517 182.384 250.55 181.724C250.748 179.117 251.309 176.873 252.233 174.992C253.19 173.078 254.658 171.395 256.638 169.943C258.618 168.491 261.242 167.122 264.509 165.835C265.433 165.439 266.324 165.092 267.182 164.795C268.04 164.465 268.898 164.168 269.756 163.904V172.319C269.426 172.451 269.096 172.616 268.766 172.814C268.436 172.979 268.106 173.161 267.776 173.359C265.994 174.316 264.789 175.52 264.162 176.972C263.568 178.391 263.222 179.975 263.123 181.724C263.09 182.351 263.073 182.962 263.073 183.556C263.106 184.117 263.139 184.694 263.172 185.288C263.337 187.004 263.849 188.308 264.707 189.199C265.565 190.09 266.769 190.535 268.32 190.535C268.749 190.535 269.228 190.469 269.756 190.337V197.317C268.172 198.934 265.944 199.743 263.073 199.743C258.981 199.743 255.962 198.719 254.015 196.673C252.101 194.594 250.946 191.129 250.55 186.279ZM252.282 161.825C252.249 161.231 252.216 160.159 252.183 158.608C252.15 157.057 252.15 155.72 252.183 154.598C252.381 149.417 253.602 145.556 255.846 143.015C258.123 140.474 262.001 139.055 267.479 138.758V148.51C266.555 148.774 265.878 149.285 265.449 150.044C265.02 150.77 264.773 151.81 264.707 153.163C264.674 153.724 264.641 154.565 264.608 155.687C264.608 156.776 264.608 157.898 264.608 159.053C264.641 160.208 264.674 161.132 264.707 161.825H252.282ZM274.557 199V153.608C274.557 152.354 274.392 151.331 274.062 150.539C273.732 149.747 273.122 149.17 272.231 148.807V138.758C277.94 139.088 281.867 140.656 284.012 143.461C286.19 146.266 287.262 150.638 287.229 156.578L287.18 199H274.557ZM295.828 199V139.6H308.599V199H295.828ZM320.974 199V153.113C320.974 151.364 320.562 150.094 319.737 149.302C318.945 148.477 317.74 148.064 316.123 148.064C315.661 148.064 315.199 148.114 314.737 148.213C314.308 148.279 313.863 148.394 313.401 148.559V142.124C314.358 141.002 315.447 140.161 316.668 139.6C317.922 139.006 319.539 138.709 321.519 138.709C325.38 138.709 328.383 139.897 330.528 142.273C332.673 144.649 333.745 148.609 333.745 154.153V199H320.974ZM341.638 183.704C341.572 182.186 341.523 180.173 341.49 177.665C341.457 175.124 341.44 172.418 341.44 169.547C341.44 166.676 341.457 163.954 341.49 161.38C341.523 158.773 341.572 156.677 341.638 155.093C342.034 149.615 343.437 145.606 345.846 143.065C348.255 140.524 352.066 139.088 357.28 138.758V148.609C356.323 148.873 355.614 149.368 355.152 150.094C354.723 150.787 354.475 151.81 354.409 153.163C354.343 155.803 354.294 158.459 354.261 161.132C354.228 163.805 354.211 166.478 354.211 169.151C354.211 171.824 354.228 174.481 354.261 177.121C354.294 179.761 354.343 182.401 354.409 185.041C354.475 186.427 354.723 187.516 355.152 188.308C355.614 189.067 356.323 189.611 357.28 189.941V199.842C352 199.512 348.139 198.092 345.697 195.584C343.288 193.043 341.935 189.083 341.638 183.704ZM362.082 199.842V189.991C362.973 189.661 363.633 189.116 364.062 188.357C364.524 187.565 364.771 186.46 364.804 185.041C364.87 184.117 364.903 182.929 364.903 181.477C364.903 179.992 364.87 178.375 364.804 176.626H377.229C377.295 177.22 377.344 178.259 377.377 179.744C377.41 181.229 377.394 182.549 377.328 183.704C377.097 189.116 375.777 193.093 373.368 195.634C370.992 198.142 367.23 199.545 362.082 199.842ZM364.804 161.825C364.837 161.099 364.854 160.159 364.854 159.004C364.887 157.849 364.887 156.727 364.854 155.638C364.854 154.549 364.837 153.724 364.804 153.163C364.771 151.843 364.524 150.836 364.062 150.143C363.633 149.417 362.973 148.922 362.082 148.658V138.758C367.263 139.055 371.041 140.458 373.417 142.966C375.826 145.441 377.13 149.318 377.328 154.598C377.394 155.72 377.41 157.04 377.377 158.558C377.344 160.076 377.295 161.165 377.229 161.825H364.804ZM384.081 183.704C384.015 182.186 383.965 180.173 383.932 177.665C383.899 175.124 383.883 172.418 383.883 169.547C383.883 166.676 383.899 163.954 383.932 161.38C383.965 158.773 384.015 156.677 384.081 155.093C384.477 149.615 385.879 145.606 388.288 143.065C390.73 140.524 394.542 139.088 399.723 138.758V148.609C398.766 148.873 398.056 149.384 397.594 150.143C397.165 150.869 396.918 151.876 396.852 153.163C396.786 155.803 396.736 158.459 396.703 161.132C396.67 163.805 396.654 166.478 396.654 169.151C396.654 171.824 396.67 174.481 396.703 177.121C396.736 179.761 396.786 182.401 396.852 185.041C396.918 186.427 397.165 187.516 397.594 188.308C398.056 189.1 398.766 189.644 399.723 189.941V199.842C394.443 199.512 390.582 198.092 388.14 195.584C385.731 193.043 384.378 189.083 384.081 183.704ZM404.524 199.842V189.991C405.415 189.661 406.075 189.1 406.504 188.308C406.933 187.516 407.181 186.427 407.247 185.041C407.313 184.117 407.346 182.929 407.346 181.477C407.346 179.992 407.313 178.375 407.247 176.626H419.671C419.737 177.22 419.787 178.259 419.82 179.744C419.853 181.229 419.836 182.549 419.77 183.704C419.539 189.116 418.236 193.093 415.86 195.634C413.484 198.142 409.705 199.545 404.524 199.842ZM401.307 171.478V162.617H407.346C407.346 161.165 407.346 159.796 407.346 158.509C407.346 157.189 407.329 156.067 407.296 155.143C407.296 154.186 407.28 153.526 407.247 153.163C407.214 151.909 406.966 150.919 406.504 150.193C406.075 149.467 405.415 148.955 404.524 148.658V138.808C409.705 139.105 413.467 140.491 415.81 142.966C418.186 145.441 419.506 149.318 419.77 154.598C419.803 155.39 419.82 156.727 419.82 158.608C419.853 160.456 419.853 162.535 419.82 164.845C419.82 167.155 419.77 169.366 419.671 171.478H401.307ZM428.55 212.068L434.045 199H427.016V186.229H442.509V197.812L435.233 212.068H428.55ZM1.0195 305.279C0.9865 304.618 0.97 303.859 0.97 303.001C0.97 302.143 0.9865 301.384 1.0195 300.724C1.2175 298.117 1.7785 295.873 2.7025 293.992C3.6595 292.078 5.128 290.395 7.108 288.943C9.088 287.491 11.7115 286.122 14.9785 284.835C15.9025 284.439 16.7935 284.092 17.6515 283.795C18.5095 283.465 19.3675 283.168 20.2255 282.904V291.319C19.8955 291.451 19.5655 291.616 19.2355 291.814C18.9055 291.979 18.5755 292.161 18.2455 292.359C16.4635 293.316 15.259 294.52 14.632 295.972C14.038 297.391 13.6915 298.975 13.5925 300.724C13.5595 301.351 13.543 301.962 13.543 302.556C13.576 303.117 13.609 303.694 13.642 304.288C13.807 306.004 14.3185 307.308 15.1765 308.199C16.0345 309.09 17.239 309.535 18.79 309.535C19.219 309.535 19.6975 309.469 20.2255 309.337V316.317C18.6415 317.934 16.414 318.743 13.543 318.743C9.451 318.743 6.4315 317.719 4.4845 315.673C2.5705 313.594 1.4155 310.129 1.0195 305.279ZM2.752 280.825C2.719 280.231 2.686 279.159 2.653 277.608C2.62 276.057 2.62 274.72 2.653 273.598C2.851 268.417 4.072 264.556 6.316 262.015C8.593 259.474 12.4705 258.055 17.9485 257.758V267.51C17.0245 267.774 16.348 268.285 15.919 269.044C15.49 269.77 15.2425 270.81 15.1765 272.163C15.1435 272.724 15.1105 273.565 15.0775 274.687C15.0775 275.776 15.0775 276.898 15.0775 278.053C15.1105 279.208 15.1435 280.132 15.1765 280.825H2.752ZM25.027 318V272.608C25.027 271.354 24.862 270.331 24.532 269.539C24.202 268.747 23.5915 268.17 22.7005 267.807V257.758C28.4095 258.088 32.3365 259.656 34.4815 262.461C36.6595 265.266 37.732 269.638 37.699 275.578L37.6495 318H25.027ZM46.2981 318V258.6H59.0691V318H46.2981ZM71.4441 318V272.113C71.4441 270.364 71.0316 269.094 70.2066 268.302C69.4146 267.477 68.2101 267.064 66.5931 267.064C66.1311 267.064 65.6691 267.114 65.2071 267.213C64.7781 267.279 64.3326 267.394 63.8706 267.559V261.124C64.8276 260.002 65.9166 259.161 67.1376 258.6C68.3916 258.006 70.0086 257.709 71.9886 257.709C75.8496 257.709 78.8526 258.897 80.9976 261.273C83.1426 263.649 84.2151 267.609 84.2151 273.153V318H71.4441ZM92.108 303.397C92.042 301.549 91.9925 299.305 91.9595 296.665C91.9265 294.025 91.91 291.27 91.91 288.399C91.91 285.528 91.9265 282.756 91.9595 280.083C91.9925 277.41 92.042 275.1 92.108 273.153C92.372 267.609 93.56 263.649 95.672 261.273C97.784 258.897 100.754 257.709 104.582 257.709C106.43 257.709 107.948 257.956 109.136 258.451C110.357 258.946 111.413 259.656 112.304 260.58V267.51C111.38 267.213 110.473 267.064 109.582 267.064C107.998 267.064 106.843 267.477 106.117 268.302C105.391 269.094 104.978 270.364 104.879 272.113C104.747 275.38 104.648 278.977 104.582 282.904C104.549 286.798 104.549 290.643 104.582 294.438C104.648 298.233 104.747 301.582 104.879 304.486C104.978 306.235 105.391 307.522 106.117 308.347C106.843 309.139 107.998 309.535 109.582 309.535C110.473 309.535 111.38 309.387 112.304 309.09V315.97C111.347 316.894 110.258 317.604 109.037 318.099C107.816 318.627 106.282 318.891 104.434 318.891C100.573 318.891 97.619 317.703 95.573 315.327C93.527 312.918 92.372 308.941 92.108 303.397ZM117.106 318V238.8H129.877V318H117.106ZM175.284 318.842C169.575 318.512 165.483 316.944 163.008 314.139C160.566 311.301 159.213 306.829 158.949 300.724C158.916 299.437 158.9 298.101 158.9 296.715C158.9 295.329 158.933 293.959 158.999 292.606C159.065 291.22 159.164 289.867 159.296 288.547H171.324C171.192 291.088 171.11 293.613 171.077 296.121C171.077 298.596 171.159 300.906 171.324 303.051C171.456 304.437 171.836 305.559 172.463 306.417C173.09 307.275 174.03 307.869 175.284 308.199V318.842ZM180.086 318.842V308.199C181.208 307.836 182.049 307.242 182.61 306.417C183.204 305.559 183.567 304.437 183.699 303.051C183.831 301.731 183.914 300.477 183.947 299.289C184.013 298.101 184.013 296.896 183.947 295.675C183.914 294.454 183.831 293.167 183.699 291.814C183.6 290.164 183.188 288.712 182.462 287.458C181.769 286.204 180.597 285.363 178.947 284.934L171.572 283.053C168.371 282.228 165.846 281.04 163.998 279.489C162.15 277.905 160.814 275.925 159.989 273.549C159.197 271.173 158.751 268.368 158.652 265.134C158.619 263.517 158.603 261.966 158.603 260.481C158.603 258.963 158.619 257.461 158.652 255.976C158.883 249.871 160.236 245.433 162.711 242.661C165.219 239.856 169.41 238.288 175.284 237.958V248.601C174.063 248.931 173.156 249.508 172.562 250.333C171.968 251.158 171.588 252.264 171.423 253.65C171.258 255.564 171.176 257.478 171.176 259.392C171.176 261.306 171.258 263.22 171.423 265.134C171.588 266.85 172.017 268.302 172.71 269.49C173.436 270.678 174.69 271.486 176.472 271.915L182.957 273.45C186.356 274.275 189.029 275.512 190.976 277.162C192.923 278.779 194.309 280.809 195.134 283.251C195.992 285.693 196.47 288.547 196.569 291.814C196.602 292.903 196.619 293.943 196.619 294.933C196.619 295.89 196.602 296.847 196.569 297.804C196.569 298.728 196.536 299.701 196.47 300.724C196.239 306.796 194.87 311.251 192.362 314.089C189.887 316.927 185.795 318.512 180.086 318.842ZM183.749 267.955C183.848 265.579 183.914 263.203 183.947 260.827C183.98 258.418 183.947 256.026 183.848 253.65C183.815 252.297 183.468 251.208 182.808 250.383C182.148 249.558 181.224 248.98 180.036 248.65V237.958C185.547 238.288 189.557 239.872 192.065 242.71C194.573 245.515 195.942 249.937 196.173 255.976C196.239 257.494 196.256 259.359 196.223 261.57C196.19 263.781 196.124 265.909 196.025 267.955H183.749ZM203.193 302.704C203.127 301.186 203.077 299.173 203.044 296.665C203.011 294.124 202.995 291.418 202.995 288.547C202.995 285.676 203.011 282.954 203.044 280.38C203.077 277.773 203.127 275.677 203.193 274.093C203.589 268.615 204.991 264.606 207.4 262.065C209.842 259.524 213.654 258.088 218.835 257.758V267.609C217.878 267.873 217.168 268.384 216.706 269.143C216.277 269.869 216.03 270.876 215.964 272.163C215.898 274.803 215.848 277.459 215.815 280.132C215.782 282.805 215.766 285.478 215.766 288.151C215.766 290.824 215.782 293.481 215.815 296.121C215.848 298.761 215.898 301.401 215.964 304.041C216.03 305.427 216.277 306.516 216.706 307.308C217.168 308.1 217.878 308.644 218.835 308.941V318.842C213.555 318.512 209.694 317.092 207.252 314.584C204.843 312.043 203.49 308.083 203.193 302.704ZM223.636 318.842V308.991C224.527 308.661 225.187 308.1 225.616 307.308C226.045 306.516 226.293 305.427 226.359 304.041C226.425 303.117 226.458 301.929 226.458 300.477C226.458 298.992 226.425 297.375 226.359 295.626H238.783C238.849 296.22 238.899 297.259 238.932 298.744C238.965 300.229 238.948 301.549 238.882 302.704C238.651 308.116 237.348 312.093 234.972 314.634C232.596 317.142 228.817 318.545 223.636 318.842ZM220.419 290.478V281.617H226.458C226.458 280.165 226.458 278.796 226.458 277.509C226.458 276.189 226.441 275.067 226.408 274.143C226.408 273.186 226.392 272.526 226.359 272.163C226.326 270.909 226.078 269.919 225.616 269.193C225.187 268.467 224.527 267.955 223.636 267.658V257.808C228.817 258.105 232.579 259.491 234.922 261.966C237.298 264.441 238.618 268.318 238.882 273.598C238.915 274.39 238.932 275.727 238.932 277.608C238.965 279.456 238.965 281.535 238.932 283.845C238.932 286.155 238.882 288.366 238.783 290.478H220.419ZM245.732 302.704C245.666 301.186 245.617 299.173 245.584 296.665C245.551 294.124 245.534 291.418 245.534 288.547C245.534 285.676 245.551 282.954 245.584 280.38C245.617 277.773 245.666 275.677 245.732 274.093C246.128 268.615 247.531 264.606 249.94 262.065C252.349 259.524 256.16 258.088 261.374 257.758V267.609C260.417 267.873 259.708 268.368 259.246 269.094C258.817 269.787 258.569 270.81 258.503 272.163C258.437 274.803 258.388 277.459 258.355 280.132C258.322 282.805 258.305 285.478 258.305 288.151C258.305 290.824 258.322 293.481 258.355 296.121C258.388 298.761 258.437 301.401 258.503 304.041C258.569 305.427 258.817 306.516 259.246 307.308C259.708 308.067 260.417 308.611 261.374 308.941V318.842C256.094 318.512 252.233 317.092 249.791 314.584C247.382 312.043 246.029 308.083 245.732 302.704ZM266.176 318.842V308.991C267.067 308.661 267.727 308.116 268.156 307.357C268.618 306.565 268.865 305.46 268.898 304.041C268.964 303.117 268.997 301.929 268.997 300.477C268.997 298.992 268.964 297.375 268.898 295.626H281.323C281.389 296.22 281.438 297.259 281.471 298.744C281.504 300.229 281.488 301.549 281.422 302.704C281.191 308.116 279.871 312.093 277.462 314.634C275.086 317.142 271.324 318.545 266.176 318.842ZM268.898 280.825C268.931 280.099 268.948 279.159 268.948 278.004C268.981 276.849 268.981 275.727 268.948 274.638C268.948 273.549 268.931 272.724 268.898 272.163C268.865 270.843 268.618 269.836 268.156 269.143C267.727 268.417 267.067 267.922 266.176 267.658V257.758C271.357 258.055 275.135 259.458 277.511 261.966C279.92 264.441 281.224 268.318 281.422 273.598C281.488 274.72 281.504 276.04 281.471 277.558C281.438 279.076 281.389 280.165 281.323 280.825H268.898ZM287.976 303.397V258.6H300.747V304.486C300.747 306.235 301.127 307.522 301.886 308.347C302.678 309.139 303.866 309.535 305.45 309.535C306.308 309.535 307.215 309.37 308.172 309.04V315.921C306.159 317.901 303.602 318.891 300.5 318.891C296.672 318.891 293.619 317.703 291.342 315.327C289.098 312.918 287.976 308.941 287.976 303.397ZM312.924 318V258.6H325.745V318H312.924ZM334.5 318V258.6H347.271V318H334.5ZM352.073 269.044V259.936C353.294 258.814 355.076 258.253 357.419 258.253C358.211 258.253 358.97 258.286 359.696 258.352C360.455 258.418 361.032 258.468 361.428 258.501V268.302H357.617C355.34 268.302 353.492 268.549 352.073 269.044ZM367.216 249.145V238.8H380.927V249.145H367.216ZM367.711 318V258.6H380.482V318H367.711ZM385.709 268.302V258.6H390.956V241.77H403.727V304.09C403.727 306.037 404.123 307.407 404.915 308.199C405.707 308.991 407.39 309.387 409.964 309.387C410.756 309.387 411.498 309.37 412.191 309.337C412.917 309.304 413.726 309.271 414.617 309.238V318.396C413.924 318.594 413.181 318.726 412.389 318.792C411.597 318.858 410.772 318.891 409.914 318.891C403.116 318.891 398.249 317.637 395.312 315.129C392.408 312.621 390.956 308.479 390.956 302.704V268.302H385.709ZM408.281 268.302V258.6H413.627V268.302H408.281ZM427.314 318L416.919 258.6H429.888L433.304 285.973L435.234 308.545H447.609L446.124 318H427.314ZM425.483 338.691C424.427 338.691 423.288 338.625 422.067 338.493C420.846 338.394 419.691 338.246 418.602 338.048V328.544C419.46 328.577 420.582 328.626 421.968 328.692C423.354 328.758 424.526 328.791 425.483 328.791C427.958 328.791 429.806 328.412 431.027 327.653C432.281 326.927 432.809 325.673 432.611 323.891L432.759 322.703H445.332L445.184 323.891C445.118 327.455 444.342 330.309 442.857 332.454C441.405 334.632 439.227 336.216 436.323 337.206C433.452 338.196 429.839 338.691 425.483 338.691ZM438.204 303.744L439.491 285.973L442.214 258.6H455.183L448.352 303.744H438.204Z" fill="#F5EDFF"/>
</svg>
