<svg width="598" height="200" viewBox="0 0 598 200" fill="none" xmlns="http://www.w3.org/2000/svg">
<path d="M0.257 80V0.799999H13.0775V80H0.257ZM17.681 45.449V34.163H30.551V45.449H17.681ZM17.681 12.086V0.799999H31.541V12.086H17.681ZM35.9627 65.3975V20.6H48.7337V66.4865C48.7337 68.2355 49.1132 69.5225 49.8722 70.3475C50.6642 71.1395 51.8522 71.5355 53.4362 71.5355C54.2942 71.5355 55.2017 71.3705 56.1587 71.0405V77.921C54.1457 79.901 51.5882 80.891 48.4862 80.891C44.6582 80.891 41.6057 79.703 39.3287 77.327C37.0847 74.918 35.9627 70.9415 35.9627 65.3975ZM60.9107 80V20.6H73.7312V80H60.9107ZM82.4866 80V20.6H95.2576V80H82.4866ZM107.633 80V34.1135C107.633 32.3645 107.22 31.094 106.395 30.302C105.603 29.477 104.399 29.0645 102.782 29.0645C102.32 29.0645 101.858 29.114 101.396 29.213C100.967 29.279 100.521 29.3945 100.059 29.5595V23.1245C101.016 22.0025 102.105 21.161 103.326 20.6C104.58 20.006 106.197 19.709 108.177 19.709C112.038 19.709 115.041 20.897 117.186 23.273C119.331 25.649 120.404 29.609 120.404 35.153V80H107.633ZM128.296 65.3975C128.23 63.5495 128.181 61.3055 128.148 58.6655C128.115 56.0255 128.098 53.27 128.098 50.399C128.098 47.528 128.115 44.756 128.148 42.083C128.181 39.41 128.23 37.1 128.296 35.153C128.56 29.609 129.748 25.649 131.86 23.273C133.972 20.897 136.942 19.709 140.77 19.709C142.618 19.709 144.136 19.9565 145.324 20.4515C146.545 20.9465 147.601 21.656 148.492 22.58V29.51C147.568 29.213 146.661 29.0645 145.77 29.0645C144.186 29.0645 143.031 29.477 142.305 30.302C141.579 31.094 141.166 32.3645 141.067 34.1135C140.935 37.3805 140.836 40.9775 140.77 44.9045C140.737 48.7985 140.737 52.643 140.77 56.438C140.836 60.233 140.935 63.5825 141.067 66.4865C141.166 68.2355 141.579 69.5225 142.305 70.3475C143.031 71.1395 144.186 71.5355 145.77 71.5355C146.661 71.5355 147.568 71.387 148.492 71.09V77.9705C147.535 78.8945 146.446 79.604 145.225 80.099C144.004 80.627 142.47 80.891 140.622 80.891C136.761 80.891 133.807 79.703 131.761 77.327C129.715 74.918 128.56 70.9415 128.296 65.3975ZM153.294 80V0.799999H166.065V80H153.294ZM174.467 11.1455V0.799999H188.178V11.1455H174.467ZM174.962 80V20.6H187.733V80H174.962ZM196.375 80V20.6H209.146V80H196.375ZM221.521 80V34.1135C221.521 32.3645 221.109 31.094 220.284 30.302C219.492 29.477 218.287 29.0645 216.67 29.0645C216.208 29.0645 215.746 29.114 215.284 29.213C214.855 29.279 214.41 29.3945 213.948 29.5595V23.1245C214.905 22.0025 215.994 21.161 217.215 20.6C218.469 20.006 220.086 19.709 222.066 19.709C225.927 19.709 228.93 20.897 231.075 23.273C233.22 25.649 234.292 29.609 234.292 35.153V80H221.521ZM257.382 98.909C252.696 98.645 249.165 97.7705 246.789 96.2855C244.413 94.8335 242.994 92.969 242.532 90.692C242.433 90.131 242.35 89.57 242.284 89.009C242.251 88.448 242.284 87.8705 242.383 87.2765C242.581 85.6925 243.175 84.323 244.165 83.168C245.155 82.046 246.772 81.3035 249.016 80.9405V79.0595C244.99 78.4325 242.779 76.568 242.383 73.466C242.284 72.773 242.235 72.278 242.235 71.981C242.235 71.684 242.284 71.222 242.383 70.595C242.548 69.242 243.208 68.021 244.363 66.932C245.551 65.81 247.135 65.15 249.115 64.952V63.1205C246.607 61.9325 244.726 60.1505 243.472 57.7745C242.251 55.3985 241.525 52.313 241.294 48.518C241.228 47.264 241.179 46.1255 241.146 45.1025C241.113 44.0465 241.096 43.04 241.096 42.083C241.096 41.126 241.113 40.169 241.146 39.212C241.179 38.255 241.228 37.2155 241.294 36.0935C241.69 30.5825 243.142 26.5565 245.65 24.0155C248.158 21.4745 252.069 20.0555 257.382 19.7585V29.5595C256.194 29.8895 255.286 30.467 254.659 31.292C254.032 32.117 253.686 33.2225 253.62 34.6085C253.554 36.3905 253.504 38.1725 253.471 39.9545C253.471 41.7365 253.471 43.4855 253.471 45.2015C253.504 46.8845 253.554 48.485 253.62 50.003C253.686 51.389 254.032 52.4945 254.659 53.3195C255.286 54.1445 256.194 54.722 257.382 55.052V65.051C255.534 65.183 254.247 65.4965 253.521 65.9915C252.828 66.4535 252.481 67.097 252.481 67.922C252.481 67.988 252.481 68.054 252.481 68.12C252.481 68.186 252.481 68.252 252.481 68.318C252.481 69.143 252.828 69.77 253.521 70.199C254.214 70.595 255.501 70.892 257.382 71.09V80C255.897 80.231 254.692 80.627 253.768 81.188C252.844 81.749 252.283 82.541 252.085 83.564C251.92 84.059 251.838 84.5375 251.838 84.9995C251.838 85.4615 251.92 85.94 252.085 86.435C252.283 87.458 252.844 88.2335 253.768 88.7615C254.725 89.3225 255.93 89.7185 257.382 89.9495V98.909ZM262.183 98.9585V90.2465C264.592 90.1475 266.44 89.768 267.727 89.108C269.014 88.481 269.856 87.5075 270.252 86.1875C270.45 85.6925 270.532 85.1975 270.499 84.7025C270.499 84.2075 270.384 83.7125 270.153 83.2175C269.79 81.9635 268.965 81.0725 267.678 80.5445C266.424 80.0495 264.592 79.769 262.183 79.703V71.288C268.057 71.486 272.463 72.542 275.4 74.456C278.337 76.37 280.135 79.208 280.795 82.97C280.861 83.465 280.911 84.0755 280.944 84.8015C280.977 85.5605 280.927 86.3525 280.795 87.1775C280.168 91.4015 278.139 94.3715 274.707 96.0875C271.308 97.8365 267.133 98.7935 262.183 98.9585ZM262.183 64.9025V55.052C263.338 54.722 264.213 54.1445 264.807 53.3195C265.434 52.4945 265.78 51.389 265.846 50.003C265.912 48.485 265.945 46.8845 265.945 45.2015C265.978 43.4855 265.978 41.7365 265.945 39.9545C265.945 38.1725 265.912 36.3905 265.846 34.6085C265.78 33.2225 265.434 32.1335 264.807 31.3415C264.213 30.5165 263.338 29.939 262.183 29.609V19.7585C268.816 20.1545 273.304 22.316 275.647 26.243H277.38C277.611 24.329 278.304 22.9265 279.459 22.0355C280.647 21.1115 282.363 20.633 284.607 20.6V30.302H283.221C281.505 30.302 280.251 30.7475 279.459 31.6385C278.7 32.4965 278.32 33.9155 278.32 35.8955V38.6675C278.32 39.8555 278.32 40.961 278.32 41.984C278.353 43.007 278.353 44.0465 278.32 45.1025C278.32 46.1585 278.287 47.297 278.221 48.518C277.891 53.963 276.472 57.989 273.964 60.596C271.456 63.17 267.529 64.6055 262.183 64.9025ZM335.947 80L328.572 52.379H327.829V41.093H328.423C330.535 41.093 332.103 40.6145 333.126 39.6575C334.182 38.6675 334.759 37.232 334.858 35.351C334.957 33.503 335.023 31.589 335.056 29.609C335.089 27.596 335.089 25.5995 335.056 23.6195C335.023 21.6065 334.957 19.676 334.858 17.828C334.759 15.947 334.182 14.528 333.126 13.571C332.103 12.581 330.535 12.086 328.423 12.086H327.978V0.799999H328.423C335.089 0.799999 339.907 2.1695 342.877 4.9085C345.847 7.6475 347.431 12.1685 347.629 18.4715C347.728 20.5835 347.778 22.4975 347.778 24.2135C347.811 25.8965 347.811 27.5795 347.778 29.2625C347.778 30.9125 347.728 32.7275 347.629 34.7075C347.365 42.4295 344.923 47.528 340.303 50.003L349.263 80H335.947ZM310.405 80V0.799999H323.226V80H310.405ZM354.334 64.7045C354.268 63.1865 354.218 61.1735 354.185 58.6655C354.152 56.1245 354.136 53.4185 354.136 50.5475C354.136 47.6765 354.152 44.954 354.185 42.38C354.218 39.773 354.268 37.6775 354.334 36.0935C354.73 30.6155 356.132 26.606 358.541 24.065C360.983 21.524 364.795 20.0885 369.976 19.7585V29.609C369.019 29.873 368.309 30.3845 367.847 31.1435C367.418 31.8695 367.171 32.876 367.105 34.163C367.039 36.803 366.989 39.4595 366.956 42.1325C366.923 44.8055 366.907 47.4785 366.907 50.1515C366.907 52.8245 366.923 55.481 366.956 58.121C366.989 60.761 367.039 63.401 367.105 66.041C367.171 67.427 367.418 68.516 367.847 69.308C368.309 70.1 369.019 70.6445 369.976 70.9415V80.8415C364.696 80.5115 360.835 79.0925 358.393 76.5845C355.984 74.0435 354.631 70.0835 354.334 64.7045ZM374.777 80.8415V70.991C375.668 70.661 376.328 70.1 376.757 69.308C377.186 68.516 377.434 67.427 377.5 66.041C377.566 65.117 377.599 63.929 377.599 62.477C377.599 60.992 377.566 59.375 377.5 57.626H389.924C389.99 58.22 390.04 59.2595 390.073 60.7445C390.106 62.2295 390.089 63.5495 390.023 64.7045C389.792 70.1165 388.489 74.093 386.113 76.634C383.737 79.142 379.958 80.5445 374.777 80.8415ZM371.56 52.478V43.6175H377.599C377.599 42.1655 377.599 40.796 377.599 39.509C377.599 38.189 377.582 37.067 377.549 36.143C377.549 35.186 377.533 34.526 377.5 34.163C377.467 32.909 377.219 31.919 376.757 31.193C376.328 30.467 375.668 29.9555 374.777 29.6585V19.808C379.958 20.105 383.72 21.491 386.063 23.966C388.439 26.441 389.759 30.3185 390.023 35.5985C390.056 36.3905 390.073 37.727 390.073 39.608C390.106 41.456 390.106 43.535 390.073 45.845C390.073 48.155 390.023 50.366 389.924 52.478H371.56ZM396.873 65.3975C396.807 63.6815 396.757 61.5035 396.724 58.8635C396.691 56.2235 396.675 53.435 396.675 50.498C396.675 47.561 396.691 44.7395 396.724 42.0335C396.757 39.2945 396.807 37.001 396.873 35.153C397.137 29.609 398.325 25.649 400.437 23.273C402.549 20.897 405.519 19.709 409.347 19.709C411.195 19.709 412.713 19.9565 413.901 20.4515C415.122 20.9465 416.178 21.656 417.069 22.58V29.51C416.145 29.213 415.237 29.0645 414.346 29.0645C412.762 29.0645 411.607 29.477 410.881 30.302C410.155 31.094 409.743 32.3645 409.644 34.1135C409.512 37.4465 409.413 41.06 409.347 44.954C409.314 48.848 409.314 52.6925 409.347 56.4875C409.413 60.2495 409.512 63.5825 409.644 66.4865C409.743 68.2355 410.287 69.5225 411.277 70.3475C412.3 71.1395 413.604 71.5355 415.188 71.5355C415.518 71.5355 415.848 71.519 416.178 71.486C416.508 71.453 416.805 71.4035 417.069 71.3375V78.119C415.221 79.967 412.927 80.891 410.188 80.891C406.36 80.891 403.242 79.703 400.833 77.327C398.457 74.918 397.137 70.9415 396.873 65.3975ZM421.87 99.8V20.6H434.641V99.8H421.87ZM442.598 65.3975V20.6H455.369V66.4865C455.369 68.2355 455.748 69.5225 456.507 70.3475C457.299 71.1395 458.487 71.5355 460.071 71.5355C460.929 71.5355 461.837 71.3705 462.794 71.0405V77.921C460.781 79.901 458.223 80.891 455.121 80.891C451.293 80.891 448.241 79.703 445.964 77.327C443.72 74.918 442.598 70.9415 442.598 65.3975ZM467.546 80V20.6H480.366V80H467.546ZM488.428 64.7045C488.362 63.1865 488.313 61.1735 488.28 58.6655C488.247 56.1245 488.23 53.4185 488.23 50.5475C488.23 47.6765 488.247 44.954 488.28 42.38C488.313 39.773 488.362 37.6775 488.428 36.0935C488.824 30.6155 490.227 26.606 492.636 24.065C495.078 21.524 498.889 20.0885 504.07 19.7585V29.609C503.113 29.873 502.404 30.3845 501.942 31.1435C501.513 31.8695 501.265 32.876 501.199 34.163C501.133 36.803 501.084 39.4595 501.051 42.1325C501.018 44.8055 501.001 47.4785 501.001 50.1515C501.001 52.8245 501.018 55.481 501.051 58.121C501.084 60.761 501.133 63.401 501.199 66.041C501.265 67.427 501.513 68.516 501.942 69.308C502.404 70.1 503.113 70.6445 504.07 70.9415V80.8415C498.79 80.5115 494.929 79.0925 492.487 76.5845C490.078 74.0435 488.725 70.0835 488.428 64.7045ZM508.872 80.8415V70.991C509.763 70.661 510.423 70.1 510.852 69.308C511.281 68.516 511.528 67.427 511.594 66.041C511.66 65.117 511.693 63.929 511.693 62.477C511.693 60.992 511.66 59.375 511.594 57.626H524.019C524.085 58.22 524.134 59.2595 524.167 60.7445C524.2 62.2295 524.184 63.5495 524.118 64.7045C523.887 70.1165 522.583 74.093 520.207 76.634C517.831 79.142 514.053 80.5445 508.872 80.8415ZM505.654 52.478V43.6175H511.693C511.693 42.1655 511.693 40.796 511.693 39.509C511.693 38.189 511.677 37.067 511.644 36.143C511.644 35.186 511.627 34.526 511.594 34.163C511.561 32.909 511.314 31.919 510.852 31.193C510.423 30.467 509.763 29.9555 508.872 29.6585V19.808C514.053 20.105 517.815 21.491 520.158 23.966C522.534 26.441 523.854 30.3185 524.118 35.5985C524.151 36.3905 524.167 37.727 524.167 39.608C524.2 41.456 524.2 43.535 524.167 45.845C524.167 48.155 524.118 50.366 524.019 52.478H505.654ZM530.472 64.7045C530.439 63.5495 530.423 62.2295 530.423 60.7445C530.456 59.2595 530.505 58.22 530.571 57.626H541.758C541.692 59.375 541.659 60.992 541.659 62.477C541.659 63.929 541.676 65.117 541.709 66.041C541.775 67.46 542.055 68.549 542.55 69.308C543.045 70.067 543.771 70.6115 544.728 70.9415V80.8415C539.778 80.5115 536.214 79.0925 534.036 76.5845C531.858 74.0435 530.67 70.0835 530.472 64.7045ZM549.53 80.8415V71.09C550.751 70.826 551.642 70.298 552.203 69.506C552.764 68.681 553.061 67.526 553.094 66.041C553.094 65.15 553.094 64.5725 553.094 64.3085C553.094 64.0115 553.094 63.731 553.094 63.467C553.094 63.203 553.094 62.675 553.094 61.883C553.094 60.497 552.846 59.3915 552.351 58.5665C551.856 57.7085 550.965 57.0815 549.678 56.6855L543.243 54.854C540.438 53.996 538.062 52.9565 536.115 51.7355C534.168 50.4815 532.683 48.881 531.66 46.934C530.67 44.987 530.159 42.5615 530.126 39.6575C530.126 39.0305 530.126 38.4365 530.126 37.8755C530.126 37.3145 530.126 36.737 530.126 36.143C530.159 30.665 531.314 26.639 533.591 24.065C535.868 21.491 539.795 20.0555 545.372 19.7585V29.5595C544.382 29.8235 543.672 30.3185 543.243 31.0445C542.847 31.7705 542.633 32.81 542.6 34.163C542.567 34.988 542.534 35.6315 542.501 36.0935C542.501 36.5555 542.501 37.3805 542.501 38.5685C542.501 40.0865 542.732 41.3735 543.194 42.4295C543.656 43.4525 544.695 44.1785 546.312 44.6075L552.005 46.043C556.262 47.099 559.463 48.782 561.608 51.092C563.786 53.369 564.875 56.735 564.875 61.19C564.875 61.784 564.875 62.4275 564.875 63.1205C564.875 63.7805 564.875 64.4075 564.875 65.0015C564.842 70.3145 563.637 74.2085 561.261 76.6835C558.918 79.1585 555.008 80.5445 549.53 80.8415ZM552.648 42.8255C552.681 42.0995 552.698 41.159 552.698 40.004C552.731 38.849 552.731 37.727 552.698 36.638C552.698 35.549 552.681 34.724 552.648 34.163C552.582 32.876 552.351 31.886 551.955 31.193C551.592 30.467 550.982 29.9555 550.124 29.6585V19.7585C555.14 20.0885 558.704 21.5075 560.816 24.0155C562.928 26.4905 564.099 30.3515 564.33 35.5985C564.363 36.3575 564.38 37.2155 564.38 38.1725C564.38 39.1295 564.363 40.037 564.33 40.895C564.33 41.753 564.297 42.3965 564.231 42.8255H552.648ZM568.657 30.302V20.6H573.904V3.77H586.675V66.0905C586.675 68.0375 587.071 69.407 587.863 70.199C588.655 70.991 590.338 71.387 592.912 71.387C593.704 71.387 594.446 71.3705 595.139 71.3375C595.865 71.3045 596.674 71.2715 597.565 71.2385V80.396C596.872 80.594 596.129 80.726 595.337 80.792C594.545 80.858 593.72 80.891 592.862 80.891C586.064 80.891 581.197 79.637 578.26 77.129C575.356 74.621 573.904 70.4795 573.904 64.7045V30.302H568.657ZM591.229 30.302V20.6H596.575V30.302H591.229ZM0.257 199V119.8H13.0775V199H0.257ZM17.8295 199V187.714H18.473C20.618 187.714 22.2185 187.219 23.2745 186.229C24.3635 185.239 24.9245 183.803 24.9575 181.922C25.0565 178.127 25.1225 174.365 25.1555 170.636C25.2215 166.874 25.2545 163.112 25.2545 159.35C25.2545 155.588 25.2215 151.826 25.1555 148.064C25.1225 144.302 25.0565 140.557 24.9575 136.828C24.9245 134.947 24.3635 133.528 23.2745 132.571C22.2185 131.581 20.6345 131.086 18.5225 131.086H17.8295V119.8H18.5225C25.2215 119.8 30.0725 121.235 33.0755 124.106C36.0785 126.977 37.6295 131.713 37.7285 138.313C37.8275 143.329 37.8935 148.097 37.9265 152.618C37.9595 157.106 37.9595 161.611 37.9265 166.132C37.8935 170.62 37.8275 175.372 37.7285 180.388C37.6295 187.021 36.0785 191.789 33.0755 194.693C30.0725 197.564 25.205 199 18.473 199H17.8295ZM45.3453 183.704C45.2793 182.186 45.2298 180.173 45.1968 177.665C45.1638 175.124 45.1473 172.418 45.1473 169.547C45.1473 166.676 45.1638 163.954 45.1968 161.38C45.2298 158.773 45.2793 156.677 45.3453 155.093C45.7413 149.615 47.1438 145.606 49.5528 143.065C51.9948 140.524 55.8063 139.088 60.9873 138.758V148.609C60.0303 148.873 59.3208 149.384 58.8588 150.143C58.4298 150.869 58.1823 151.876 58.1163 153.163C58.0503 155.803 58.0008 158.459 57.9678 161.132C57.9348 163.805 57.9183 166.478 57.9183 169.151C57.9183 171.824 57.9348 174.481 57.9678 177.121C58.0008 179.761 58.0503 182.401 58.1163 185.041C58.1823 186.427 58.4298 187.516 58.8588 188.308C59.3208 189.1 60.0303 189.644 60.9873 189.941V199.842C55.7073 199.512 51.8463 198.092 49.4043 195.584C46.9953 193.043 45.6423 189.083 45.3453 183.704ZM65.7888 199.842V189.991C66.6798 189.661 67.3398 189.1 67.7688 188.308C68.1978 187.516 68.4453 186.427 68.5113 185.041C68.5773 184.117 68.6103 182.929 68.6103 181.477C68.6103 179.992 68.5773 178.375 68.5113 176.626H80.9358C81.0018 177.22 81.0513 178.259 81.0843 179.744C81.1173 181.229 81.1008 182.549 81.0348 183.704C80.8038 189.116 79.5003 193.093 77.1243 195.634C74.7483 198.142 70.9698 199.545 65.7888 199.842ZM62.5713 171.478V162.617H68.6103C68.6103 161.165 68.6103 159.796 68.6103 158.509C68.6103 157.189 68.5938 156.067 68.5608 155.143C68.5608 154.186 68.5443 153.526 68.5113 153.163C68.4783 151.909 68.2308 150.919 67.7688 150.193C67.3398 149.467 66.6798 148.955 65.7888 148.658V138.808C70.9698 139.105 74.7318 140.491 77.0748 142.966C79.4508 145.441 80.7708 149.318 81.0348 154.598C81.0678 155.39 81.0843 156.727 81.0843 158.608C81.1173 160.456 81.1173 162.535 81.0843 164.845C81.0843 167.155 81.0348 169.366 80.9358 171.478H62.5713ZM85.1619 149.302V139.6H90.4089V122.77H103.18V185.09C103.18 187.037 103.576 188.407 104.368 189.199C105.16 189.991 106.843 190.387 109.417 190.387C110.209 190.387 110.951 190.37 111.644 190.337C112.37 190.304 113.179 190.271 114.07 190.238V199.396C113.377 199.594 112.634 199.726 111.842 199.792C111.05 199.858 110.225 199.891 109.367 199.891C102.569 199.891 97.7019 198.637 94.7649 196.129C91.8609 193.621 90.4089 189.479 90.4089 183.704V149.302H85.1619ZM107.734 149.302V139.6H113.08V149.302H107.734ZM118.032 186.279C117.999 185.618 117.983 184.859 117.983 184.001C117.983 183.143 117.999 182.384 118.032 181.724C118.23 179.117 118.791 176.873 119.715 174.992C120.672 173.078 122.141 171.395 124.121 169.943C126.101 168.491 128.724 167.122 131.991 165.835C132.915 165.439 133.806 165.092 134.664 164.795C135.522 164.465 136.38 164.168 137.238 163.904V172.319C136.908 172.451 136.578 172.616 136.248 172.814C135.918 172.979 135.588 173.161 135.258 173.359C133.476 174.316 132.272 175.52 131.645 176.972C131.051 178.391 130.704 179.975 130.605 181.724C130.572 182.351 130.556 182.962 130.556 183.556C130.589 184.117 130.622 184.694 130.655 185.288C130.82 187.004 131.331 188.308 132.189 189.199C133.047 190.09 134.252 190.535 135.803 190.535C136.232 190.535 136.71 190.469 137.238 190.337V197.317C135.654 198.934 133.427 199.743 130.556 199.743C126.464 199.743 123.444 198.719 121.497 196.673C119.583 194.594 118.428 191.129 118.032 186.279ZM119.765 161.825C119.732 161.231 119.699 160.159 119.666 158.608C119.633 157.057 119.633 155.72 119.666 154.598C119.864 149.417 121.085 145.556 123.329 143.015C125.606 140.474 129.483 139.055 134.961 138.758V148.51C134.037 148.774 133.361 149.285 132.932 150.044C132.503 150.77 132.255 151.81 132.189 153.163C132.156 153.724 132.123 154.565 132.09 155.687C132.09 156.776 132.09 157.898 132.09 159.053C132.123 160.208 132.156 161.132 132.189 161.825H119.765ZM142.04 199V153.608C142.04 152.354 141.875 151.331 141.545 150.539C141.215 149.747 140.604 149.17 139.713 148.807V138.758C145.422 139.088 149.349 140.656 151.494 143.461C153.672 146.266 154.745 150.638 154.712 156.578L154.662 199H142.04ZM162.865 130.145V119.8H176.577V130.145H162.865ZM163.36 199V139.6H176.131V199H163.36ZM184.774 199V119.8H197.545V199H184.774ZM205.145 183.704C205.112 182.549 205.096 181.229 205.096 179.744C205.129 178.259 205.178 177.22 205.244 176.626H216.431C216.365 178.375 216.332 179.992 216.332 181.477C216.332 182.929 216.349 184.117 216.382 185.041C216.448 186.46 216.728 187.549 217.223 188.308C217.718 189.067 218.444 189.611 219.401 189.941V199.842C214.451 199.512 210.887 198.092 208.709 195.584C206.531 193.043 205.343 189.083 205.145 183.704ZM224.203 199.842V190.09C225.424 189.826 226.315 189.298 226.876 188.506C227.437 187.681 227.734 186.526 227.767 185.041C227.767 184.15 227.767 183.572 227.767 183.308C227.767 183.011 227.767 182.731 227.767 182.467C227.767 182.203 227.767 181.675 227.767 180.883C227.767 179.497 227.519 178.391 227.024 177.566C226.529 176.708 225.638 176.081 224.351 175.685L217.916 173.854C215.111 172.996 212.735 171.956 210.788 170.735C208.841 169.481 207.356 167.881 206.333 165.934C205.343 163.987 204.832 161.561 204.799 158.657C204.799 158.03 204.799 157.436 204.799 156.875C204.799 156.314 204.799 155.737 204.799 155.143C204.832 149.665 205.987 145.639 208.264 143.065C210.541 140.491 214.468 139.055 220.045 138.758V148.559C219.055 148.823 218.345 149.318 217.916 150.044C217.52 150.77 217.306 151.81 217.273 153.163C217.24 153.988 217.207 154.631 217.174 155.093C217.174 155.555 217.174 156.38 217.174 157.568C217.174 159.086 217.405 160.373 217.867 161.429C218.329 162.452 219.368 163.178 220.985 163.607L226.678 165.043C230.935 166.099 234.136 167.782 236.281 170.092C238.459 172.369 239.548 175.735 239.548 180.19C239.548 180.784 239.548 181.427 239.548 182.12C239.548 182.78 239.548 183.407 239.548 184.001C239.515 189.314 238.31 193.208 235.934 195.683C233.591 198.158 229.681 199.545 224.203 199.842ZM227.321 161.825C227.354 161.099 227.371 160.159 227.371 159.004C227.404 157.849 227.404 156.727 227.371 155.638C227.371 154.549 227.354 153.724 227.321 153.163C227.255 151.876 227.024 150.886 226.628 150.193C226.265 149.467 225.655 148.955 224.797 148.658V138.758C229.813 139.088 233.377 140.507 235.489 143.015C237.601 145.49 238.772 149.351 239.003 154.598C239.036 155.357 239.053 156.215 239.053 157.172C239.053 158.129 239.036 159.037 239.003 159.895C239.003 160.753 238.97 161.396 238.904 161.825H227.321Z" fill="#F5EDFF"/>
</svg>
