<svg width="536" height="220" viewBox="0 0 536 220" fill="none" xmlns="http://www.w3.org/2000/svg">
<path d="M0.257 81V1.8H13.0775V81H0.257ZM17.681 46.449V35.163H30.551V46.449H17.681ZM17.681 13.086V1.8H31.541V13.086H17.681ZM35.9627 66.3975V21.6H48.7337V67.4865C48.7337 69.2355 49.1132 70.5225 49.8722 71.3475C50.6642 72.1395 51.8522 72.5355 53.4362 72.5355C54.2942 72.5355 55.2017 72.3705 56.1587 72.0405V78.921C54.1457 80.901 51.5882 81.891 48.4862 81.891C44.6582 81.891 41.6057 80.703 39.3287 78.327C37.0847 75.918 35.9627 71.9415 35.9627 66.3975ZM60.9107 81V21.6H73.7312V81H60.9107ZM82.4866 81V21.6H95.2576V81H82.4866ZM107.633 81V35.1135C107.633 33.3645 107.22 32.094 106.395 31.302C105.603 30.477 104.399 30.0645 102.782 30.0645C102.32 30.0645 101.858 30.114 101.396 30.213C100.967 30.279 100.521 30.3945 100.059 30.5595V24.1245C101.016 23.0025 102.105 22.161 103.326 21.6C104.58 21.006 106.197 20.709 108.177 20.709C112.038 20.709 115.041 21.897 117.186 24.273C119.331 26.649 120.404 30.609 120.404 36.153V81H107.633ZM128.296 66.3975C128.23 64.5495 128.181 62.3055 128.148 59.6655C128.115 57.0255 128.098 54.27 128.098 51.399C128.098 48.528 128.115 45.756 128.148 43.083C128.181 40.41 128.23 38.1 128.296 36.153C128.56 30.609 129.748 26.649 131.86 24.273C133.972 21.897 136.942 20.709 140.77 20.709C142.618 20.709 144.136 20.9565 145.324 21.4515C146.545 21.9465 147.601 22.656 148.492 23.58V30.51C147.568 30.213 146.661 30.0645 145.77 30.0645C144.186 30.0645 143.031 30.477 142.305 31.302C141.579 32.094 141.166 33.3645 141.067 35.1135C140.935 38.3805 140.836 41.9775 140.77 45.9045C140.737 49.7985 140.737 53.643 140.77 57.438C140.836 61.233 140.935 64.5825 141.067 67.4865C141.166 69.2355 141.579 70.5225 142.305 71.3475C143.031 72.1395 144.186 72.5355 145.77 72.5355C146.661 72.5355 147.568 72.387 148.492 72.09V78.9705C147.535 79.8945 146.446 80.604 145.225 81.099C144.004 81.627 142.47 81.891 140.622 81.891C136.761 81.891 133.807 80.703 131.761 78.327C129.715 75.918 128.56 71.9415 128.296 66.3975ZM153.294 81V1.8H166.065V81H153.294ZM174.467 12.1455V1.8H188.178V12.1455H174.467ZM174.962 81V21.6H187.733V81H174.962ZM196.375 81V21.6H209.146V81H196.375ZM221.521 81V35.1135C221.521 33.3645 221.109 32.094 220.284 31.302C219.492 30.477 218.287 30.0645 216.67 30.0645C216.208 30.0645 215.746 30.114 215.284 30.213C214.855 30.279 214.41 30.3945 213.948 30.5595V24.1245C214.905 23.0025 215.994 22.161 217.215 21.6C218.469 21.006 220.086 20.709 222.066 20.709C225.927 20.709 228.93 21.897 231.075 24.273C233.22 26.649 234.292 30.609 234.292 36.153V81H221.521ZM257.382 99.909C252.696 99.645 249.165 98.7705 246.789 97.2855C244.413 95.8335 242.994 93.969 242.532 91.692C242.433 91.131 242.35 90.57 242.284 90.009C242.251 89.448 242.284 88.8705 242.383 88.2765C242.581 86.6925 243.175 85.323 244.165 84.168C245.155 83.046 246.772 82.3035 249.016 81.9405V80.0595C244.99 79.4325 242.779 77.568 242.383 74.466C242.284 73.773 242.235 73.278 242.235 72.981C242.235 72.684 242.284 72.222 242.383 71.595C242.548 70.242 243.208 69.021 244.363 67.932C245.551 66.81 247.135 66.15 249.115 65.952V64.1205C246.607 62.9325 244.726 61.1505 243.472 58.7745C242.251 56.3985 241.525 53.313 241.294 49.518C241.228 48.264 241.179 47.1255 241.146 46.1025C241.113 45.0465 241.096 44.04 241.096 43.083C241.096 42.126 241.113 41.169 241.146 40.212C241.179 39.255 241.228 38.2155 241.294 37.0935C241.69 31.5825 243.142 27.5565 245.65 25.0155C248.158 22.4745 252.069 21.0555 257.382 20.7585V30.5595C256.194 30.8895 255.286 31.467 254.659 32.292C254.032 33.117 253.686 34.2225 253.62 35.6085C253.554 37.3905 253.504 39.1725 253.471 40.9545C253.471 42.7365 253.471 44.4855 253.471 46.2015C253.504 47.8845 253.554 49.485 253.62 51.003C253.686 52.389 254.032 53.4945 254.659 54.3195C255.286 55.1445 256.194 55.722 257.382 56.052V66.051C255.534 66.183 254.247 66.4965 253.521 66.9915C252.828 67.4535 252.481 68.097 252.481 68.922C252.481 68.988 252.481 69.054 252.481 69.12C252.481 69.186 252.481 69.252 252.481 69.318C252.481 70.143 252.828 70.77 253.521 71.199C254.214 71.595 255.501 71.892 257.382 72.09V81C255.897 81.231 254.692 81.627 253.768 82.188C252.844 82.749 252.283 83.541 252.085 84.564C251.92 85.059 251.838 85.5375 251.838 85.9995C251.838 86.4615 251.92 86.94 252.085 87.435C252.283 88.458 252.844 89.2335 253.768 89.7615C254.725 90.3225 255.93 90.7185 257.382 90.9495V99.909ZM262.183 99.9585V91.2465C264.592 91.1475 266.44 90.768 267.727 90.108C269.014 89.481 269.856 88.5075 270.252 87.1875C270.45 86.6925 270.532 86.1975 270.499 85.7025C270.499 85.2075 270.384 84.7125 270.153 84.2175C269.79 82.9635 268.965 82.0725 267.678 81.5445C266.424 81.0495 264.592 80.769 262.183 80.703V72.288C268.057 72.486 272.463 73.542 275.4 75.456C278.337 77.37 280.135 80.208 280.795 83.97C280.861 84.465 280.911 85.0755 280.944 85.8015C280.977 86.5605 280.927 87.3525 280.795 88.1775C280.168 92.4015 278.139 95.3715 274.707 97.0875C271.308 98.8365 267.133 99.7935 262.183 99.9585ZM262.183 65.9025V56.052C263.338 55.722 264.213 55.1445 264.807 54.3195C265.434 53.4945 265.78 52.389 265.846 51.003C265.912 49.485 265.945 47.8845 265.945 46.2015C265.978 44.4855 265.978 42.7365 265.945 40.9545C265.945 39.1725 265.912 37.3905 265.846 35.6085C265.78 34.2225 265.434 33.1335 264.807 32.3415C264.213 31.5165 263.338 30.939 262.183 30.609V20.7585C268.816 21.1545 273.304 23.316 275.647 27.243H277.38C277.611 25.329 278.304 23.9265 279.459 23.0355C280.647 22.1115 282.363 21.633 284.607 21.6V31.302H283.221C281.505 31.302 280.251 31.7475 279.459 32.6385C278.7 33.4965 278.32 34.9155 278.32 36.8955V39.6675C278.32 40.8555 278.32 41.961 278.32 42.984C278.353 44.007 278.353 45.0465 278.32 46.1025C278.32 47.1585 278.287 48.297 278.221 49.518C277.891 54.963 276.472 58.989 273.964 61.596C271.456 64.17 267.529 65.6055 262.183 65.9025ZM304.66 31.302V21.6H310.798V16.9965C310.798 11.2215 312.283 7.08 315.253 4.572C318.256 2.064 322.86 0.809994 329.064 0.809994C330.153 0.809994 331.291 0.875995 332.479 1.008C333.7 1.14 334.855 1.28849 335.944 1.45349V10.809C334.855 10.776 333.733 10.7595 332.578 10.7595C331.423 10.7595 330.268 10.7595 329.113 10.7595C327.298 10.7595 325.912 11.1885 324.955 12.0465C324.031 12.9045 323.569 14.2245 323.569 16.0065L323.619 81H310.848L310.798 31.302H304.66ZM328.222 31.302V21.6H333.717V31.302H328.222ZM337.948 63.774C337.882 62.256 337.816 60.4245 337.75 58.2795C337.717 56.1015 337.7 53.8245 337.7 51.4485C337.7 49.0395 337.717 46.7295 337.75 44.5185C337.783 42.2745 337.849 40.344 337.948 38.727C338.245 32.688 339.565 28.266 341.908 25.461C344.251 22.656 348.277 21.0885 353.986 20.7585V30.6585C352.864 30.9555 352.039 31.5165 351.511 32.3415C351.016 33.1665 350.752 34.2555 350.719 35.6085C350.653 38.1825 350.587 40.7895 350.521 43.4295C350.488 46.0365 350.471 48.66 350.471 51.3C350.471 53.907 350.488 56.5305 350.521 59.1705C350.587 61.7775 350.653 64.368 350.719 66.942C350.752 68.295 351.016 69.384 351.511 70.209C352.039 71.034 352.864 71.6115 353.986 71.9415V81.8415C348.31 81.5115 344.284 79.944 341.908 77.139C339.565 74.334 338.245 69.879 337.948 63.774ZM358.738 81.8415V72.0405C359.893 71.7105 360.718 71.133 361.213 70.308C361.741 69.45 362.038 68.328 362.104 66.942C362.17 64.335 362.219 61.728 362.252 59.121C362.318 56.514 362.351 53.8905 362.351 51.2505C362.351 48.6105 362.318 45.987 362.252 43.38C362.219 40.773 362.17 38.1825 362.104 35.6085C362.038 34.1895 361.741 33.084 361.213 32.292C360.718 31.467 359.893 30.8895 358.738 30.5595V20.7585C362.599 20.9565 365.668 21.7155 367.945 23.0355C370.222 24.3225 371.888 26.2695 372.944 28.8765C374.033 31.4505 374.677 34.734 374.875 38.727C374.941 40.245 374.99 42.093 375.023 44.271C375.056 46.449 375.073 48.7425 375.073 51.1515C375.073 53.5275 375.056 55.821 375.023 58.032C374.99 60.243 374.941 62.157 374.875 63.774C374.677 67.833 374.033 71.166 372.944 73.773C371.888 76.347 370.222 78.294 367.945 79.614C365.668 80.901 362.599 81.6435 358.738 81.8415ZM382.967 81V21.6H395.738V81H382.967ZM400.54 32.0445V22.9365C401.761 21.8145 403.543 21.2535 405.886 21.2535C406.678 21.2535 407.437 21.2865 408.163 21.3525C408.922 21.4185 409.499 21.468 409.895 21.501V31.302H406.084C403.807 31.302 401.959 31.5495 400.54 32.0445ZM428.962 81L439.307 1.8H460.939L462.325 13.086H448.811L447.425 35.8065L445.445 51.5475H451.979L448.96 62.8335H444.703L442.079 81H428.962ZM457.969 81L452.87 35.7075L452.029 17.541H462.622L471.086 81H457.969ZM476.746 81V21.6H489.517V81H476.746ZM494.319 32.0445V22.9365C495.54 21.8145 497.322 21.2535 499.665 21.2535C500.457 21.2535 501.216 21.2865 501.942 21.3525C502.701 21.4185 503.278 21.468 503.674 21.501V31.302H499.863C497.586 31.302 495.738 31.5495 494.319 32.0445ZM506.492 31.302V21.6H511.739V4.77H524.51V67.0905C524.51 69.0375 524.906 70.407 525.698 71.199C526.49 71.991 528.173 72.387 530.747 72.387C531.539 72.387 532.281 72.3705 532.974 72.3375C533.7 72.3045 534.509 72.2715 535.4 72.2385V81.396C534.707 81.594 533.964 81.726 533.172 81.792C532.38 81.858 531.555 81.891 530.697 81.891C523.899 81.891 519.032 80.637 516.095 78.129C513.191 75.621 511.739 71.4795 511.739 65.7045V31.302H506.492ZM529.064 31.302V21.6H534.41V31.302H529.064ZM0.257 200V120.8H13.0775V200H0.257ZM17.78 200V188.714H31.541V200H17.78ZM17.78 165.449V154.163H30.551V165.449H17.78ZM17.78 132.086V120.8H31.541V132.086H17.78ZM58.8983 200L55.2353 185.001L54.1463 172.923H45.5828L34.7918 140.6H47.1173L50.5823 153.024L51.7208 163.617H60.0368L71.2733 200H58.8983ZM34.5938 200L41.9693 177.725H51.1763L50.6813 185.001L46.9193 200H34.5938ZM54.7898 158.865L55.3343 153.024L58.7003 140.6H71.0753L64.0463 158.865H54.7898ZM76.4924 219.8V140.6H89.2634V219.8H76.4924ZM94.0649 191.288C94.3289 191.387 94.6094 191.453 94.9064 191.486C95.2364 191.519 95.5829 191.535 95.9459 191.535C97.5629 191.535 98.8664 191.139 99.8564 190.347C100.846 189.522 101.374 188.235 101.44 186.486C101.572 184.143 101.671 181.586 101.737 178.814C101.803 176.042 101.836 173.204 101.836 170.3C101.836 167.396 101.803 164.558 101.737 161.786C101.671 159.014 101.572 156.456 101.44 154.113C101.374 152.364 100.978 151.094 100.252 150.302C99.5594 149.477 98.4044 149.064 96.7874 149.064C95.8634 149.064 94.9559 149.229 94.0649 149.559V142.58C94.9559 141.656 95.9954 140.946 97.1834 140.451C98.3714 139.956 99.9059 139.709 101.787 139.709C105.648 139.709 108.618 140.897 110.697 143.273C112.809 145.649 113.997 149.609 114.261 155.153C114.327 156.902 114.376 159.096 114.409 161.736C114.442 164.376 114.459 167.181 114.459 170.151C114.459 173.088 114.442 175.91 114.409 178.616C114.376 181.322 114.327 183.582 114.261 185.397C113.997 190.941 112.71 194.918 110.4 197.327C108.09 199.703 104.988 200.891 101.094 200.891C98.3219 200.891 95.9789 199.901 94.0649 197.921V191.288ZM121.722 184.704C121.656 183.186 121.607 181.173 121.574 178.665C121.541 176.124 121.524 173.418 121.524 170.547C121.524 167.676 121.541 164.954 121.574 162.38C121.607 159.773 121.656 157.677 121.722 156.093C122.118 150.615 123.521 146.606 125.93 144.065C128.372 141.524 132.183 140.088 137.364 139.758V149.609C136.407 149.873 135.698 150.384 135.236 151.143C134.807 151.869 134.559 152.876 134.493 154.163C134.427 156.803 134.378 159.459 134.345 162.132C134.312 164.805 134.295 167.478 134.295 170.151C134.295 172.824 134.312 175.481 134.345 178.121C134.378 180.761 134.427 183.401 134.493 186.041C134.559 187.427 134.807 188.516 135.236 189.308C135.698 190.1 136.407 190.644 137.364 190.941V200.842C132.084 200.512 128.223 199.092 125.781 196.584C123.372 194.043 122.019 190.083 121.722 184.704ZM142.166 200.842V190.991C143.057 190.661 143.717 190.1 144.146 189.308C144.575 188.516 144.822 187.427 144.888 186.041C144.954 185.117 144.987 183.929 144.987 182.477C144.987 180.992 144.954 179.375 144.888 177.626H157.313C157.379 178.22 157.428 179.259 157.461 180.744C157.494 182.229 157.478 183.549 157.412 184.704C157.181 190.116 155.877 194.093 153.501 196.634C151.125 199.142 147.347 200.545 142.166 200.842ZM138.948 172.478V163.617H144.987C144.987 162.165 144.987 160.796 144.987 159.509C144.987 158.189 144.971 157.067 144.938 156.143C144.938 155.186 144.921 154.526 144.888 154.163C144.855 152.909 144.608 151.919 144.146 151.193C143.717 150.467 143.057 149.955 142.166 149.658V139.808C147.347 140.105 151.109 141.491 153.452 143.966C155.828 146.441 157.148 150.318 157.412 155.598C157.445 156.39 157.461 157.727 157.461 159.608C157.494 161.456 157.494 163.535 157.461 165.845C157.461 168.155 157.412 170.366 157.313 172.478H138.948ZM164.261 185.397C164.195 183.549 164.146 181.305 164.113 178.665C164.08 176.025 164.063 173.27 164.063 170.399C164.063 167.528 164.08 164.756 164.113 162.083C164.146 159.41 164.195 157.1 164.261 155.153C164.525 149.609 165.713 145.649 167.825 143.273C169.937 140.897 172.907 139.709 176.735 139.709C178.583 139.709 180.101 139.956 181.289 140.451C182.51 140.946 183.566 141.656 184.457 142.58V149.51C183.533 149.213 182.626 149.064 181.735 149.064C180.151 149.064 178.996 149.477 178.27 150.302C177.544 151.094 177.131 152.364 177.032 154.113C176.9 157.38 176.801 160.977 176.735 164.904C176.702 168.798 176.702 172.643 176.735 176.438C176.801 180.233 176.9 183.582 177.032 186.486C177.131 188.235 177.544 189.522 178.27 190.347C178.996 191.139 180.151 191.535 181.735 191.535C182.626 191.535 183.533 191.387 184.457 191.09V197.97C183.5 198.894 182.411 199.604 181.19 200.099C179.969 200.627 178.435 200.891 176.587 200.891C172.726 200.891 169.772 199.703 167.726 197.327C165.68 194.918 164.525 190.941 164.261 185.397ZM189.259 200V120.8H202.03V200H189.259ZM210.432 131.145V120.8H224.143V131.145H210.432ZM210.927 200V140.6H223.698V200H210.927ZM228.925 150.302V140.6H234.172V123.77H246.943V186.09C246.943 188.037 247.339 189.407 248.131 190.199C248.923 190.991 250.606 191.387 253.18 191.387C253.972 191.387 254.714 191.37 255.407 191.337C256.133 191.304 256.942 191.271 257.833 191.238V200.396C257.14 200.594 256.397 200.726 255.605 200.792C254.813 200.858 253.988 200.891 253.13 200.891C246.332 200.891 241.465 199.637 238.528 197.129C235.624 194.621 234.172 190.479 234.172 184.704V150.302H228.925ZM251.497 150.302V140.6H256.843V150.302H251.497ZM262.735 131.145V120.8H276.447V131.145H262.735ZM263.23 200V140.6H276.001V200H263.23ZM284 182.774C283.934 181.256 283.868 179.424 283.802 177.279C283.769 175.101 283.753 172.824 283.753 170.448C283.753 168.039 283.769 165.729 283.802 163.518C283.835 161.274 283.901 159.344 284 157.727C284.297 151.688 285.617 147.266 287.96 144.461C290.303 141.656 294.329 140.088 300.038 139.758V149.658C298.916 149.955 298.091 150.516 297.563 151.341C297.068 152.166 296.804 153.255 296.771 154.608C296.705 157.182 296.639 159.789 296.573 162.429C296.54 165.036 296.524 167.66 296.524 170.3C296.524 172.907 296.54 175.53 296.573 178.17C296.639 180.777 296.705 183.368 296.771 185.942C296.804 187.295 297.068 188.384 297.563 189.209C298.091 190.034 298.916 190.611 300.038 190.941V200.842C294.362 200.512 290.336 198.944 287.96 196.139C285.617 193.334 284.297 188.879 284 182.774ZM304.79 200.842V191.04C305.945 190.71 306.77 190.133 307.265 189.308C307.793 188.45 308.09 187.328 308.156 185.942C308.222 183.335 308.272 180.728 308.305 178.121C308.371 175.514 308.404 172.89 308.404 170.25C308.404 167.61 308.371 164.987 308.305 162.38C308.272 159.773 308.222 157.182 308.156 154.608C308.09 153.189 307.793 152.084 307.265 151.292C306.77 150.467 305.945 149.889 304.79 149.559V139.758C308.651 139.956 311.72 140.715 313.997 142.035C316.274 143.322 317.941 145.269 318.997 147.876C320.086 150.45 320.729 153.734 320.927 157.727C320.993 159.245 321.043 161.093 321.076 163.271C321.109 165.449 321.125 167.742 321.125 170.151C321.125 172.527 321.109 174.821 321.076 177.032C321.043 179.243 320.993 181.157 320.927 182.774C320.729 186.833 320.086 190.166 318.997 192.773C317.941 195.347 316.274 197.294 313.997 198.614C311.72 199.901 308.651 200.644 304.79 200.842ZM329.02 200V140.6H341.791V200H329.02ZM354.166 200V154.113C354.166 152.364 353.753 151.094 352.928 150.302C352.136 149.477 350.932 149.064 349.315 149.064C348.853 149.064 348.391 149.114 347.929 149.213C347.5 149.279 347.054 149.394 346.592 149.559V143.124C347.549 142.002 348.638 141.161 349.859 140.6C351.113 140.006 352.73 139.709 354.71 139.709C358.571 139.709 361.574 140.897 363.719 143.273C365.864 145.649 366.937 149.609 366.937 155.153V200H354.166ZM374.335 184.704C374.302 183.549 374.285 182.229 374.285 180.744C374.318 179.259 374.368 178.22 374.434 177.626H385.621C385.555 179.375 385.522 180.992 385.522 182.477C385.522 183.929 385.538 185.117 385.571 186.041C385.637 187.46 385.918 188.549 386.413 189.308C386.908 190.067 387.634 190.611 388.591 190.941V200.842C383.641 200.512 380.077 199.092 377.899 196.584C375.721 194.043 374.533 190.083 374.335 184.704ZM393.392 200.842V191.09C394.613 190.826 395.504 190.298 396.065 189.506C396.626 188.681 396.923 187.526 396.956 186.041C396.956 185.15 396.956 184.572 396.956 184.308C396.956 184.011 396.956 183.731 396.956 183.467C396.956 183.203 396.956 182.675 396.956 181.883C396.956 180.497 396.709 179.391 396.214 178.566C395.719 177.708 394.828 177.081 393.541 176.685L387.106 174.854C384.301 173.996 381.925 172.956 379.978 171.735C378.031 170.481 376.546 168.881 375.523 166.934C374.533 164.987 374.021 162.561 373.988 159.657C373.988 159.03 373.988 158.436 373.988 157.875C373.988 157.314 373.988 156.737 373.988 156.143C374.021 150.665 375.176 146.639 377.453 144.065C379.73 141.491 383.657 140.055 389.234 139.758V149.559C388.244 149.823 387.535 150.318 387.106 151.044C386.71 151.77 386.495 152.81 386.462 154.163C386.429 154.988 386.396 155.631 386.363 156.093C386.363 156.555 386.363 157.38 386.363 158.568C386.363 160.086 386.594 161.373 387.056 162.429C387.518 163.452 388.558 164.178 390.175 164.607L395.867 166.043C400.124 167.099 403.325 168.782 405.47 171.092C407.648 173.369 408.737 176.735 408.737 181.19C408.737 181.784 408.737 182.427 408.737 183.12C408.737 183.78 408.737 184.407 408.737 185.001C408.704 190.314 407.5 194.208 405.124 196.683C402.781 199.158 398.87 200.545 393.392 200.842ZM396.511 162.825C396.544 162.099 396.56 161.159 396.56 160.004C396.593 158.849 396.593 157.727 396.56 156.638C396.56 155.549 396.544 154.724 396.511 154.163C396.445 152.876 396.214 151.886 395.818 151.193C395.455 150.467 394.844 149.955 393.986 149.658V139.758C399.002 140.088 402.566 141.507 404.678 144.015C406.79 146.49 407.962 150.351 408.193 155.598C408.226 156.357 408.242 157.215 408.242 158.172C408.242 159.129 408.226 160.037 408.193 160.895C408.193 161.753 408.16 162.396 408.094 162.825H396.511Z" fill="#F5EDFF"/>
</svg>
