<svg width="110" height="8" viewBox="0 0 110 8" fill="none" xmlns="http://www.w3.org/2000/svg">
<path d="M0.5 4C0.5 6.20914 2.29086 8 4.5 8C6.70914 8 8.5 6.20914 8.5 4C8.5 1.79086 6.70914 1.93129e-07 4.5 0C2.29086 -1.93129e-07 0.5 1.79086 0.5 4ZM101.5 4.00001C101.5 6.20915 103.291 8.00001 105.5 8.00001C107.709 8.00001 109.5 6.20915 109.5 4.00001C109.5 1.79087 107.709 9.02283e-06 105.5 8.8297e-06C103.291 8.63657e-06 101.5 1.79087 101.5 4.00001ZM4.5 4.75L7.025 4.75L7.025 3.25L4.5 3.25L4.5 4.75ZM12.075 4.75L17.125 4.75L17.125 3.25L12.075 3.25L12.075 4.75ZM22.175 4.75L27.225 4.75L27.225 3.25L22.175 3.25L22.175 4.75ZM32.275 4.75L37.325 4.75L37.325 3.25L32.275 3.25L32.275 4.75ZM42.375 4.75L47.425 4.75L47.425 3.25L42.375 3.25L42.375 4.75ZM52.475 4.75L57.525 4.75L57.525 3.25L52.475 3.25L52.475 4.75ZM62.575 4.75001L67.625 4.75001L67.625 3.25001L62.575 3.25001L62.575 4.75001ZM72.675 4.75001L77.725 4.75001L77.725 3.25001L72.675 3.25001L72.675 4.75001ZM82.775 4.75001L87.825 4.75001L87.825 3.25001L82.775 3.25001L82.775 4.75001ZM92.875 4.75001L97.925 4.75001L97.925 3.25001L92.875 3.25001L92.875 4.75001ZM102.975 4.75001L105.5 4.75001L105.5 3.25001L102.975 3.25001L102.975 4.75001ZM0.5 4C0.5 6.20914 2.29086 8 4.5 8C6.70914 8 8.5 6.20914 8.5 4C8.5 1.79086 6.70914 1.93129e-07 4.5 0C2.29086 -1.93129e-07 0.5 1.79086 0.5 4ZM101.5 4.00001C101.5 6.20915 103.291 8.00001 105.5 8.00001C107.709 8.00001 109.5 6.20915 109.5 4.00001C109.5 1.79087 107.709 9.02283e-06 105.5 8.8297e-06C103.291 8.63657e-06 101.5 1.79087 101.5 4.00001ZM4.5 4.75L7.025 4.75L7.025 3.25L4.5 3.25L4.5 4.75ZM12.075 4.75L17.125 4.75L17.125 3.25L12.075 3.25L12.075 4.75ZM22.175 4.75L27.225 4.75L27.225 3.25L22.175 3.25L22.175 4.75ZM32.275 4.75L37.325 4.75L37.325 3.25L32.275 3.25L32.275 4.75ZM42.375 4.75L47.425 4.75L47.425 3.25L42.375 3.25L42.375 4.75ZM52.475 4.75L57.525 4.75L57.525 3.25L52.475 3.25L52.475 4.75ZM62.575 4.75001L67.625 4.75001L67.625 3.25001L62.575 3.25001L62.575 4.75001ZM72.675 4.75001L77.725 4.75001L77.725 3.25001L72.675 3.25001L72.675 4.75001ZM82.775 4.75001L87.825 4.75001L87.825 3.25001L82.775 3.25001L82.775 4.75001ZM92.875 4.75001L97.925 4.75001L97.925 3.25001L92.875 3.25001L92.875 4.75001ZM102.975 4.75001L105.5 4.75001L105.5 3.25001L102.975 3.25001L102.975 4.75001Z" fill="#C394FF"/>
</svg>
