<svg width="122" height="122" viewBox="0 0 122 122" fill="none" xmlns="http://www.w3.org/2000/svg">
<path d="M106.769 13.2719L67.0986 42.8586L74.4346 25.4029L106.769 13.2719Z" fill="#E2761B"/>
<path d="M15.1882 13.2719L54.5392 43.1388L47.5621 25.4029L15.1882 13.2719ZM92.4948 81.8538L81.9294 98.1084L104.535 104.354L111.034 82.2141L92.4948 81.8538ZM11.002 82.2141L17.4608 104.354L40.0667 98.1084L29.5013 81.8538L11.002 82.2141Z" fill="#E4761B"/>
<path d="M38.7915 54.389L32.4922 63.9576L54.9386 64.9585L54.1412 40.7367L38.7915 54.389ZM83.166 54.389L67.617 40.4564L67.0987 64.9585L89.5053 63.9576L83.166 54.389ZM40.0673 98.1084L53.5432 91.5024L41.9013 82.3742L40.0673 98.1084ZM68.4144 91.5024L81.9301 98.1084L80.0562 82.3742L68.4144 91.5024Z" fill="#E4761B"/>
<path d="M81.9291 98.1084L68.4135 91.5024L69.4899 100.35L69.3703 104.074L81.9291 98.1084ZM40.0664 98.1084L52.6252 104.074L52.5455 100.35L53.5422 91.5024L40.0664 98.1084Z" fill="#D7C1B3"/>
<path d="M52.8252 76.5289L41.582 73.2059L49.516 69.5626L52.8252 76.5289ZM69.1317 76.5289L72.4409 69.5626L80.4147 73.2059L69.1317 76.5289Z" fill="#233447"/>
<path d="M40.0673 98.1084L41.981 81.8538L29.502 82.2141L40.0673 98.1084ZM80.0163 81.8538L81.9301 98.1084L92.4954 82.2141L80.0163 81.8538ZM89.5052 63.9576L67.0987 64.9585L69.1719 76.529L72.481 69.5627L80.4549 73.206L89.5052 63.9576ZM41.5823 73.206L49.5562 69.5627L52.8255 76.529L54.9386 64.9585L32.4921 63.9576L41.5823 73.206Z" fill="#CD6116"/>
<path d="M32.4922 63.9576L41.9013 82.3743L41.5824 73.206L32.4922 63.9576ZM80.4549 73.206L80.0562 82.3743L89.5053 63.9576L80.4549 73.206ZM54.9386 64.9585L52.8255 76.529L55.4569 90.1813L56.0549 72.2051L54.9386 64.9585ZM67.0987 64.9585L66.0222 72.165L66.5007 90.1813L69.1719 76.529L67.0987 64.9585Z" fill="#E4751F"/>
<path d="M69.1716 76.529L66.5003 90.1813L68.4141 91.5025L80.0559 82.3742L80.4546 73.206L69.1716 76.529ZM41.582 73.206L41.901 82.3742L53.5428 91.5025L55.4565 90.1813L52.8252 76.529L41.582 73.206Z" fill="#F6851B"/>
<path d="M69.3703 104.074L69.4899 100.35L68.4932 99.4697H53.4625L52.5455 100.35L52.6252 104.074L40.0664 98.1085L44.452 101.712L53.3429 107.917H68.6128L77.5435 101.712L81.9291 98.1085L69.3703 104.074Z" fill="#C0AD9E"/>
<path d="M68.4139 91.5025L66.5001 90.1813H55.4564L53.5426 91.5025L52.5459 100.35L53.4629 99.4696H68.4936L69.4903 100.35L68.4139 91.5025Z" fill="white"/>
<path d="M108.443 44.7803L111.832 28.4456L106.768 13.2719L68.4141 41.8577L83.1657 54.389L104.017 60.5145L108.642 55.1096L106.649 53.6683L109.838 50.7457L107.366 48.824L110.556 46.3818L108.443 44.7803ZM10.165 28.4456L13.5539 44.7803L11.401 46.3818L14.5905 48.824L12.1585 50.7457L15.348 53.6683L13.3546 55.1096L17.9395 60.5145L38.7912 54.389L53.5428 41.8577L15.1886 13.2719L10.165 28.4456Z" fill="#763D16"/>
<path d="M104.017 60.5145L83.1654 54.389L89.5046 63.9576L80.0556 82.3742L92.4948 82.2141H111.034L104.017 60.5145ZM38.7908 54.389L17.9392 60.5145L11.002 82.2141H29.5013L41.9006 82.3742L32.4915 63.9576L38.7908 54.389ZM67.098 64.9585L68.4137 41.8577L74.4739 25.4028H47.5621L53.5425 41.8577L54.9379 64.9585L55.4163 72.2451L55.4562 90.1812H66.5L66.5797 72.2451L67.098 64.9585Z" fill="#F6851B"/>
</svg>
