<svg width="253" height="200" viewBox="0 0 253 200" fill="none" xmlns="http://www.w3.org/2000/svg">
<path d="M0.257 80V0.799999H13.0775V80H0.257ZM17.8295 53.4185V42.1325H18.275C20.387 42.1325 21.9545 41.6375 22.9775 40.6475C24.0335 39.6575 24.611 38.2385 24.71 36.3905C24.809 34.5095 24.875 32.4965 24.908 30.3515C24.941 28.1735 24.941 26.012 24.908 23.867C24.875 21.689 24.809 19.676 24.71 17.828C24.611 15.947 24.0335 14.528 22.9775 13.571C21.9545 12.581 20.387 12.086 18.275 12.086H17.8295V0.799999H18.275C24.941 0.799999 29.759 2.1695 32.729 4.9085C35.699 7.6475 37.283 12.1685 37.481 18.4715C37.613 21.6725 37.679 24.6095 37.679 27.2825C37.679 29.9225 37.613 32.7275 37.481 35.6975C37.283 42.0005 35.699 46.538 32.729 49.31C29.759 52.049 24.941 53.4185 18.275 53.4185H17.8295ZM44.2981 80V20.6H57.0691V80H44.2981ZM61.8706 31.0445V21.9365C63.0916 20.8145 64.8736 20.2535 67.2166 20.2535C68.0086 20.2535 68.7676 20.2865 69.4936 20.3525C70.2526 20.4185 70.8301 20.468 71.2261 20.501V30.302H67.4146C65.1376 30.302 63.2896 30.5495 61.8706 31.0445ZM75.2688 62.774C75.2028 61.256 75.1368 59.4245 75.0708 57.2795C75.0378 55.1015 75.0213 52.8245 75.0213 50.4485C75.0213 48.0395 75.0378 45.7295 75.0708 43.5185C75.1038 41.2745 75.1698 39.344 75.2688 37.727C75.5658 31.688 76.8858 27.266 79.2288 24.461C81.5718 21.656 85.5978 20.0885 91.3068 19.7585V29.6585C90.1848 29.9555 89.3598 30.5165 88.8318 31.3415C88.3368 32.1665 88.0728 33.2555 88.0398 34.6085C87.9738 37.1825 87.9078 39.7895 87.8418 42.4295C87.8088 45.0365 87.7923 47.66 87.7923 50.3C87.7923 52.907 87.8088 55.5305 87.8418 58.1705C87.9078 60.7775 87.9738 63.368 88.0398 65.942C88.0728 67.295 88.3368 68.384 88.8318 69.209C89.3598 70.034 90.1848 70.6115 91.3068 70.9415V80.8415C85.6308 80.5115 81.6048 78.944 79.2288 76.139C76.8858 73.334 75.5658 68.879 75.2688 62.774ZM96.0588 80.8415V71.0405C97.2138 70.7105 98.0388 70.133 98.5338 69.308C99.0618 68.45 99.3588 67.328 99.4248 65.942C99.4908 63.335 99.5403 60.728 99.5733 58.121C99.6393 55.514 99.6723 52.8905 99.6723 50.2505C99.6723 47.6105 99.6393 44.987 99.5733 42.38C99.5403 39.773 99.4908 37.1825 99.4248 34.6085C99.3588 33.1895 99.0618 32.084 98.5338 31.292C98.0388 30.467 97.2138 29.8895 96.0588 29.5595V19.7585C99.9198 19.9565 102.989 20.7155 105.266 22.0355C107.543 23.3225 109.209 25.2695 110.265 27.8765C111.354 30.4505 111.998 33.734 112.196 37.727C112.262 39.245 112.311 41.093 112.344 43.271C112.377 45.449 112.394 47.7425 112.394 50.1515C112.394 52.5275 112.377 54.821 112.344 57.032C112.311 59.243 112.262 61.157 112.196 62.774C111.998 66.833 111.354 70.166 110.265 72.773C109.209 75.347 107.543 77.294 105.266 78.614C102.989 79.901 99.9198 80.6435 96.0588 80.8415ZM119.694 11.1455V0.799999H133.455V11.1455H119.694ZM114.843 100.889C113.787 100.889 112.649 100.823 111.428 100.691C110.174 100.559 109.002 100.411 107.913 100.246V90.692C108.771 90.758 109.893 90.8075 111.279 90.8405C112.665 90.9065 113.837 90.9395 114.794 90.9395C116.609 90.9395 117.995 90.494 118.952 89.603C119.909 88.745 120.387 87.425 120.387 85.643V20.6H133.158V84.653C133.158 90.428 131.657 94.5695 128.654 97.0775C125.651 99.6185 121.047 100.889 114.843 100.889ZM141.735 64.7045C141.669 63.1865 141.619 61.1735 141.586 58.6655C141.553 56.1245 141.537 53.4185 141.537 50.5475C141.537 47.6765 141.553 44.954 141.586 42.38C141.619 39.773 141.669 37.6775 141.735 36.0935C142.131 30.6155 143.533 26.606 145.942 24.065C148.384 21.524 152.196 20.0885 157.377 19.7585V29.609C156.42 29.873 155.71 30.3845 155.248 31.1435C154.819 31.8695 154.572 32.876 154.506 34.163C154.44 36.803 154.39 39.4595 154.357 42.1325C154.324 44.8055 154.308 47.4785 154.308 50.1515C154.308 52.8245 154.324 55.481 154.357 58.121C154.39 60.761 154.44 63.401 154.506 66.041C154.572 67.427 154.819 68.516 155.248 69.308C155.71 70.1 156.42 70.6445 157.377 70.9415V80.8415C152.097 80.5115 148.236 79.0925 145.794 76.5845C143.385 74.0435 142.032 70.0835 141.735 64.7045ZM162.178 80.8415V70.991C163.069 70.661 163.729 70.1 164.158 69.308C164.587 68.516 164.835 67.427 164.901 66.041C164.967 65.117 165 63.929 165 62.477C165 60.992 164.967 59.375 164.901 57.626H177.325C177.391 58.22 177.441 59.2595 177.474 60.7445C177.507 62.2295 177.49 63.5495 177.424 64.7045C177.193 70.1165 175.89 74.093 173.514 76.634C171.138 79.142 167.359 80.5445 162.178 80.8415ZM158.961 52.478V43.6175H165C165 42.1655 165 40.796 165 39.509C165 38.189 164.983 37.067 164.95 36.143C164.95 35.186 164.934 34.526 164.901 34.163C164.868 32.909 164.62 31.919 164.158 31.193C163.729 30.467 163.069 29.9555 162.178 29.6585V19.808C167.359 20.105 171.121 21.491 173.464 23.966C175.84 26.441 177.16 30.3185 177.424 35.5985C177.457 36.3905 177.474 37.727 177.474 39.608C177.507 41.456 177.507 43.535 177.474 45.845C177.474 48.155 177.424 50.366 177.325 52.478H158.961ZM184.274 64.7045C184.208 63.1865 184.159 61.1735 184.126 58.6655C184.093 56.1245 184.076 53.4185 184.076 50.5475C184.076 47.6765 184.093 44.954 184.126 42.38C184.159 39.773 184.208 37.6775 184.274 36.0935C184.67 30.6155 186.073 26.606 188.482 24.065C190.891 21.524 194.702 20.0885 199.916 19.7585V29.609C198.959 29.873 198.25 30.368 197.788 31.094C197.359 31.787 197.111 32.81 197.045 34.163C196.979 36.803 196.93 39.4595 196.897 42.1325C196.864 44.8055 196.847 47.4785 196.847 50.1515C196.847 52.8245 196.864 55.481 196.897 58.121C196.93 60.761 196.979 63.401 197.045 66.041C197.111 67.427 197.359 68.516 197.788 69.308C198.25 70.067 198.959 70.6115 199.916 70.9415V80.8415C194.636 80.5115 190.775 79.0925 188.333 76.5845C185.924 74.0435 184.571 70.0835 184.274 64.7045ZM204.718 80.8415V70.991C205.609 70.661 206.269 70.1165 206.698 69.3575C207.16 68.5655 207.407 67.46 207.44 66.041C207.506 65.117 207.539 63.929 207.539 62.477C207.539 60.992 207.506 59.375 207.44 57.626H219.865C219.931 58.22 219.98 59.2595 220.013 60.7445C220.046 62.2295 220.03 63.5495 219.964 64.7045C219.733 70.1165 218.413 74.093 216.004 76.634C213.628 79.142 209.866 80.5445 204.718 80.8415ZM207.44 42.8255C207.473 42.0995 207.49 41.159 207.49 40.004C207.523 38.849 207.523 37.727 207.49 36.638C207.49 35.549 207.473 34.724 207.44 34.163C207.407 32.843 207.16 31.8365 206.698 31.1435C206.269 30.4175 205.609 29.9225 204.718 29.6585V19.7585C209.899 20.0555 213.677 21.458 216.053 23.966C218.462 26.441 219.766 30.3185 219.964 35.5985C220.03 36.7205 220.046 38.0405 220.013 39.5585C219.98 41.0765 219.931 42.1655 219.865 42.8255H207.44ZM223.994 30.302V20.6H229.241V3.77H242.012V66.0905C242.012 68.0375 242.408 69.407 243.2 70.199C243.992 70.991 245.675 71.387 248.249 71.387C249.041 71.387 249.783 71.3705 250.476 71.3375C251.202 71.3045 252.011 71.2715 252.902 71.2385V80.396C252.209 80.594 251.466 80.726 250.674 80.792C249.882 80.858 249.057 80.891 248.199 80.891C241.401 80.891 236.534 79.637 233.597 77.129C230.693 74.621 229.241 70.4795 229.241 64.7045V30.302H223.994ZM246.566 30.302V20.6H251.912V30.302H246.566ZM0.257 199V119.8H13.0775V199H0.257ZM17.8295 199V187.714H18.473C20.618 187.714 22.2185 187.219 23.2745 186.229C24.3635 185.239 24.9245 183.803 24.9575 181.922C25.0565 178.127 25.1225 174.365 25.1555 170.636C25.2215 166.874 25.2545 163.112 25.2545 159.35C25.2545 155.588 25.2215 151.826 25.1555 148.064C25.1225 144.302 25.0565 140.557 24.9575 136.828C24.9245 134.947 24.3635 133.528 23.2745 132.571C22.2185 131.581 20.6345 131.086 18.5225 131.086H17.8295V119.8H18.5225C25.2215 119.8 30.0725 121.235 33.0755 124.106C36.0785 126.977 37.6295 131.713 37.7285 138.313C37.8275 143.329 37.8935 148.097 37.9265 152.618C37.9595 157.106 37.9595 161.611 37.9265 166.132C37.8935 170.62 37.8275 175.372 37.7285 180.388C37.6295 187.021 36.0785 191.789 33.0755 194.693C30.0725 197.564 25.205 199 18.473 199H17.8295ZM45.3453 183.704C45.2793 182.186 45.2298 180.173 45.1968 177.665C45.1638 175.124 45.1473 172.418 45.1473 169.547C45.1473 166.676 45.1638 163.954 45.1968 161.38C45.2298 158.773 45.2793 156.677 45.3453 155.093C45.7413 149.615 47.1438 145.606 49.5528 143.065C51.9948 140.524 55.8063 139.088 60.9873 138.758V148.609C60.0303 148.873 59.3208 149.384 58.8588 150.143C58.4298 150.869 58.1823 151.876 58.1163 153.163C58.0503 155.803 58.0008 158.459 57.9678 161.132C57.9348 163.805 57.9183 166.478 57.9183 169.151C57.9183 171.824 57.9348 174.481 57.9678 177.121C58.0008 179.761 58.0503 182.401 58.1163 185.041C58.1823 186.427 58.4298 187.516 58.8588 188.308C59.3208 189.1 60.0303 189.644 60.9873 189.941V199.842C55.7073 199.512 51.8463 198.092 49.4043 195.584C46.9953 193.043 45.6423 189.083 45.3453 183.704ZM65.7888 199.842V189.991C66.6798 189.661 67.3398 189.1 67.7688 188.308C68.1978 187.516 68.4453 186.427 68.5113 185.041C68.5773 184.117 68.6103 182.929 68.6103 181.477C68.6103 179.992 68.5773 178.375 68.5113 176.626H80.9358C81.0018 177.22 81.0513 178.259 81.0843 179.744C81.1173 181.229 81.1008 182.549 81.0348 183.704C80.8038 189.116 79.5003 193.093 77.1243 195.634C74.7483 198.142 70.9698 199.545 65.7888 199.842ZM62.5713 171.478V162.617H68.6103C68.6103 161.165 68.6103 159.796 68.6103 158.509C68.6103 157.189 68.5938 156.067 68.5608 155.143C68.5608 154.186 68.5443 153.526 68.5113 153.163C68.4783 151.909 68.2308 150.919 67.7688 150.193C67.3398 149.467 66.6798 148.955 65.7888 148.658V138.808C70.9698 139.105 74.7318 140.491 77.0748 142.966C79.4508 145.441 80.7708 149.318 81.0348 154.598C81.0678 155.39 81.0843 156.727 81.0843 158.608C81.1173 160.456 81.1173 162.535 81.0843 164.845C81.0843 167.155 81.0348 169.366 80.9358 171.478H62.5713ZM85.1619 149.302V139.6H90.4089V122.77H103.18V185.09C103.18 187.037 103.576 188.407 104.368 189.199C105.16 189.991 106.843 190.387 109.417 190.387C110.209 190.387 110.951 190.37 111.644 190.337C112.37 190.304 113.179 190.271 114.07 190.238V199.396C113.377 199.594 112.634 199.726 111.842 199.792C111.05 199.858 110.225 199.891 109.367 199.891C102.569 199.891 97.7019 198.637 94.7649 196.129C91.8609 193.621 90.4089 189.479 90.4089 183.704V149.302H85.1619ZM107.734 149.302V139.6H113.08V149.302H107.734ZM118.032 186.279C117.999 185.618 117.983 184.859 117.983 184.001C117.983 183.143 117.999 182.384 118.032 181.724C118.23 179.117 118.791 176.873 119.715 174.992C120.672 173.078 122.141 171.395 124.121 169.943C126.101 168.491 128.724 167.122 131.991 165.835C132.915 165.439 133.806 165.092 134.664 164.795C135.522 164.465 136.38 164.168 137.238 163.904V172.319C136.908 172.451 136.578 172.616 136.248 172.814C135.918 172.979 135.588 173.161 135.258 173.359C133.476 174.316 132.272 175.52 131.645 176.972C131.051 178.391 130.704 179.975 130.605 181.724C130.572 182.351 130.556 182.962 130.556 183.556C130.589 184.117 130.622 184.694 130.655 185.288C130.82 187.004 131.331 188.308 132.189 189.199C133.047 190.09 134.252 190.535 135.803 190.535C136.232 190.535 136.71 190.469 137.238 190.337V197.317C135.654 198.934 133.427 199.743 130.556 199.743C126.464 199.743 123.444 198.719 121.497 196.673C119.583 194.594 118.428 191.129 118.032 186.279ZM119.765 161.825C119.732 161.231 119.699 160.159 119.666 158.608C119.633 157.057 119.633 155.72 119.666 154.598C119.864 149.417 121.085 145.556 123.329 143.015C125.606 140.474 129.483 139.055 134.961 138.758V148.51C134.037 148.774 133.361 149.285 132.932 150.044C132.503 150.77 132.255 151.81 132.189 153.163C132.156 153.724 132.123 154.565 132.09 155.687C132.09 156.776 132.09 157.898 132.09 159.053C132.123 160.208 132.156 161.132 132.189 161.825H119.765ZM142.04 199V153.608C142.04 152.354 141.875 151.331 141.545 150.539C141.215 149.747 140.604 149.17 139.713 148.807V138.758C145.422 139.088 149.349 140.656 151.494 143.461C153.672 146.266 154.745 150.638 154.712 156.578L154.662 199H142.04ZM162.865 130.145V119.8H176.577V130.145H162.865ZM163.36 199V139.6H176.131V199H163.36ZM184.774 199V119.8H197.545V199H184.774ZM205.145 183.704C205.112 182.549 205.096 181.229 205.096 179.744C205.129 178.259 205.178 177.22 205.244 176.626H216.431C216.365 178.375 216.332 179.992 216.332 181.477C216.332 182.929 216.349 184.117 216.382 185.041C216.448 186.46 216.728 187.549 217.223 188.308C217.718 189.067 218.444 189.611 219.401 189.941V199.842C214.451 199.512 210.887 198.092 208.709 195.584C206.531 193.043 205.343 189.083 205.145 183.704ZM224.203 199.842V190.09C225.424 189.826 226.315 189.298 226.876 188.506C227.437 187.681 227.734 186.526 227.767 185.041C227.767 184.15 227.767 183.572 227.767 183.308C227.767 183.011 227.767 182.731 227.767 182.467C227.767 182.203 227.767 181.675 227.767 180.883C227.767 179.497 227.519 178.391 227.024 177.566C226.529 176.708 225.638 176.081 224.351 175.685L217.916 173.854C215.111 172.996 212.735 171.956 210.788 170.735C208.841 169.481 207.356 167.881 206.333 165.934C205.343 163.987 204.832 161.561 204.799 158.657C204.799 158.03 204.799 157.436 204.799 156.875C204.799 156.314 204.799 155.737 204.799 155.143C204.832 149.665 205.987 145.639 208.264 143.065C210.541 140.491 214.468 139.055 220.045 138.758V148.559C219.055 148.823 218.345 149.318 217.916 150.044C217.52 150.77 217.306 151.81 217.273 153.163C217.24 153.988 217.207 154.631 217.174 155.093C217.174 155.555 217.174 156.38 217.174 157.568C217.174 159.086 217.405 160.373 217.867 161.429C218.329 162.452 219.368 163.178 220.985 163.607L226.678 165.043C230.935 166.099 234.136 167.782 236.281 170.092C238.459 172.369 239.548 175.735 239.548 180.19C239.548 180.784 239.548 181.427 239.548 182.12C239.548 182.78 239.548 183.407 239.548 184.001C239.515 189.314 238.31 193.208 235.934 195.683C233.591 198.158 229.681 199.545 224.203 199.842ZM227.321 161.825C227.354 161.099 227.371 160.159 227.371 159.004C227.404 157.849 227.404 156.727 227.371 155.638C227.371 154.549 227.354 153.724 227.321 153.163C227.255 151.876 227.024 150.886 226.628 150.193C226.265 149.467 225.655 148.955 224.797 148.658V138.758C229.813 139.088 233.377 140.507 235.489 143.015C237.601 145.49 238.772 149.351 239.003 154.598C239.036 155.357 239.053 156.215 239.053 157.172C239.053 158.129 239.036 159.037 239.003 159.895C239.003 160.753 238.97 161.396 238.904 161.825H227.321Z" fill="#F5EDFF"/>
</svg>
