<svg width="330" height="200" viewBox="0 0 330 200" fill="none" xmlns="http://www.w3.org/2000/svg">
<path d="M1.257 80V0.799999H14.0775V80H1.257ZM18.8295 53.4185V42.1325H19.275C21.387 42.1325 22.9545 41.6375 23.9775 40.6475C25.0335 39.6575 25.611 38.2385 25.71 36.3905C25.809 34.5095 25.875 32.4965 25.908 30.3515C25.941 28.1735 25.941 26.012 25.908 23.867C25.875 21.689 25.809 19.676 25.71 17.828C25.611 15.947 25.0335 14.528 23.9775 13.571C22.9545 12.581 21.387 12.086 19.275 12.086H18.8295V0.799999H19.275C25.941 0.799999 30.759 2.1695 33.729 4.9085C36.699 7.6475 38.283 12.1685 38.481 18.4715C38.613 21.6725 38.679 24.6095 38.679 27.2825C38.679 29.9225 38.613 32.7275 38.481 35.6975C38.283 42.0005 36.699 46.538 33.729 49.31C30.759 52.049 25.941 53.4185 19.275 53.4185H18.8295ZM45.2981 80V20.6H58.0691V80H45.2981ZM62.8706 31.0445V21.9365C64.0916 20.8145 65.8736 20.2535 68.2166 20.2535C69.0086 20.2535 69.7676 20.2865 70.4936 20.3525C71.2526 20.4185 71.8301 20.468 72.2261 20.501V30.302H68.4146C66.1376 30.302 64.2896 30.5495 62.8706 31.0445ZM76.2688 62.774C76.2028 61.256 76.1368 59.4245 76.0708 57.2795C76.0378 55.1015 76.0213 52.8245 76.0213 50.4485C76.0213 48.0395 76.0378 45.7295 76.0708 43.5185C76.1038 41.2745 76.1698 39.344 76.2688 37.727C76.5658 31.688 77.8858 27.266 80.2288 24.461C82.5718 21.656 86.5978 20.0885 92.3068 19.7585V29.6585C91.1848 29.9555 90.3598 30.5165 89.8318 31.3415C89.3368 32.1665 89.0728 33.2555 89.0398 34.6085C88.9738 37.1825 88.9078 39.7895 88.8418 42.4295C88.8088 45.0365 88.7923 47.66 88.7923 50.3C88.7923 52.907 88.8088 55.5305 88.8418 58.1705C88.9078 60.7775 88.9738 63.368 89.0398 65.942C89.0728 67.295 89.3368 68.384 89.8318 69.209C90.3598 70.034 91.1848 70.6115 92.3068 70.9415V80.8415C86.6308 80.5115 82.6048 78.944 80.2288 76.139C77.8858 73.334 76.5658 68.879 76.2688 62.774ZM97.0588 80.8415V71.0405C98.2138 70.7105 99.0388 70.133 99.5338 69.308C100.062 68.45 100.359 67.328 100.425 65.942C100.491 63.335 100.54 60.728 100.573 58.121C100.639 55.514 100.672 52.8905 100.672 50.2505C100.672 47.6105 100.639 44.987 100.573 42.38C100.54 39.773 100.491 37.1825 100.425 34.6085C100.359 33.1895 100.062 32.084 99.5338 31.292C99.0388 30.467 98.2138 29.8895 97.0588 29.5595V19.7585C100.92 19.9565 103.989 20.7155 106.266 22.0355C108.543 23.3225 110.209 25.2695 111.265 27.8765C112.354 30.4505 112.998 33.734 113.196 37.727C113.262 39.245 113.311 41.093 113.344 43.271C113.377 45.449 113.394 47.7425 113.394 50.1515C113.394 52.5275 113.377 54.821 113.344 57.032C113.311 59.243 113.262 61.157 113.196 62.774C112.998 66.833 112.354 70.166 111.265 72.773C110.209 75.347 108.543 77.294 106.266 78.614C103.989 79.901 100.92 80.6435 97.0588 80.8415ZM120.694 11.1455V0.799999H134.455V11.1455H120.694ZM115.843 100.889C114.787 100.889 113.649 100.823 112.428 100.691C111.174 100.559 110.002 100.411 108.913 100.246V90.692C109.771 90.758 110.893 90.8075 112.279 90.8405C113.665 90.9065 114.837 90.9395 115.794 90.9395C117.609 90.9395 118.995 90.494 119.952 89.603C120.909 88.745 121.387 87.425 121.387 85.643V20.6H134.158V84.653C134.158 90.428 132.657 94.5695 129.654 97.0775C126.651 99.6185 122.047 100.889 115.843 100.889ZM142.735 64.7045C142.669 63.1865 142.619 61.1735 142.586 58.6655C142.553 56.1245 142.537 53.4185 142.537 50.5475C142.537 47.6765 142.553 44.954 142.586 42.38C142.619 39.773 142.669 37.6775 142.735 36.0935C143.131 30.6155 144.533 26.606 146.942 24.065C149.384 21.524 153.196 20.0885 158.377 19.7585V29.609C157.42 29.873 156.71 30.3845 156.248 31.1435C155.819 31.8695 155.572 32.876 155.506 34.163C155.44 36.803 155.39 39.4595 155.357 42.1325C155.324 44.8055 155.308 47.4785 155.308 50.1515C155.308 52.8245 155.324 55.481 155.357 58.121C155.39 60.761 155.44 63.401 155.506 66.041C155.572 67.427 155.819 68.516 156.248 69.308C156.71 70.1 157.42 70.6445 158.377 70.9415V80.8415C153.097 80.5115 149.236 79.0925 146.794 76.5845C144.385 74.0435 143.032 70.0835 142.735 64.7045ZM163.178 80.8415V70.991C164.069 70.661 164.729 70.1 165.158 69.308C165.587 68.516 165.835 67.427 165.901 66.041C165.967 65.117 166 63.929 166 62.477C166 60.992 165.967 59.375 165.901 57.626H178.325C178.391 58.22 178.441 59.2595 178.474 60.7445C178.507 62.2295 178.49 63.5495 178.424 64.7045C178.193 70.1165 176.89 74.093 174.514 76.634C172.138 79.142 168.359 80.5445 163.178 80.8415ZM159.961 52.478V43.6175H166C166 42.1655 166 40.796 166 39.509C166 38.189 165.983 37.067 165.95 36.143C165.95 35.186 165.934 34.526 165.901 34.163C165.868 32.909 165.62 31.919 165.158 31.193C164.729 30.467 164.069 29.9555 163.178 29.6585V19.808C168.359 20.105 172.121 21.491 174.464 23.966C176.84 26.441 178.16 30.3185 178.424 35.5985C178.457 36.3905 178.474 37.727 178.474 39.608C178.507 41.456 178.507 43.535 178.474 45.845C178.474 48.155 178.424 50.366 178.325 52.478H159.961ZM185.274 64.7045C185.208 63.1865 185.159 61.1735 185.126 58.6655C185.093 56.1245 185.076 53.4185 185.076 50.5475C185.076 47.6765 185.093 44.954 185.126 42.38C185.159 39.773 185.208 37.6775 185.274 36.0935C185.67 30.6155 187.073 26.606 189.482 24.065C191.891 21.524 195.702 20.0885 200.916 19.7585V29.609C199.959 29.873 199.25 30.368 198.788 31.094C198.359 31.787 198.111 32.81 198.045 34.163C197.979 36.803 197.93 39.4595 197.897 42.1325C197.864 44.8055 197.847 47.4785 197.847 50.1515C197.847 52.8245 197.864 55.481 197.897 58.121C197.93 60.761 197.979 63.401 198.045 66.041C198.111 67.427 198.359 68.516 198.788 69.308C199.25 70.067 199.959 70.6115 200.916 70.9415V80.8415C195.636 80.5115 191.775 79.0925 189.333 76.5845C186.924 74.0435 185.571 70.0835 185.274 64.7045ZM205.718 80.8415V70.991C206.609 70.661 207.269 70.1165 207.698 69.3575C208.16 68.5655 208.407 67.46 208.44 66.041C208.506 65.117 208.539 63.929 208.539 62.477C208.539 60.992 208.506 59.375 208.44 57.626H220.865C220.931 58.22 220.98 59.2595 221.013 60.7445C221.046 62.2295 221.03 63.5495 220.964 64.7045C220.733 70.1165 219.413 74.093 217.004 76.634C214.628 79.142 210.866 80.5445 205.718 80.8415ZM208.44 42.8255C208.473 42.0995 208.49 41.159 208.49 40.004C208.523 38.849 208.523 37.727 208.49 36.638C208.49 35.549 208.473 34.724 208.44 34.163C208.407 32.843 208.16 31.8365 207.698 31.1435C207.269 30.4175 206.609 29.9225 205.718 29.6585V19.7585C210.899 20.0555 214.677 21.458 217.053 23.966C219.462 26.441 220.766 30.3185 220.964 35.5985C221.03 36.7205 221.046 38.0405 221.013 39.5585C220.98 41.0765 220.931 42.1655 220.865 42.8255H208.44ZM224.994 30.302V20.6H230.241V3.77H243.012V66.0905C243.012 68.0375 243.408 69.407 244.2 70.199C244.992 70.991 246.675 71.387 249.249 71.387C250.041 71.387 250.783 71.3705 251.476 71.3375C252.202 71.3045 253.011 71.2715 253.902 71.2385V80.396C253.209 80.594 252.466 80.726 251.674 80.792C250.882 80.858 250.057 80.891 249.199 80.891C242.401 80.891 237.534 79.637 234.597 77.129C231.693 74.621 230.241 70.4795 230.241 64.7045V30.302H224.994ZM247.566 30.302V20.6H252.912V30.302H247.566ZM17.5425 199.842C11.8005 199.545 7.626 197.993 5.019 195.188C2.445 192.35 1.092 187.879 0.96 181.774C0.861 178.177 0.795 174.497 0.762 170.735C0.729 166.973 0.7125 163.195 0.7125 159.4C0.7125 155.572 0.729 151.777 0.762 148.015C0.795 144.253 0.861 140.557 0.96 136.927C1.092 130.855 2.445 126.416 5.019 123.611C7.626 120.806 11.8005 119.255 17.5425 118.958V129.601C16.3215 129.931 15.3975 130.508 14.7705 131.333C14.1765 132.158 13.8465 133.247 13.7805 134.6C13.6485 138.329 13.533 142.289 13.434 146.48C13.368 150.671 13.335 154.961 13.335 159.35C13.335 163.706 13.368 167.996 13.434 172.22C13.533 176.411 13.6485 180.371 13.7805 184.1C13.8465 185.486 14.1765 186.608 14.7705 187.466C15.3975 188.291 16.3215 188.869 17.5425 189.199V199.842ZM22.344 199.842V189.199C23.532 188.869 24.423 188.291 25.017 187.466C25.644 186.608 25.974 185.486 26.007 184.1C26.172 180.371 26.2875 176.411 26.3535 172.22C26.4195 167.996 26.436 163.706 26.403 159.35C26.403 154.961 26.37 150.671 26.304 146.48C26.271 142.289 26.172 138.329 26.007 134.6C25.974 133.247 25.644 132.158 25.017 131.333C24.423 130.508 23.532 129.931 22.344 129.601V118.958C28.053 119.255 32.1615 120.823 34.6695 123.661C37.1775 126.499 38.5305 130.921 38.7285 136.927C38.8275 140.59 38.91 144.302 38.976 148.064C39.042 151.826 39.075 155.621 39.075 159.449C39.075 163.244 39.042 167.023 38.976 170.785C38.91 174.514 38.8275 178.177 38.7285 181.774C38.5305 187.813 37.1775 192.251 34.6695 195.089C32.1615 197.927 28.053 199.512 22.344 199.842ZM43.9175 139.6H56.8865L60.6485 169.448L61.292 184.892H50.699L43.9175 139.6ZM51.788 189.545H64.658L65.747 169.448L69.6575 139.6H82.6265L73.568 199H53.273L51.788 189.545ZM85.6939 183.704C85.6279 182.186 85.5784 180.173 85.5454 177.665C85.5124 175.124 85.4959 172.418 85.4959 169.547C85.4959 166.676 85.5124 163.954 85.5454 161.38C85.5784 158.773 85.6279 156.677 85.6939 155.093C86.0899 149.615 87.4924 145.606 89.9014 143.065C92.3434 140.524 96.1549 139.088 101.336 138.758V148.609C100.379 148.873 99.6694 149.384 99.2074 150.143C98.7784 150.869 98.5309 151.876 98.4649 153.163C98.3989 155.803 98.3494 158.459 98.3164 161.132C98.2834 163.805 98.2669 166.478 98.2669 169.151C98.2669 171.824 98.2834 174.481 98.3164 177.121C98.3494 179.761 98.3989 182.401 98.4649 185.041C98.5309 186.427 98.7784 187.516 99.2074 188.308C99.6694 189.1 100.379 189.644 101.336 189.941V199.842C96.0559 199.512 92.1949 198.092 89.7529 195.584C87.3439 193.043 85.9909 189.083 85.6939 183.704ZM106.137 199.842V189.991C107.028 189.661 107.688 189.1 108.117 188.308C108.546 187.516 108.794 186.427 108.86 185.041C108.926 184.117 108.959 182.929 108.959 181.477C108.959 179.992 108.926 178.375 108.86 176.626H121.284C121.35 177.22 121.4 178.259 121.433 179.744C121.466 181.229 121.449 182.549 121.383 183.704C121.152 189.116 119.849 193.093 117.473 195.634C115.097 198.142 111.318 199.545 106.137 199.842ZM102.92 171.478V162.617H108.959C108.959 161.165 108.959 159.796 108.959 158.509C108.959 157.189 108.942 156.067 108.909 155.143C108.909 154.186 108.893 153.526 108.86 153.163C108.827 151.909 108.579 150.919 108.117 150.193C107.688 149.467 107.028 148.955 106.137 148.658V138.808C111.318 139.105 115.08 140.491 117.423 142.966C119.799 145.441 121.119 149.318 121.383 154.598C121.416 155.39 121.433 156.727 121.433 158.608C121.466 160.456 121.466 162.535 121.433 164.845C121.433 167.155 121.383 169.366 121.284 171.478H102.92ZM128.926 199V139.6H141.697V199H128.926ZM146.499 150.044V140.936C147.72 139.814 149.502 139.253 151.845 139.253C152.637 139.253 153.396 139.286 154.122 139.352C154.881 139.418 155.458 139.468 155.854 139.501V149.302H152.043C149.766 149.302 147.918 149.549 146.499 150.044ZM158.87 139.6H171.839L175.601 169.448L176.244 184.892H165.651L158.87 139.6ZM166.74 189.545H179.61L180.699 169.448L184.61 139.6H197.579L188.52 199H168.225L166.74 189.545ZM202.634 130.145V119.8H216.345V130.145H202.634ZM203.129 199V139.6H215.9V199H203.129ZM223.849 183.704C223.783 182.186 223.734 180.173 223.701 177.665C223.668 175.124 223.651 172.418 223.651 169.547C223.651 166.676 223.668 163.954 223.701 161.38C223.734 158.773 223.783 156.677 223.849 155.093C224.245 149.615 225.648 145.606 228.057 143.065C230.499 140.524 234.31 139.088 239.491 138.758V148.609C238.534 148.873 237.825 149.384 237.363 150.143C236.934 150.869 236.686 151.876 236.62 153.163C236.554 155.803 236.505 158.459 236.472 161.132C236.439 163.805 236.422 166.478 236.422 169.151C236.422 171.824 236.439 174.481 236.472 177.121C236.505 179.761 236.554 182.401 236.62 185.041C236.686 186.427 236.934 187.516 237.363 188.308C237.825 189.1 238.534 189.644 239.491 189.941V199.842C234.211 199.512 230.35 198.092 227.908 195.584C225.499 193.043 224.146 189.083 223.849 183.704ZM244.293 199.842V189.991C245.184 189.661 245.844 189.1 246.273 188.308C246.702 187.516 246.949 186.427 247.015 185.041C247.081 184.117 247.114 182.929 247.114 181.477C247.114 179.992 247.081 178.375 247.015 176.626H259.44C259.506 177.22 259.555 178.259 259.588 179.744C259.621 181.229 259.605 182.549 259.539 183.704C259.308 189.116 258.004 193.093 255.628 195.634C253.252 198.142 249.474 199.545 244.293 199.842ZM241.075 171.478V162.617H247.114C247.114 161.165 247.114 159.796 247.114 158.509C247.114 157.189 247.098 156.067 247.065 155.143C247.065 154.186 247.048 153.526 247.015 153.163C246.982 151.909 246.735 150.919 246.273 150.193C245.844 149.467 245.184 148.955 244.293 148.658V138.808C249.474 139.105 253.236 140.491 255.579 142.966C257.955 145.441 259.275 149.318 259.539 154.598C259.572 155.39 259.588 156.727 259.588 158.608C259.621 160.456 259.621 162.535 259.588 164.845C259.588 167.155 259.539 169.366 259.44 171.478H241.075ZM300.484 199L298.405 175.933L297.316 149.104H294.791L293.702 175.933L292.663 184.892H282.911L283.258 169.448L286.228 139.699H305.978L308.849 169.448L309.79 189.545H322.61L321.224 199H300.484ZM270.437 199L262.616 139.6H275.536L278.407 169.448L279.347 189.545H292.069L291.178 199H270.437ZM313.354 184.892L313.7 169.448L316.67 139.6H329.59L323.452 184.892H313.354Z" fill="#F5EDFF"/>
</svg>
