<svg width="403" height="146" viewBox="0 0 403 146" fill="none" xmlns="http://www.w3.org/2000/svg">
<path d="M12.184 59.612C8.032 59.372 5.056 58.232 3.256 56.192C1.48 54.128 0.496 50.876 0.304 46.436C0.28 45.5 0.268 44.528 0.268 43.52C0.268 42.512 0.292 41.516 0.34 40.532C0.388 39.524 0.46 38.54 0.556 37.58H9.304C9.208 39.428 9.148 41.264 9.124 43.088C9.124 44.888 9.184 46.568 9.304 48.128C9.4 49.136 9.676 49.952 10.132 50.576C10.588 51.2 11.272 51.632 12.184 51.872V59.612ZM15.676 59.612V51.872C16.492 51.608 17.104 51.176 17.512 50.576C17.944 49.952 18.208 49.136 18.304 48.128C18.4 47.168 18.46 46.256 18.484 45.392C18.532 44.528 18.532 43.652 18.484 42.764C18.46 41.876 18.4 40.94 18.304 39.956C18.232 38.756 17.932 37.7 17.404 36.788C16.9 35.876 16.048 35.264 14.848 34.952L9.484 33.584C7.156 32.984 5.32 32.12 3.976 30.992C2.632 29.84 1.66 28.4 1.06 26.672C0.484 24.944 0.16 22.904 0.0880001 20.552C0.0640001 19.376 0.0520001 18.248 0.0520001 17.168C0.0520001 16.064 0.0640001 14.972 0.0880001 13.892C0.256 9.452 1.24 6.224 3.04 4.208C4.864 2.168 7.912 1.028 12.184 0.787996V8.528C11.296 8.768 10.636 9.188 10.204 9.788C9.772 10.388 9.496 11.192 9.376 12.2C9.256 13.592 9.196 14.984 9.196 16.376C9.196 17.768 9.256 19.16 9.376 20.552C9.496 21.8 9.808 22.856 10.312 23.72C10.84 24.584 11.752 25.172 13.048 25.484L17.764 26.6C20.236 27.2 22.18 28.1 23.596 29.3C25.012 30.476 26.02 31.952 26.62 33.728C27.244 35.504 27.592 37.58 27.664 39.956C27.688 40.748 27.7 41.504 27.7 42.224C27.7 42.92 27.688 43.616 27.664 44.312C27.664 44.984 27.64 45.692 27.592 46.436C27.424 50.852 26.428 54.092 24.604 56.156C22.804 58.22 19.828 59.372 15.676 59.612ZM18.34 22.604C18.412 20.876 18.46 19.148 18.484 17.42C18.508 15.668 18.484 13.928 18.412 12.2C18.388 11.216 18.136 10.424 17.656 9.824C17.176 9.224 16.504 8.804 15.64 8.564V0.787996C19.648 1.028 22.564 2.18 24.388 4.244C26.212 6.284 27.208 9.5 27.376 13.892C27.424 14.996 27.436 16.352 27.412 17.96C27.388 19.568 27.34 21.116 27.268 22.604H18.34ZM32.6973 49.748C32.6733 49.268 32.6613 48.716 32.6613 48.092C32.6613 47.468 32.6733 46.916 32.6973 46.436C32.8413 44.54 33.2493 42.908 33.9213 41.54C34.6173 40.148 35.6853 38.924 37.1253 37.868C38.5653 36.812 40.4733 35.816 42.8493 34.88C43.5213 34.592 44.1693 34.34 44.7933 34.124C45.4173 33.884 46.0413 33.668 46.6653 33.476V39.596C46.4253 39.692 46.1853 39.812 45.9453 39.956C45.7053 40.076 45.4653 40.208 45.2253 40.352C43.9293 41.048 43.0533 41.924 42.5973 42.98C42.1653 44.012 41.9133 45.164 41.8413 46.436C41.8173 46.892 41.8053 47.336 41.8053 47.768C41.8293 48.176 41.8533 48.596 41.8773 49.028C41.9973 50.276 42.3693 51.224 42.9933 51.872C43.6173 52.52 44.4933 52.844 45.6213 52.844C45.9333 52.844 46.2813 52.796 46.6653 52.7V57.776C45.5133 58.952 43.8933 59.54 41.8053 59.54C38.8293 59.54 36.6333 58.796 35.2173 57.308C33.8253 55.796 32.9853 53.276 32.6973 49.748ZM33.9573 31.964C33.9333 31.532 33.9093 30.752 33.8853 29.624C33.8613 28.496 33.8613 27.524 33.8853 26.708C34.0293 22.94 34.9173 20.132 36.5493 18.284C38.2053 16.436 41.0253 15.404 45.0093 15.188V22.28C44.3373 22.472 43.8453 22.844 43.5333 23.396C43.2213 23.924 43.0413 24.68 42.9933 25.664C42.9693 26.072 42.9453 26.684 42.9213 27.5C42.9213 28.292 42.9213 29.108 42.9213 29.948C42.9453 30.788 42.9693 31.46 42.9933 31.964H33.9573ZM50.1573 59V25.988C50.1573 25.076 50.0373 24.332 49.7973 23.756C49.5573 23.18 49.1133 22.76 48.4653 22.496V15.188C52.6173 15.428 55.4733 16.568 57.0333 18.608C58.6173 20.648 59.3973 23.828 59.3733 28.148L59.3373 59H50.1573ZM64.0071 15.8H73.4391L76.1751 37.508L76.6431 48.74H68.9391L64.0071 15.8ZM69.7311 52.124H79.0911L79.8831 37.508L82.7271 15.8H92.1591L85.5711 59H70.8111L69.7311 52.124ZM95.11 47.876C95.062 46.772 95.026 45.308 95.002 43.484C94.978 41.636 94.966 39.668 94.966 37.58C94.966 35.492 94.978 33.512 95.002 31.64C95.026 29.744 95.062 28.22 95.11 27.068C95.398 23.084 96.418 20.168 98.17 18.32C99.946 16.472 102.718 15.428 106.486 15.188V22.352C105.79 22.544 105.274 22.916 104.938 23.468C104.626 23.996 104.446 24.728 104.398 25.664C104.35 27.584 104.314 29.516 104.29 31.46C104.266 33.404 104.254 35.348 104.254 37.292C104.254 39.236 104.266 41.168 104.29 43.088C104.314 45.008 104.35 46.928 104.398 48.848C104.446 49.856 104.626 50.648 104.938 51.224C105.274 51.8 105.79 52.196 106.486 52.412V59.612C102.646 59.372 99.838 58.34 98.062 56.516C96.31 54.668 95.326 51.788 95.11 47.876ZM109.978 59.612V52.448C110.626 52.208 111.106 51.8 111.418 51.224C111.73 50.648 111.91 49.856 111.958 48.848C112.006 48.176 112.03 47.312 112.03 46.256C112.03 45.176 112.006 44 111.958 42.728H120.994C121.042 43.16 121.078 43.916 121.102 44.996C121.126 46.076 121.114 47.036 121.066 47.876C120.898 51.812 119.95 54.704 118.222 56.552C116.494 58.376 113.746 59.396 109.978 59.612ZM107.638 38.984V32.54H112.03C112.03 31.484 112.03 30.488 112.03 29.552C112.03 28.592 112.018 27.776 111.994 27.104C111.994 26.408 111.982 25.928 111.958 25.664C111.934 24.752 111.754 24.032 111.418 23.504C111.106 22.976 110.626 22.604 109.978 22.388V15.224C113.746 15.44 116.482 16.448 118.186 18.248C119.914 20.048 120.874 22.868 121.066 26.708C121.09 27.284 121.102 28.256 121.102 29.624C121.126 30.968 121.126 32.48 121.102 34.16C121.102 35.84 121.066 37.448 120.994 38.984H107.638ZM159.297 59L155.337 39.704L152.025 9.536H143.493V1.4H157.389L161.277 19.724L165.489 50.792H173.841V59H159.297ZM143.493 59V12.884H149.505L151.701 39.776L152.493 59H143.493ZM167.901 47.444L165.309 20.012L164.841 1.4H173.841V47.444H167.901ZM180.415 46.472C180.367 45.368 180.319 44.036 180.271 42.476C180.247 40.892 180.235 39.236 180.235 37.508C180.235 35.756 180.247 34.076 180.271 32.468C180.295 30.836 180.343 29.432 180.415 28.256C180.631 23.864 181.591 20.648 183.295 18.608C184.999 16.568 187.927 15.428 192.079 15.188V22.388C191.263 22.604 190.663 23.012 190.279 23.612C189.919 24.212 189.727 25.004 189.703 25.988C189.655 27.86 189.607 29.756 189.559 31.676C189.535 33.572 189.523 35.48 189.523 37.4C189.523 39.296 189.535 41.204 189.559 43.124C189.607 45.02 189.655 46.904 189.703 48.776C189.727 49.76 189.919 50.552 190.279 51.152C190.663 51.752 191.263 52.172 192.079 52.412V59.612C187.951 59.372 185.023 58.232 183.295 56.192C181.591 54.152 180.631 50.912 180.415 46.472ZM195.535 59.612V52.484C196.375 52.244 196.975 51.824 197.335 51.224C197.719 50.6 197.935 49.784 197.983 48.776C198.031 46.88 198.067 44.984 198.091 43.088C198.139 41.192 198.163 39.284 198.163 37.364C198.163 35.444 198.139 33.536 198.091 31.64C198.067 29.744 198.031 27.86 197.983 25.988C197.935 24.956 197.719 24.152 197.335 23.576C196.975 22.976 196.375 22.556 195.535 22.316V15.188C198.343 15.332 200.575 15.884 202.231 16.844C203.887 17.78 205.099 19.196 205.867 21.092C206.659 22.964 207.127 25.352 207.271 28.256C207.319 29.36 207.355 30.704 207.379 32.288C207.403 33.872 207.415 35.54 207.415 37.292C207.415 39.02 207.403 40.688 207.379 42.296C207.355 43.904 207.319 45.296 207.271 46.472C207.127 49.424 206.659 51.848 205.867 53.744C205.099 55.616 203.887 57.032 202.231 57.992C200.575 58.928 198.343 59.468 195.535 59.612ZM213.877 59V32.972H222.949L226.081 24.116L229.933 15.8H239.581L222.733 48.092V59H213.877ZM213.877 30.596V1.4H222.553V12.956L221.653 30.596H213.877ZM226.729 45.752L232.417 35.78L241.057 59H231.553L226.729 45.752ZM260.631 59V1.4H269.955V59H260.631ZM287.546 72.752C284.138 72.56 281.57 71.924 279.842 70.844C278.114 69.788 277.082 68.432 276.746 66.776C276.674 66.368 276.614 65.96 276.566 65.552C276.542 65.144 276.566 64.724 276.638 64.292C276.782 63.14 277.214 62.144 277.934 61.304C278.654 60.488 279.83 59.948 281.462 59.684V58.316C278.534 57.86 276.926 56.504 276.638 54.248C276.566 53.744 276.53 53.384 276.53 53.168C276.53 52.952 276.566 52.616 276.638 52.16C276.758 51.176 277.238 50.288 278.078 49.496C278.942 48.68 280.094 48.2 281.534 48.056V46.724C279.71 45.86 278.342 44.564 277.43 42.836C276.542 41.108 276.014 38.864 275.846 36.104C275.798 35.192 275.762 34.364 275.738 33.62C275.714 32.852 275.702 32.12 275.702 31.424C275.702 30.728 275.714 30.032 275.738 29.336C275.762 28.64 275.798 27.884 275.846 27.068C276.134 23.06 277.19 20.132 279.014 18.284C280.838 16.436 283.682 15.404 287.546 15.188V22.316C286.682 22.556 286.022 22.976 285.566 23.576C285.11 24.176 284.858 24.98 284.81 25.988C284.762 27.284 284.726 28.58 284.702 29.876C284.702 31.172 284.702 32.444 284.702 33.692C284.726 34.916 284.762 36.08 284.81 37.184C284.858 38.192 285.11 38.996 285.566 39.596C286.022 40.196 286.682 40.616 287.546 40.856V48.128C286.202 48.224 285.266 48.452 284.738 48.812C284.234 49.148 283.982 49.616 283.982 50.216C283.982 50.264 283.982 50.312 283.982 50.36C283.982 50.408 283.982 50.456 283.982 50.504C283.982 51.104 284.234 51.56 284.738 51.872C285.242 52.16 286.178 52.376 287.546 52.52V59C286.466 59.168 285.59 59.456 284.918 59.864C284.246 60.272 283.838 60.848 283.694 61.592C283.574 61.952 283.514 62.3 283.514 62.636C283.514 62.972 283.574 63.32 283.694 63.68C283.838 64.424 284.246 64.988 284.918 65.372C285.614 65.78 286.49 66.068 287.546 66.236V72.752ZM291.038 72.788V66.452C292.79 66.38 294.134 66.104 295.07 65.624C296.006 65.168 296.618 64.46 296.906 63.5C297.05 63.14 297.11 62.78 297.086 62.42C297.086 62.06 297.002 61.7 296.834 61.34C296.57 60.428 295.97 59.78 295.034 59.396C294.122 59.036 292.79 58.832 291.038 58.784V52.664C295.31 52.808 298.514 53.576 300.65 54.968C302.786 56.36 304.094 58.424 304.574 61.16C304.622 61.52 304.658 61.964 304.682 62.492C304.706 63.044 304.67 63.62 304.574 64.22C304.118 67.292 302.642 69.452 300.146 70.7C297.674 71.972 294.638 72.668 291.038 72.788ZM291.038 48.02V40.856C291.878 40.616 292.514 40.196 292.946 39.596C293.402 38.996 293.654 38.192 293.702 37.184C293.75 36.08 293.774 34.916 293.774 33.692C293.798 32.444 293.798 31.172 293.774 29.876C293.774 28.58 293.75 27.284 293.702 25.988C293.654 24.98 293.402 24.188 292.946 23.612C292.514 23.012 291.878 22.592 291.038 22.352V15.188C295.862 15.476 299.126 17.048 300.83 19.904H302.09C302.258 18.512 302.762 17.492 303.602 16.844C304.466 16.172 305.714 15.824 307.346 15.8V22.856H306.338C305.09 22.856 304.178 23.18 303.602 23.828C303.05 24.452 302.774 25.484 302.774 26.924V28.94C302.774 29.804 302.774 30.608 302.774 31.352C302.798 32.096 302.798 32.852 302.774 33.62C302.774 34.388 302.75 35.216 302.702 36.104C302.462 40.064 301.43 42.992 299.606 44.888C297.782 46.76 294.926 47.804 291.038 48.02ZM311.327 59V1.4H320.615V59H311.327ZM324.107 57.848V52.52C324.419 52.616 324.743 52.7 325.079 52.772C325.415 52.82 325.751 52.844 326.087 52.844C327.263 52.844 328.103 52.556 328.607 51.98C329.135 51.38 329.423 50.444 329.471 49.172C329.567 47.588 329.639 45.812 329.687 43.844C329.735 41.876 329.759 39.836 329.759 37.724C329.759 35.588 329.735 33.488 329.687 31.424C329.639 29.336 329.567 27.404 329.471 25.628C329.423 24.356 329.135 23.432 328.607 22.856C328.103 22.256 327.263 21.956 326.087 21.956C325.439 21.956 324.779 22.064 324.107 22.28V17.6C324.779 16.808 325.571 16.208 326.483 15.8C327.395 15.368 328.571 15.152 330.011 15.152C332.819 15.152 334.931 16.016 336.347 17.744C337.787 19.472 338.603 22.352 338.795 26.384C338.843 27.8 338.879 29.48 338.903 31.424C338.927 33.368 338.939 35.384 338.939 37.472C338.939 39.56 338.927 41.564 338.903 43.484C338.879 45.404 338.843 47.036 338.795 48.38C338.603 52.412 337.691 55.304 336.059 57.056C334.451 58.784 332.231 59.648 329.399 59.648C328.151 59.648 327.107 59.492 326.267 59.18C325.451 58.892 324.731 58.448 324.107 57.848ZM344.978 46.472C344.93 45.368 344.882 44.036 344.834 42.476C344.81 40.892 344.798 39.236 344.798 37.508C344.798 35.756 344.81 34.076 344.834 32.468C344.858 30.836 344.906 29.432 344.978 28.256C345.194 23.864 346.154 20.648 347.858 18.608C349.562 16.568 352.49 15.428 356.642 15.188V22.388C355.826 22.604 355.226 23.012 354.842 23.612C354.482 24.212 354.29 25.004 354.266 25.988C354.218 27.86 354.17 29.756 354.122 31.676C354.098 33.572 354.086 35.48 354.086 37.4C354.086 39.296 354.098 41.204 354.122 43.124C354.17 45.02 354.218 46.904 354.266 48.776C354.29 49.76 354.482 50.552 354.842 51.152C355.226 51.752 355.826 52.172 356.642 52.412V59.612C352.514 59.372 349.586 58.232 347.858 56.192C346.154 54.152 345.194 50.912 344.978 46.472ZM360.098 59.612V52.484C360.938 52.244 361.538 51.824 361.898 51.224C362.282 50.6 362.498 49.784 362.546 48.776C362.594 46.88 362.63 44.984 362.654 43.088C362.702 41.192 362.726 39.284 362.726 37.364C362.726 35.444 362.702 33.536 362.654 31.64C362.63 29.744 362.594 27.86 362.546 25.988C362.498 24.956 362.282 24.152 361.898 23.576C361.538 22.976 360.938 22.556 360.098 22.316V15.188C362.906 15.332 365.138 15.884 366.794 16.844C368.45 17.78 369.662 19.196 370.43 21.092C371.222 22.964 371.69 25.352 371.834 28.256C371.882 29.36 371.918 30.704 371.942 32.288C371.966 33.872 371.978 35.54 371.978 37.292C371.978 39.02 371.966 40.688 371.942 42.296C371.918 43.904 371.882 45.296 371.834 46.472C371.69 49.424 371.222 51.848 370.43 53.744C369.662 55.616 368.45 57.032 366.794 57.992C365.138 58.928 362.906 59.468 360.098 59.612ZM377.395 37.076V28.868H402.847V37.076H377.395ZM0.592 132.472C0.496 125.008 0.448 117.496 0.448 109.936C0.448 102.352 0.496 94.84 0.592 87.4H9.916C9.82 92.368 9.76 97.516 9.736 102.844C9.736 108.148 9.748 113.452 9.772 118.756C9.796 124.06 9.832 129.196 9.88 134.164C9.88 135.148 10.108 135.952 10.564 136.576C11.02 137.2 11.704 137.632 12.616 137.872V145.612C8.368 145.372 5.32 144.232 3.472 142.192C1.624 140.128 0.664 136.888 0.592 132.472ZM16.108 145.612V137.872C16.996 137.632 17.656 137.2 18.088 136.576C18.52 135.952 18.736 135.148 18.736 134.164C18.784 129.196 18.82 124.06 18.844 118.756C18.892 113.452 18.904 108.148 18.88 102.844C18.88 97.516 18.832 92.368 18.736 87.4H28.024C28.144 94.84 28.204 102.352 28.204 109.936C28.204 117.496 28.144 125.008 28.024 132.472C27.952 136.888 26.992 140.128 25.144 142.192C23.32 144.232 20.308 145.372 16.108 145.612ZM34.549 145V118.972H43.621L46.753 110.116L50.605 101.8H60.253L43.405 134.092V145H34.549ZM34.549 116.596V87.4H43.225V98.956L42.325 116.596H34.549ZM47.401 131.752L53.089 121.78L61.729 145H52.225L47.401 131.752ZM91.2023 145L89.6903 128.224L88.8983 108.712H87.0623L86.2703 128.224L85.5143 134.74H78.4223L78.6743 123.508L80.8343 101.872H95.1983L97.2863 123.508L97.9703 138.124H107.294L106.286 145H91.2023ZM69.3503 145L63.6623 101.8H73.0583L75.1463 123.508L75.8303 138.124H85.0823L84.4343 145H69.3503ZM100.562 134.74L100.814 123.508L102.974 101.8H112.37L107.906 134.74H100.562ZM116.763 134.38V101.8H126.051V135.172C126.051 136.444 126.327 137.38 126.879 137.98C127.455 138.556 128.319 138.844 129.471 138.844C130.095 138.844 130.755 138.724 131.451 138.484V143.488C129.987 144.928 128.127 145.648 125.871 145.648C123.087 145.648 120.867 144.784 119.211 143.056C117.579 141.304 116.763 138.412 116.763 134.38ZM134.907 145V101.8H144.231V145H134.907ZM164.255 145L171.779 87.4H187.511L188.519 95.608H178.691L177.683 112.132L176.243 123.58H180.995L178.799 131.788H175.703L173.795 145H164.255ZM185.351 145L181.643 112.06L181.031 98.848H188.735L194.891 145H185.351ZM199.727 145V101.8H209.015V145H199.727ZM212.507 109.396V102.772C213.395 101.956 214.691 101.548 216.395 101.548C216.971 101.548 217.523 101.572 218.051 101.62C218.603 101.668 219.023 101.704 219.311 101.728V108.856H216.539C214.883 108.856 213.539 109.036 212.507 109.396ZM222.08 108.856V101.8H225.896V89.56H235.184V134.884C235.184 136.3 235.472 137.296 236.048 137.872C236.624 138.448 237.848 138.736 239.72 138.736C240.296 138.736 240.836 138.724 241.34 138.7C241.868 138.676 242.456 138.652 243.104 138.628V145.288C242.6 145.432 242.06 145.528 241.484 145.576C240.908 145.624 240.308 145.648 239.684 145.648C234.74 145.648 231.2 144.736 229.064 142.912C226.952 141.088 225.896 138.076 225.896 133.876V108.856H222.08ZM238.496 108.856V101.8H242.384V108.856H238.496Z" fill="#F5EDFF"/>
</svg>
