<svg width="391" height="74" viewBox="0 0 391 74" fill="none" xmlns="http://www.w3.org/2000/svg">
<path d="M29.9118 58L27.5358 41.224L26.3838 8.68H24.6918L23.5398 41.224L22.8198 47.272H14.3598L15.0438 25.564L19.2918 0.759999H31.8198L36.0318 25.564L36.4638 49.792H46.2198L45.4278 58H29.9118ZM5.25176 58L0.175757 0.399999H9.53576L11.2278 25.564L12.4518 49.792H22.0998L20.8038 58H5.25176ZM38.4438 47.272L39.7398 25.564L41.4318 0.399999H50.7918L46.5438 47.272H38.4438ZM56.1659 58V0.399999H65.4539V58H56.1659ZM74.4539 58V24.628C74.4539 23.356 74.1539 22.432 73.5539 21.856C72.9779 21.256 72.1019 20.956 70.9259 20.956C70.2299 20.956 69.5459 21.076 68.8739 21.316V16.672C69.5939 15.856 70.3979 15.232 71.2859 14.8C72.1979 14.368 73.3859 14.152 74.8499 14.152C77.6579 14.152 79.8419 15.016 81.4019 16.744C82.9619 18.472 83.7419 21.352 83.7419 25.384V58H74.4539ZM96.7542 58L89.1942 14.8H98.6262L101.11 34.708L102.514 51.124H111.514L110.434 58H96.7542ZM95.4222 73.048C94.6542 73.048 93.8262 73 92.9382 72.904C92.0502 72.832 91.2102 72.724 90.4182 72.58V65.668C91.0422 65.692 91.8582 65.728 92.8662 65.776C93.8742 65.824 94.7262 65.848 95.4222 65.848C97.2222 65.848 98.5662 65.572 99.4542 65.02C100.366 64.492 100.75 63.58 100.606 62.284L100.714 61.42H109.858L109.75 62.284C109.702 64.876 109.138 66.952 108.058 68.512C107.002 70.096 105.418 71.248 103.306 71.968C101.218 72.688 98.5902 73.048 95.4222 73.048ZM104.674 47.632L105.61 34.708L107.59 14.8H117.022L112.054 47.632H104.674ZM137.179 58V0.399999H146.503V58H137.179ZM149.959 58V49.792H150.427C151.987 49.792 153.151 49.432 153.919 48.712C154.711 47.992 155.119 46.948 155.143 45.58C155.215 42.82 155.263 40.084 155.287 37.372C155.335 34.636 155.359 31.9 155.359 29.164C155.359 26.428 155.335 23.692 155.287 20.956C155.263 18.22 155.215 15.496 155.143 12.784C155.119 11.416 154.711 10.384 153.919 9.688C153.151 8.968 151.999 8.608 150.463 8.608H149.959V0.399999H150.463C155.335 0.399999 158.863 1.444 161.047 3.532C163.231 5.62 164.359 9.064 164.431 13.864C164.503 17.512 164.551 20.98 164.575 24.268C164.599 27.532 164.599 30.808 164.575 34.096C164.551 37.36 164.503 40.816 164.431 44.464C164.359 49.288 163.231 52.756 161.047 54.868C158.863 56.956 155.323 58 150.427 58H149.959ZM170.726 45.472C170.678 44.368 170.63 43.036 170.582 41.476C170.558 39.892 170.546 38.236 170.546 36.508C170.546 34.756 170.558 33.076 170.582 31.468C170.606 29.836 170.654 28.432 170.726 27.256C170.942 22.864 171.902 19.648 173.606 17.608C175.31 15.568 178.238 14.428 182.39 14.188V21.388C181.574 21.604 180.974 22.012 180.59 22.612C180.23 23.212 180.038 24.004 180.014 24.988C179.966 26.86 179.918 28.756 179.87 30.676C179.846 32.572 179.834 34.48 179.834 36.4C179.834 38.296 179.846 40.204 179.87 42.124C179.918 44.02 179.966 45.904 180.014 47.776C180.038 48.76 180.23 49.552 180.59 50.152C180.974 50.752 181.574 51.172 182.39 51.412V58.612C178.262 58.372 175.334 57.232 173.606 55.192C171.902 53.152 170.942 49.912 170.726 45.472ZM185.846 58.612V51.484C186.686 51.244 187.286 50.824 187.646 50.224C188.03 49.6 188.246 48.784 188.294 47.776C188.342 45.88 188.378 43.984 188.402 42.088C188.45 40.192 188.474 38.284 188.474 36.364C188.474 34.444 188.45 32.536 188.402 30.64C188.378 28.744 188.342 26.86 188.294 24.988C188.246 23.956 188.03 23.152 187.646 22.576C187.286 21.976 186.686 21.556 185.846 21.316V14.188C188.654 14.332 190.886 14.884 192.542 15.844C194.198 16.78 195.41 18.196 196.178 20.092C196.97 21.964 197.438 24.352 197.582 27.256C197.63 28.36 197.666 29.704 197.69 31.288C197.714 32.872 197.726 34.54 197.726 36.292C197.726 38.02 197.714 39.688 197.69 41.296C197.666 42.904 197.63 44.296 197.582 45.472C197.438 48.424 196.97 50.848 196.178 52.744C195.41 54.616 194.198 56.032 192.542 56.992C190.886 57.928 188.654 58.468 185.846 58.612ZM204.188 58V14.8H213.476V58H204.188ZM222.476 58V24.628C222.476 23.356 222.176 22.432 221.576 21.856C221 21.256 220.124 20.956 218.948 20.956C218.612 20.956 218.276 20.992 217.94 21.064C217.628 21.112 217.304 21.196 216.968 21.316V16.636C217.664 15.82 218.456 15.208 219.344 14.8C220.256 14.368 221.432 14.152 222.872 14.152C225.68 14.152 227.864 15.016 229.424 16.744C230.984 18.472 231.764 21.352 231.764 25.384V58H222.476ZM237.72 48.748C237.696 48.268 237.684 47.716 237.684 47.092C237.684 46.468 237.696 45.916 237.72 45.436C237.864 43.54 238.272 41.908 238.944 40.54C239.64 39.148 240.708 37.924 242.148 36.868C243.588 35.812 245.496 34.816 247.872 33.88C248.544 33.592 249.192 33.34 249.816 33.124C250.44 32.884 251.064 32.668 251.688 32.476V38.596C251.448 38.692 251.208 38.812 250.968 38.956C250.728 39.076 250.488 39.208 250.248 39.352C248.952 40.048 248.076 40.924 247.62 41.98C247.188 43.012 246.936 44.164 246.864 45.436C246.84 45.892 246.828 46.336 246.828 46.768C246.852 47.176 246.876 47.596 246.9 48.028C247.02 49.276 247.392 50.224 248.016 50.872C248.64 51.52 249.516 51.844 250.644 51.844C250.956 51.844 251.304 51.796 251.688 51.7V56.776C250.536 57.952 248.916 58.54 246.828 58.54C243.852 58.54 241.656 57.796 240.24 56.308C238.848 54.796 238.008 52.276 237.72 48.748ZM238.98 30.964C238.956 30.532 238.932 29.752 238.908 28.624C238.884 27.496 238.884 26.524 238.908 25.708C239.052 21.94 239.94 19.132 241.572 17.284C243.228 15.436 246.048 14.404 250.032 14.188V21.28C249.36 21.472 248.868 21.844 248.556 22.396C248.244 22.924 248.064 23.68 248.016 24.664C247.992 25.072 247.968 25.684 247.944 26.5C247.944 27.292 247.944 28.108 247.944 28.948C247.968 29.788 247.992 30.46 248.016 30.964H238.98ZM255.18 58V24.988C255.18 24.076 255.06 23.332 254.82 22.756C254.58 22.18 254.136 21.76 253.488 21.496V14.188C257.64 14.428 260.496 15.568 262.056 17.608C263.64 19.648 264.42 22.828 264.396 27.148L264.36 58H255.18ZM268.886 21.856V14.8H272.702V2.56H281.99V47.884C281.99 49.3 282.278 50.296 282.854 50.872C283.43 51.448 284.654 51.736 286.526 51.736C287.102 51.736 287.642 51.724 288.146 51.7C288.674 51.676 289.262 51.652 289.91 51.628V58.288C289.406 58.432 288.866 58.528 288.29 58.576C287.714 58.624 287.114 58.648 286.49 58.648C281.546 58.648 278.006 57.736 275.87 55.912C273.758 54.088 272.702 51.076 272.702 46.876V21.856H268.886ZM285.302 21.856V14.8H289.19V21.856H285.302ZM293.664 46.876C293.616 45.772 293.58 44.308 293.556 42.484C293.532 40.636 293.52 38.668 293.52 36.58C293.52 34.492 293.532 32.512 293.556 30.64C293.58 28.744 293.616 27.22 293.664 26.068C293.952 22.084 294.972 19.168 296.724 17.32C298.5 15.472 301.272 14.428 305.04 14.188V21.352C304.344 21.544 303.828 21.916 303.492 22.468C303.18 22.996 303 23.728 302.952 24.664C302.904 26.584 302.868 28.516 302.844 30.46C302.82 32.404 302.808 34.348 302.808 36.292C302.808 38.236 302.82 40.168 302.844 42.088C302.868 44.008 302.904 45.928 302.952 47.848C303 48.856 303.18 49.648 303.492 50.224C303.828 50.8 304.344 51.196 305.04 51.412V58.612C301.2 58.372 298.392 57.34 296.616 55.516C294.864 53.668 293.88 50.788 293.664 46.876ZM308.532 58.612V51.448C309.18 51.208 309.66 50.8 309.972 50.224C310.284 49.648 310.464 48.856 310.512 47.848C310.56 47.176 310.584 46.312 310.584 45.256C310.584 44.176 310.56 43 310.512 41.728H319.548C319.596 42.16 319.632 42.916 319.656 43.996C319.68 45.076 319.668 46.036 319.62 46.876C319.452 50.812 318.504 53.704 316.776 55.552C315.048 57.376 312.3 58.396 308.532 58.612ZM306.192 37.984V31.54H310.584C310.584 30.484 310.584 29.488 310.584 28.552C310.584 27.592 310.572 26.776 310.548 26.104C310.548 25.408 310.536 24.928 310.512 24.664C310.488 23.752 310.308 23.032 309.972 22.504C309.66 21.976 309.18 21.604 308.532 21.388V14.224C312.3 14.44 315.036 15.448 316.74 17.248C318.468 19.048 319.428 21.868 319.62 25.708C319.644 26.284 319.656 27.256 319.656 28.624C319.68 29.968 319.68 31.48 319.656 33.16C319.656 34.84 319.62 36.448 319.548 37.984H306.192ZM338.265 21.856V14.8H342.081V2.56H351.369V47.884C351.369 49.3 351.657 50.296 352.233 50.872C352.809 51.448 354.033 51.736 355.905 51.736C356.481 51.736 357.021 51.724 357.525 51.7C358.053 51.676 358.641 51.652 359.289 51.628V58.288C358.785 58.432 358.245 58.528 357.669 58.576C357.093 58.624 356.493 58.648 355.869 58.648C350.925 58.648 347.385 57.736 345.249 55.912C343.137 54.088 342.081 51.076 342.081 46.876V21.856H338.265ZM354.681 21.856V14.8H358.569V21.856H354.681ZM363.079 45.472C363.031 44.368 362.983 43.036 362.935 41.476C362.911 39.892 362.899 38.236 362.899 36.508C362.899 34.756 362.911 33.076 362.935 31.468C362.959 29.836 363.007 28.432 363.079 27.256C363.295 22.864 364.255 19.648 365.959 17.608C367.663 15.568 370.591 14.428 374.743 14.188V21.388C373.927 21.604 373.327 22.012 372.943 22.612C372.583 23.212 372.391 24.004 372.367 24.988C372.319 26.86 372.271 28.756 372.223 30.676C372.199 32.572 372.187 34.48 372.187 36.4C372.187 38.296 372.199 40.204 372.223 42.124C372.271 44.02 372.319 45.904 372.367 47.776C372.391 48.76 372.583 49.552 372.943 50.152C373.327 50.752 373.927 51.172 374.743 51.412V58.612C370.615 58.372 367.687 57.232 365.959 55.192C364.255 53.152 363.295 49.912 363.079 45.472ZM378.199 58.612V51.484C379.039 51.244 379.639 50.824 379.999 50.224C380.383 49.6 380.599 48.784 380.647 47.776C380.695 45.88 380.731 43.984 380.755 42.088C380.803 40.192 380.827 38.284 380.827 36.364C380.827 34.444 380.803 32.536 380.755 30.64C380.731 28.744 380.695 26.86 380.647 24.988C380.599 23.956 380.383 23.152 379.999 22.576C379.639 21.976 379.039 21.556 378.199 21.316V14.188C381.007 14.332 383.239 14.884 384.895 15.844C386.551 16.78 387.763 18.196 388.531 20.092C389.323 21.964 389.791 24.352 389.935 27.256C389.983 28.36 390.019 29.704 390.043 31.288C390.067 32.872 390.079 34.54 390.079 36.292C390.079 38.02 390.067 39.688 390.043 41.296C390.019 42.904 389.983 44.296 389.935 45.472C389.791 48.424 389.323 50.848 388.531 52.744C387.763 54.616 386.551 56.032 384.895 56.992C383.239 57.928 381.007 58.468 378.199 58.612Z" fill="#F5EDFF"/>
</svg>
