<svg width="334" height="60" viewBox="0 0 334 60" fill="none" xmlns="http://www.w3.org/2000/svg">
<path d="M30.248 58.5L27.872 41.724L26.72 9.18H25.028L23.876 41.724L23.156 47.772H14.696L15.38 26.064L19.628 1.26H32.156L36.368 26.064L36.8 50.292H46.556L45.764 58.5H30.248ZM5.588 58.5L0.512 0.899999H9.872L11.564 26.064L12.788 50.292H22.436L21.14 58.5H5.588ZM38.78 47.772L40.076 26.064L41.768 0.899999H51.128L46.88 47.772H38.78ZM54.3421 58.5V0.899999H63.6301V58.5H54.3421ZM72.6301 58.5V25.128C72.6301 23.856 72.3301 22.932 71.7301 22.356C71.1541 21.756 70.2781 21.456 69.1021 21.456C68.4061 21.456 67.7221 21.576 67.0501 21.816V17.172C67.7701 16.356 68.5741 15.732 69.4621 15.3C70.3741 14.868 71.5621 14.652 73.0261 14.652C75.8341 14.652 78.0181 15.516 79.5781 17.244C81.1381 18.972 81.9181 21.852 81.9181 25.884V58.5H72.6301ZM86.2544 45.972C86.2064 44.868 86.1584 43.536 86.1104 41.976C86.0864 40.392 86.0744 38.736 86.0744 37.008C86.0744 35.256 86.0864 33.576 86.1104 31.968C86.1344 30.336 86.1824 28.932 86.2544 27.756C86.4704 23.364 87.4304 20.148 89.1344 18.108C90.8384 16.068 93.7664 14.928 97.9184 14.688V21.888C97.1024 22.104 96.5024 22.512 96.1184 23.112C95.7584 23.712 95.5664 24.504 95.5424 25.488C95.4944 27.36 95.4464 29.256 95.3984 31.176C95.3744 33.072 95.3624 34.98 95.3624 36.9C95.3624 38.796 95.3744 40.704 95.3984 42.624C95.4464 44.52 95.4944 46.404 95.5424 48.276C95.5664 49.26 95.7584 50.052 96.1184 50.652C96.5024 51.252 97.1024 51.672 97.9184 51.912V59.112C93.7904 58.872 90.8624 57.732 89.1344 55.692C87.4304 53.652 86.4704 50.412 86.2544 45.972ZM101.374 59.112V51.984C102.214 51.744 102.814 51.324 103.174 50.724C103.558 50.1 103.774 49.284 103.822 48.276C103.87 46.38 103.906 44.484 103.93 42.588C103.978 40.692 104.002 38.784 104.002 36.864C104.002 34.944 103.978 33.036 103.93 31.14C103.906 29.244 103.87 27.36 103.822 25.488C103.774 24.456 103.558 23.652 103.174 23.076C102.814 22.476 102.214 22.056 101.374 21.816V14.688C104.182 14.832 106.414 15.384 108.07 16.344C109.726 17.28 110.938 18.696 111.706 20.592C112.498 22.464 112.966 24.852 113.11 27.756C113.158 28.86 113.194 30.204 113.218 31.788C113.242 33.372 113.254 35.04 113.254 36.792C113.254 38.52 113.242 40.188 113.218 41.796C113.194 43.404 113.158 44.796 113.11 45.972C112.966 48.924 112.498 51.348 111.706 53.244C110.938 55.116 109.726 56.532 108.07 57.492C106.414 58.428 104.182 58.968 101.374 59.112ZM130.717 49.248C130.693 48.768 130.681 48.216 130.681 47.592C130.681 46.968 130.693 46.416 130.717 45.936C130.861 44.04 131.269 42.408 131.941 41.04C132.637 39.648 133.705 38.424 135.145 37.368C136.585 36.312 138.493 35.316 140.869 34.38C141.541 34.092 142.189 33.84 142.813 33.624C143.437 33.384 144.061 33.168 144.685 32.976V39.096C144.445 39.192 144.205 39.312 143.965 39.456C143.725 39.576 143.485 39.708 143.245 39.852C141.949 40.548 141.073 41.424 140.617 42.48C140.185 43.512 139.933 44.664 139.861 45.936C139.837 46.392 139.825 46.836 139.825 47.268C139.849 47.676 139.873 48.096 139.897 48.528C140.017 49.776 140.389 50.724 141.013 51.372C141.637 52.02 142.513 52.344 143.641 52.344C143.953 52.344 144.301 52.296 144.685 52.2V57.276C143.533 58.452 141.913 59.04 139.825 59.04C136.849 59.04 134.653 58.296 133.237 56.808C131.845 55.296 131.005 52.776 130.717 49.248ZM131.977 31.464C131.953 31.032 131.929 30.252 131.905 29.124C131.881 27.996 131.881 27.024 131.905 26.208C132.049 22.44 132.937 19.632 134.569 17.784C136.225 15.936 139.045 14.904 143.029 14.688V21.78C142.357 21.972 141.865 22.344 141.553 22.896C141.241 23.424 141.061 24.18 141.013 25.164C140.989 25.572 140.965 26.184 140.941 27C140.941 27.792 140.941 28.608 140.941 29.448C140.965 30.288 140.989 30.96 141.013 31.464H131.977ZM148.177 58.5V25.488C148.177 24.576 148.057 23.832 147.817 23.256C147.577 22.68 147.133 22.26 146.485 21.996V14.688C150.637 14.928 153.493 16.068 155.053 18.108C156.637 20.148 157.417 23.328 157.393 27.648L157.357 58.5H148.177ZM162.207 58.5V15.3H171.495V58.5H162.207ZM174.987 22.896V16.272C175.875 15.456 177.171 15.048 178.875 15.048C179.451 15.048 180.003 15.072 180.531 15.12C181.083 15.168 181.503 15.204 181.791 15.228V22.356H179.019C177.363 22.356 176.019 22.536 174.987 22.896ZM183.255 47.376C183.207 46.272 183.171 44.808 183.147 42.984C183.123 41.136 183.111 39.168 183.111 37.08C183.111 34.992 183.123 33.012 183.147 31.14C183.171 29.244 183.207 27.72 183.255 26.568C183.543 22.584 184.563 19.668 186.315 17.82C188.091 15.972 190.863 14.928 194.631 14.688V21.852C193.935 22.044 193.419 22.416 193.083 22.968C192.771 23.496 192.591 24.228 192.543 25.164C192.495 27.084 192.459 29.016 192.435 30.96C192.411 32.904 192.399 34.848 192.399 36.792C192.399 38.736 192.411 40.668 192.435 42.588C192.459 44.508 192.495 46.428 192.543 48.348C192.591 49.356 192.771 50.148 193.083 50.724C193.419 51.3 193.935 51.696 194.631 51.912V59.112C190.791 58.872 187.983 57.84 186.207 56.016C184.455 54.168 183.471 51.288 183.255 47.376ZM198.123 59.112V51.948C198.771 51.708 199.251 51.3 199.563 50.724C199.875 50.148 200.055 49.356 200.103 48.348C200.151 47.676 200.175 46.812 200.175 45.756C200.175 44.676 200.151 43.5 200.103 42.228H209.139C209.187 42.66 209.223 43.416 209.247 44.496C209.271 45.576 209.259 46.536 209.211 47.376C209.043 51.312 208.095 54.204 206.367 56.052C204.639 57.876 201.891 58.896 198.123 59.112ZM195.783 38.484V32.04H200.175C200.175 30.984 200.175 29.988 200.175 29.052C200.175 28.092 200.163 27.276 200.139 26.604C200.139 25.908 200.127 25.428 200.103 25.164C200.079 24.252 199.899 23.532 199.563 23.004C199.251 22.476 198.771 22.104 198.123 21.888V14.724C201.891 14.94 204.627 15.948 206.331 17.748C208.059 19.548 209.019 22.368 209.211 26.208C209.235 26.784 209.247 27.756 209.247 29.124C209.271 30.468 209.271 31.98 209.247 33.66C209.247 35.34 209.211 36.948 209.139 38.484H195.783ZM255.47 58.5L253.094 41.724L251.942 9.18H250.25L249.098 41.724L248.378 47.772H239.918L240.602 26.064L244.85 1.26H257.378L261.59 26.064L262.022 50.292H271.778L270.986 58.5H255.47ZM230.81 58.5L225.734 0.899999H235.094L236.786 26.064L238.01 50.292H247.658L246.362 58.5H230.81ZM264.002 47.772L265.298 26.064L266.99 0.899999H276.35L272.102 47.772H264.002ZM277.654 47.376C277.606 46.272 277.57 44.808 277.546 42.984C277.522 41.136 277.51 39.168 277.51 37.08C277.51 34.992 277.522 33.012 277.546 31.14C277.57 29.244 277.606 27.72 277.654 26.568C277.942 22.584 278.962 19.668 280.714 17.82C282.49 15.972 285.262 14.928 289.03 14.688V21.852C288.334 22.044 287.818 22.416 287.482 22.968C287.17 23.496 286.99 24.228 286.942 25.164C286.894 27.084 286.858 29.016 286.834 30.96C286.81 32.904 286.798 34.848 286.798 36.792C286.798 38.736 286.81 40.668 286.834 42.588C286.858 44.508 286.894 46.428 286.942 48.348C286.99 49.356 287.17 50.148 287.482 50.724C287.818 51.3 288.334 51.696 289.03 51.912V59.112C285.19 58.872 282.382 57.84 280.606 56.016C278.854 54.168 277.87 51.288 277.654 47.376ZM292.522 59.112V51.948C293.17 51.708 293.65 51.3 293.962 50.724C294.274 50.148 294.454 49.356 294.502 48.348C294.55 47.676 294.574 46.812 294.574 45.756C294.574 44.676 294.55 43.5 294.502 42.228H303.538C303.586 42.66 303.622 43.416 303.646 44.496C303.67 45.576 303.658 46.536 303.61 47.376C303.442 51.312 302.494 54.204 300.766 56.052C299.038 57.876 296.29 58.896 292.522 59.112ZM290.182 38.484V32.04H294.574C294.574 30.984 294.574 29.988 294.574 29.052C294.574 28.092 294.562 27.276 294.538 26.604C294.538 25.908 294.526 25.428 294.502 25.164C294.478 24.252 294.298 23.532 293.962 23.004C293.65 22.476 293.17 22.104 292.522 21.888V14.724C296.29 14.94 299.026 15.948 300.73 17.748C302.458 19.548 303.418 22.368 303.61 26.208C303.634 26.784 303.646 27.756 303.646 29.124C303.67 30.468 303.67 31.98 303.646 33.66C303.646 35.34 303.61 36.948 303.538 38.484H290.182ZM316.224 43.704L316.044 38.772C315.924 36.828 315.996 35.196 316.26 33.876C316.524 32.532 317.076 31.344 317.916 30.312C318.78 29.28 319.968 28.284 321.48 27.324L322.776 26.568C323.328 26.232 323.736 25.764 324 25.164C324.288 24.564 324.468 23.844 324.54 23.004C324.612 22.164 324.648 21.252 324.648 20.268V11.628C324.648 10.62 324.408 9.816 323.928 9.216C323.472 8.592 322.776 8.172 321.84 7.956V0.215997C326.136 0.431996 329.22 1.572 331.092 3.636C332.988 5.676 333.936 8.904 333.936 13.32C333.936 14.424 333.936 15.372 333.936 16.164C333.936 16.956 333.936 17.676 333.936 18.324C333.96 18.948 333.96 19.596 333.936 20.268C333.936 22.764 333.72 24.78 333.288 26.316C332.88 27.852 332.34 29.052 331.668 29.916C331.02 30.78 330.312 31.44 329.544 31.896C328.8 32.352 328.092 32.748 327.42 33.084L325.8 33.948C324.792 34.452 324.18 35.16 323.964 36.072C323.772 36.96 323.64 37.872 323.568 38.808L323.28 43.704H316.224ZM306.828 22.032C306.804 21.216 306.78 20.34 306.756 19.404C306.732 18.468 306.708 17.496 306.684 16.488C306.684 15.456 306.708 14.4 306.756 13.32C306.924 8.928 307.908 5.712 309.708 3.672C311.508 1.608 314.4 0.455997 318.384 0.215997V8.028C317.592 8.268 316.98 8.7 316.548 9.324C316.14 9.924 315.912 10.692 315.864 11.628C315.768 13.452 315.708 15.228 315.684 16.956C315.684 18.684 315.72 20.376 315.792 22.032H306.828ZM314.172 58.5V49.392H325.368V58.5H314.172Z" fill="#06030A"/>
</svg>
